ExpletusSans-Italic.ufo
<glyph name="exclam" format="1">
  <advance width="351"/>
  <unicode hex="0021"/>
  <outline>
    <contour>
      <point x="253" y="727" type="line" name="hr00"/>
      <point x="172" y="185" type="line"/>
      <point x="104" y="185" type="line"/>
      <point x="159" y="727" type="line"/>
    </contour>
    <contour>
      <point x="61" y="44" type="curve" smooth="yes"/>
      <point x="65" y="79"/>
      <point x="93" y="105"/>
      <point x="127" y="105" type="curve" smooth="yes"/>
      <point x="162" y="105"/>
      <point x="185" y="79"/>
      <point x="181" y="44" type="curve" smooth="yes"/>
      <point x="177" y="10"/>
      <point x="148" y="-15"/>
      <point x="113" y="-15" type="curve" smooth="yes"/>
      <point x="79" y="-15"/>
      <point x="57" y="10"/>
    </contour>
  </outline>
</glyph>
<glyph name="numbersign" format="1">
  <advance width="894"/>
  <unicode hex="0023"/>
  <outline>
    <contour>
      <point x="521" y="165" type="line"/>
      <point x="326" y="165" type="line"/>
      <point x="343" y="203"/>
      <point x="371" y="230"/>
      <point x="418" y="230" type="curve" smooth="yes"/>
      <point x="541" y="230" type="line"/>
      <point x="617" y="474" type="line"/>
      <point x="387" y="474" type="line"/>
      <point x="239" y="0" type="line" name="hr01"/>
      <point x="163" y="0" type="line"/>
      <point x="214" y="165" type="line" name="hr02"/>
      <point x="102" y="165" type="line"/>
      <point x="110" y="230" type="line"/>
      <point x="234" y="230" type="line"/>
      <point x="310" y="474" type="line"/>
      <point x="199" y="474" type="line"/>
      <point x="207" y="539" type="line"/>
      <point x="331" y="539" type="line"/>
      <point x="382" y="702" type="line" name="hr03"/>
      <point x="458" y="702" type="line"/>
      <point x="407" y="539" type="line" name="hr04"/>
      <point x="638" y="539" type="line"/>
      <point x="689" y="702" type="line" name="hr05"/>
      <point x="765" y="702" type="line"/>
      <point x="714" y="539" type="line" name="hr06"/>
      <point x="823" y="539" type="line"/>
      <point x="815" y="474" type="line"/>
      <point x="694" y="474" type="line"/>
      <point x="617" y="230" type="line"/>
      <point x="726" y="230" type="line"/>
      <point x="718" y="165" type="line" name="hr07"/>
      <point x="597" y="165" type="line"/>
      <point x="546" y="0" type="line" name="hr08"/>
      <point x="470" y="0" type="line"/>
    </contour>
  </outline>
</glyph>
<glyph name="dollar" format="1">
  <advance width="514"/>
  <unicode hex="0024"/>
  <outline>
    <contour>
      <point x="338" y="638" type="curve" smooth="yes"/>
      <point x="271" y="638"/>
      <point x="224" y="594"/>
      <point x="218" y="544" type="curve" smooth="yes"/>
      <point x="200" y="392"/>
      <point x="522" y="395"/>
      <point x="495" y="176" type="curve" smooth="yes"/>
      <point x="485" y="96"/>
      <point x="413" y="14"/>
      <point x="298" y="-6" type="curve"/>
      <point x="285" y="-107" type="line"/>
      <point x="213" y="-107" type="line"/>
      <point x="225" y="-11" type="line" name="hr01"/>
      <point x="171" y="-8"/>
      <point x="107" y="5"/>
      <point x="49" y="36" type="curve"/>
      <point x="83" y="101" type="line"/>
      <point x="141" y="73"/>
      <point x="194" y="62"/>
      <point x="242" y="62" type="curve" smooth="yes"/>
      <point x="328" y="62"/>
      <point x="390" y="117"/>
      <point x="397" y="178" type="curve" smooth="yes"/>
      <point x="418" y="344"/>
      <point x="97" y="326"/>
      <point x="123" y="544" type="curve" smooth="yes"/>
      <point x="134" y="630"/>
      <point x="212" y="701"/>
      <point x="314" y="711" type="curve"/>
      <point x="326" y="810" type="line"/>
      <point x="398" y="810" type="line"/>
      <point x="386" y="709" type="line"/>
      <point x="423" y="705"/>
      <point x="459" y="696"/>
      <point x="507" y="681" type="curve"/>
      <point x="471" y="616" type="line"/>
      <point x="415" y="633"/>
      <point x="376" y="638"/>
    </contour>
  </outline>
</glyph>
<glyph name="percent" format="1">
  <advance width="814"/>
  <unicode hex="0025"/>
  <outline>
    <contour>
      <point x="682" y="702" type="line"/>
      <point x="752" y="702" type="line"/>
      <point x="228" y="0" type="line"/>
      <point x="158" y="0" type="line"/>
    </contour>
    <contour>
      <point x="412" y="513" type="curve"/>
      <point x="397" y="384"/>
      <point x="320" y="309"/>
      <point x="227" y="309" type="curve" smooth="yes"/>
      <point x="132" y="309"/>
      <point x="76" y="383"/>
      <point x="91" y="513" type="curve"/>
      <point x="107" y="642"/>
      <point x="183" y="717"/>
      <point x="278" y="717" type="curve"/>
      <point x="371" y="717"/>
      <point x="428" y="642"/>
    </contour>
    <contour>
      <point x="327" y="513" type="curve"/>
      <point x="339" y="610"/>
      <point x="317" y="657"/>
      <point x="270" y="657" type="curve"/>
      <point x="223" y="657"/>
      <point x="188" y="610"/>
      <point x="176" y="513" type="curve"/>
      <point x="164" y="415"/>
      <point x="188" y="369"/>
      <point x="235" y="369" type="curve" smooth="yes"/>
      <point x="282" y="369"/>
      <point x="315" y="415"/>
    </contour>
    <contour>
      <point x="818" y="191" type="curve" smooth="yes"/>
      <point x="802" y="62"/>
      <point x="726" y="-13"/>
      <point x="632" y="-13" type="curve" smooth="yes" name="hr01"/>
      <point x="538" y="-13"/>
      <point x="481" y="61"/>
      <point x="497" y="191" type="curve" smooth="yes"/>
      <point x="513" y="319"/>
      <point x="588" y="394"/>
      <point x="682" y="394" type="curve" smooth="yes"/>
      <point x="776" y="394"/>
      <point x="834" y="319"/>
    </contour>
    <contour>
      <point x="733" y="191" type="curve" smooth="yes"/>
      <point x="745" y="287"/>
      <point x="723" y="335"/>
      <point x="675" y="335" type="curve" smooth="yes"/>
      <point x="629" y="335"/>
      <point x="594" y="287"/>
      <point x="582" y="191" type="curve" smooth="yes"/>
      <point x="570" y="93"/>
      <point x="593" y="46"/>
      <point x="639" y="46" type="curve" smooth="yes"/>
      <point x="687" y="46"/>
      <point x="721" y="93"/>
    </contour>
  </outline>
</glyph>
<glyph name="ampersand" format="1">
  <advance width="761"/>
  <unicode hex="0026"/>
  <outline>
    <contour>
      <point x="405" y="70" type="curve" smooth="yes"/>
      <point x="449" y="84"/>
      <point x="485" y="78"/>
      <point x="513" y="51" type="curve"/>
      <point x="461" y="13"/>
      <point x="406" y="-11"/>
      <point x="333" y="-11" type="curve" smooth="yes"/>
      <point x="198" y="-11"/>
      <point x="135" y="98"/>
      <point x="148" y="209" type="curve" smooth="yes"/>
      <point x="159" y="300"/>
      <point x="224" y="367"/>
      <point x="295" y="416" type="curve"/>
      <point x="266" y="467"/>
      <point x="253" y="516"/>
      <point x="259" y="562" type="curve" smooth="yes"/>
      <point x="271" y="661"/>
      <point x="352" y="737"/>
      <point x="474" y="737" type="curve" smooth="yes"/>
      <point x="518" y="737"/>
      <point x="572" y="726"/>
      <point x="613" y="703" type="curve"/>
      <point x="581" y="640" type="line"/>
      <point x="548" y="657"/>
      <point x="499" y="665"/>
      <point x="463" y="665" type="curve" smooth="yes"/>
      <point x="401" y="665"/>
      <point x="351" y="625"/>
      <point x="345" y="571" type="curve" smooth="yes"/>
      <point x="337" y="510"/>
      <point x="367" y="470"/>
      <point x="414" y="404" type="curve"/>
      <point x="561" y="205" type="line"/>
      <point x="601" y="263"/>
      <point x="625" y="314"/>
      <point x="643" y="379" type="curve"/>
      <point x="715" y="379" type="line"/>
      <point x="686" y="291"/>
      <point x="653" y="213"/>
      <point x="603" y="146" type="curve"/>
      <point x="712" y="0" type="line" name="hr01"/>
      <point x="594" y="0" type="line"/>
      <point x="332" y="358" type="line"/>
      <point x="288" y="324"/>
      <point x="254" y="282"/>
      <point x="247" y="222" type="curve" smooth="yes"/>
      <point x="235" y="126"/>
      <point x="274" y="61"/>
      <point x="357" y="61" type="curve" smooth="yes" name="hr02"/>
      <point x="371" y="61"/>
      <point x="385" y="64"/>
    </contour>
  </outline>
</glyph>
<glyph name="quotesingle" format="1">
  <advance width="191"/>
  <unicode hex="0027"/>
  <outline>
    <contour>
      <point x="143" y="727" type="line" name="hr00"/>
      <point x="225" y="727" type="line"/>
      <point x="215" y="649" type="line" smooth="yes"/>
      <point x="209" y="596"/>
      <point x="188" y="514"/>
      <point x="119" y="531" type="curve"/>
    </contour>
  </outline>
</glyph>
<glyph name="parenleft" format="1">
  <advance width="403"/>
  <unicode hex="0028"/>
  <outline>
    <contour>
      <point x="298" y="296" type="curve" name="hr00"/>
      <point x="271" y="74"/>
      <point x="266" y="-21"/>
      <point x="387" y="-126" type="curve"/>
      <point x="342" y="-176" type="line"/>
      <point x="201" y="-72"/>
      <point x="186" y="46"/>
      <point x="217" y="296" type="curve"/>
      <point x="247" y="545"/>
      <point x="291" y="663"/>
      <point x="458" y="767" type="curve"/>
      <point x="491" y="717" type="line"/>
      <point x="344" y="612"/>
      <point x="325" y="517"/>
    </contour>
  </outline>
</glyph>
<glyph name="parenright" format="1">
  <advance width="401"/>
  <unicode hex="0029"/>
  <outline>
    <contour>
      <point x="179" y="296" type="curve" name="hr00"/>
      <point x="206" y="517"/>
      <point x="211" y="612"/>
      <point x="90" y="717" type="curve"/>
      <point x="135" y="767" type="line"/>
      <point x="276" y="663"/>
      <point x="290" y="545"/>
      <point x="260" y="296" type="curve"/>
      <point x="229" y="46"/>
      <point x="186" y="-72"/>
      <point x="19" y="-176" type="curve"/>
      <point x="-13" y="-126" type="line"/>
      <point x="133" y="-21"/>
      <point x="152" y="74"/>
    </contour>
  </outline>
</glyph>
<glyph name="asterisk" format="1">
  <advance width="530"/>
  <unicode hex="002A"/>
  <outline>
    <contour>
      <point x="409" y="737" type="line" name="hr00"/>
      <point x="470" y="699" type="line"/>
      <point x="373" y="589"/>
      <point x="359" y="569"/>
      <point x="358" y="568" type="curve"/>
      <point x="521" y="584" type="line"/>
      <point x="512" y="508" type="line"/>
      <point x="352" y="526"/>
      <point x="350" y="523"/>
      <point x="352" y="523" type="curve"/>
      <point x="431" y="392" type="line"/>
      <point x="360" y="354" type="line"/>
      <point x="312" y="502" type="line"/>
      <point x="227" y="354" type="line"/>
      <point x="166" y="392" type="line"/>
      <point x="276" y="524" type="line"/>
      <point x="113" y="508" type="line"/>
      <point x="122" y="584" type="line"/>
      <point x="282" y="569" type="line"/>
      <point x="201" y="699" type="line"/>
      <point x="272" y="737" type="line"/>
      <point x="323" y="590" type="line"/>
    </contour>
  </outline>
</glyph>
<glyph name="plus" format="1">
  <advance width="568"/>
  <unicode hex="002B"/>
  <outline>
    <contour>
      <point x="88" y="337" type="line" name="hr00"/>
      <point x="285" y="337" type="line"/>
      <point x="311" y="546" type="line"/>
      <point x="384" y="546" type="line"/>
      <point x="358" y="337" type="line"/>
      <point x="556" y="337" type="line"/>
      <point x="548" y="273" type="line"/>
      <point x="350" y="273" type="line"/>
      <point x="324" y="62" type="line"/>
      <point x="251" y="62" type="line"/>
      <point x="277" y="273" type="line"/>
      <point x="80" y="273" type="line"/>
    </contour>
  </outline>
</glyph>
<glyph name="comma" format="1">
  <advance width="197"/>
  <unicode hex="002C"/>
  <outline>
    <contour>
      <point x="68" y="98" type="line" name="hr00"/>
      <point x="155" y="98" type="line"/>
      <point x="145" y="20" type="line" smooth="yes"/>
      <point x="138" y="-33"/>
      <point x="112" y="-115"/>
      <point x="43" y="-98" type="curve"/>
    </contour>
  </outline>
</glyph>
<glyph name="hyphen" format="1">
  <advance width="375"/>
  <unicode hex="002D"/>
  <outline>
    <contour>
      <point x="78" y="273" type="line" name="hr00"/>
      <point x="86" y="337" type="line"/>
      <point x="388" y="337" type="line"/>
      <point x="380" y="273" type="line"/>
    </contour>
  </outline>
</glyph>
<glyph name="period" format="1">
  <advance width="306"/>
  <unicode hex="002E"/>
  <outline>
    <contour>
      <point x="98" y="44" type="curve" smooth="yes" name="hr00"/>
      <point x="102" y="79"/>
      <point x="130" y="105"/>
      <point x="164" y="105" type="curve" smooth="yes"/>
      <point x="199" y="105"/>
      <point x="222" y="79"/>
      <point x="218" y="44" type="curve" smooth="yes"/>
      <point x="214" y="10"/>
      <point x="185" y="-15"/>
      <point x="150" y="-15" type="curve" smooth="yes"/>
      <point x="116" y="-15"/>
      <point x="94" y="10"/>
    </contour>
  </outline>
</glyph>
<glyph name="zero" format="1">
  <advance width="661"/>
  <unicode hex="0030"/>
  <outline>
    <contour>
      <point x="327" y="-16" type="curve" name="hr00"/>
      <point x="205" y="-16"/>
      <point x="80" y="180"/>
      <point x="100" y="349" type="qcurve"/>
      <point x="128" y="571"/>
      <point x="250" y="716"/>
      <point x="415" y="716" type="curve"/>
      <point x="580" y="716"/>
      <point x="669" y="572"/>
      <point x="641" y="349" type="curve"/>
      <point x="612" y="107"/>
      <point x="474" y="-16"/>
    </contour>
    <contour>
      <point x="543" y="349" type="curve"/>
      <point x="566" y="533"/>
      <point x="515" y="644"/>
      <point x="408" y="644" type="curve"/>
      <point x="300" y="644"/>
      <point x="221" y="533"/>
      <point x="198" y="349" type="curve"/>
      <point x="176" y="165"/>
      <point x="227" y="56"/>
      <point x="335" y="56" type="curve" smooth="yes"/>
      <point x="442" y="56"/>
      <point x="521" y="165"/>
    </contour>
  </outline>
</glyph>
<glyph name="one" format="1">
  <advance width="319"/>
  <unicode hex="0031"/>
  <outline>
    <contour>
      <point x="144" y="0" type="line" name="hr00"/>
      <point x="216" y="587" type="line"/>
      <point x="94" y="526" type="line"/>
      <point x="67" y="589" type="line"/>
      <point x="289" y="701" type="line"/>
      <point x="326" y="701" type="line"/>
      <point x="240" y="0" type="line"/>
    </contour>
  </outline>
</glyph>
<glyph name="two" format="1">
  <advance width="514"/>
  <unicode hex="0032"/>
  <outline>
    <contour>
      <point x="535" y="530" type="curve" smooth="yes" name="hr00"/>
      <point x="515" y="370"/>
      <point x="291" y="223"/>
      <point x="194" y="93" type="curve"/>
      <point x="177" y="76" type="line"/>
      <point x="199" y="80" type="line"/>
      <point x="491" y="80" type="line"/>
      <point x="482" y="0" type="line"/>
      <point x="57" y="0" type="line"/>
      <point x="61" y="38" type="line"/>
      <point x="220" y="254"/>
      <point x="420" y="387"/>
      <point x="436" y="519" type="curve"/>
      <point x="445" y="594"/>
      <point x="391" y="638"/>
      <point x="321" y="638" type="curve"/>
      <point x="284" y="638"/>
      <point x="241" y="631"/>
      <point x="183" y="602" type="curve"/>
      <point x="167" y="669" type="line"/>
      <point x="232" y="702"/>
      <point x="287" y="710"/>
      <point x="341" y="710" type="curve" smooth="yes"/>
      <point x="461" y="710"/>
      <point x="549" y="645"/>
    </contour>
  </outline>
</glyph>
<glyph name="three" format="1">
  <advance width="528"/>
  <unicode hex="0033"/>
  <outline>
    <contour>
      <point x="493" y="554" type="curve" smooth="yes" name="hr00"/>
      <point x="485" y="490"/>
      <point x="439" y="431"/>
      <point x="372" y="397" type="curve"/>
      <point x="346" y="389" type="line"/>
      <point x="368" y="384" type="line"/>
      <point x="429" y="361"/>
      <point x="484" y="298"/>
      <point x="473" y="207" type="curve" smooth="yes"/>
      <point x="459" y="92"/>
      <point x="343" y="-11"/>
      <point x="199" y="-11" type="curve" smooth="yes"/>
      <point x="123" y="-11"/>
      <point x="64" y="15"/>
      <point x="34" y="36" type="curve"/>
      <point x="65" y="101" type="line"/>
      <point x="90" y="84"/>
      <point x="144" y="62"/>
      <point x="207" y="62" type="curve" smooth="yes"/>
      <point x="308" y="62"/>
      <point x="367" y="146"/>
      <point x="375" y="209" type="curve" smooth="yes"/>
      <point x="387" y="309"/>
      <point x="310" y="338"/>
      <point x="197" y="338" type="curve"/>
      <point x="195" y="392" type="line"/>
      <point x="249" y="413" type="line" smooth="yes"/>
      <point x="312" y="439"/>
      <point x="384" y="466"/>
      <point x="393" y="538" type="curve"/>
      <point x="400" y="599"/>
      <point x="360" y="639"/>
      <point x="299" y="639" type="curve" smooth="yes"/>
      <point x="261" y="639"/>
      <point x="213" y="632"/>
      <point x="156" y="603" type="curve"/>
      <point x="139" y="670" type="line"/>
      <point x="204" y="703"/>
      <point x="264" y="712"/>
      <point x="318" y="712" type="curve" smooth="yes"/>
      <point x="433" y="712"/>
      <point x="504" y="645"/>
    </contour>
  </outline>
</glyph>
<glyph name="four" format="1">
  <advance width="595"/>
  <unicode hex="0034"/>
  <outline>
    <contour>
      <point x="458" y="701" type="line" name="hr00"/>
      <point x="545" y="701" type="line"/>
      <point x="486" y="227" type="line"/>
      <point x="566" y="227" type="line"/>
      <point x="558" y="156" type="line"/>
      <point x="478" y="156" type="line"/>
      <point x="459" y="0" type="line"/>
      <point x="372" y="0" type="line"/>
      <point x="439" y="546" type="line"/>
      <point x="444" y="573" type="line"/>
      <point x="426" y="548" type="line"/>
      <point x="173" y="237" type="line"/>
      <point x="160" y="226" type="line"/>
      <point x="176" y="228" type="line"/>
      <point x="268" y="228" type="line"/>
      <point x="321" y="228"/>
      <point x="347" y="178"/>
      <point x="356" y="156" type="curve"/>
      <point x="65" y="156" type="line"/>
      <point x="72" y="217" type="line"/>
    </contour>
  </outline>
</glyph>
<glyph name="five" format="1">
  <advance width="535"/>
  <unicode hex="0035"/>
  <outline>
    <contour>
      <point x="204" y="413" type="line" name="hr00"/>
      <point x="229" y="416"/>
      <point x="251" y="419"/>
      <point x="276" y="419" type="curve"/>
      <point x="441" y="419"/>
      <point x="503" y="314"/>
      <point x="490" y="207" type="curve" smooth="yes"/>
      <point x="476" y="92"/>
      <point x="375" y="-11"/>
      <point x="215" y="-11" type="curve" smooth="yes"/>
      <point x="164" y="-11"/>
      <point x="88" y="8"/>
      <point x="49" y="38" type="curve"/>
      <point x="80" y="103" type="line"/>
      <point x="129" y="72"/>
      <point x="185" y="62"/>
      <point x="223" y="62" type="curve" smooth="yes"/>
      <point x="339" y="62"/>
      <point x="384" y="146"/>
      <point x="392" y="209" type="curve" smooth="yes"/>
      <point x="404" y="305"/>
      <point x="341" y="348"/>
      <point x="246" y="348" type="curve"/>
      <point x="212" y="348"/>
      <point x="156" y="340"/>
      <point x="116" y="328" type="curve"/>
      <point x="188" y="701" type="line"/>
      <point x="521" y="701" type="line"/>
      <point x="511" y="622" type="line"/>
      <point x="246" y="622" type="line"/>
    </contour>
  </outline>
</glyph>
<glyph name="six" format="1">
  <advance width="654"/>
  <unicode hex="0036"/>
  <outline>
    <contour>
      <point x="490" y="634" type="curve" name="hr00"/>
      <point x="349" y="634"/>
      <point x="237" y="507"/>
      <point x="215" y="328" type="curve" smooth="yes"/>
      <point x="201" y="219"/>
      <point x="211" y="58"/>
      <point x="344" y="58" type="curve" smooth="yes"/>
      <point x="422" y="58"/>
      <point x="483" y="124"/>
      <point x="494" y="216" type="curve" smooth="yes"/>
      <point x="505" y="307"/>
      <point x="462" y="355"/>
      <point x="402" y="355" type="curve" smooth="yes"/>
      <point x="392" y="355"/>
      <point x="383" y="354"/>
      <point x="366" y="350" type="curve"/>
      <point x="315" y="338"/>
      <point x="275" y="363"/>
      <point x="259" y="380" type="curve"/>
      <point x="332" y="416"/>
      <point x="365" y="427"/>
      <point x="411" y="427" type="curve" smooth="yes"/>
      <point x="531" y="427"/>
      <point x="609" y="353"/>
      <point x="592" y="216" type="curve" smooth="yes"/>
      <point x="578" y="101"/>
      <point x="474" y="-14"/>
      <point x="337" y="-14" type="curve" smooth="yes"/>
      <point x="136" y="-14"/>
      <point x="96" y="162"/>
      <point x="117" y="326" type="curve" smooth="yes"/>
      <point x="139" y="509"/>
      <point x="282" y="706"/>
      <point x="499" y="706" type="curve"/>
      <point x="532" y="706"/>
      <point x="567" y="699"/>
      <point x="601" y="683" type="curve"/>
      <point x="571" y="617" type="line"/>
      <point x="544" y="630"/>
      <point x="515" y="634"/>
    </contour>
  </outline>
</glyph>
<glyph name="seven" format="1">
  <advance width="501"/>
  <unicode hex="0037"/>
  <outline>
    <contour>
      <point x="130" y="0" type="line" name="hr00"/>
      <point x="189" y="233"/>
      <point x="288" y="432"/>
      <point x="440" y="618" type="curve"/>
      <point x="113" y="618" type="line"/>
      <point x="124" y="701" type="line"/>
      <point x="551" y="701" type="line"/>
      <point x="541" y="625" type="line"/>
      <point x="415" y="485"/>
      <point x="295" y="321"/>
      <point x="227" y="0" type="curve"/>
    </contour>
  </outline>
</glyph>
<glyph name="eight" format="1">
  <advance width="614"/>
  <unicode hex="0038"/>
  <outline>
    <contour>
      <point x="260" y="531" type="curve" smooth="yes" name="hr00"/>
      <point x="250" y="453"/>
      <point x="331" y="427"/>
      <point x="413" y="390" type="curve"/>
      <point x="460" y="431"/>
      <point x="493" y="469"/>
      <point x="499" y="519" type="curve"/>
      <point x="509" y="600"/>
      <point x="452" y="639"/>
      <point x="393" y="639" type="curve" smooth="yes"/>
      <point x="333" y="639"/>
      <point x="268" y="599"/>
    </contour>
    <contour>
      <point x="319" y="58" type="curve" smooth="yes"/>
      <point x="405" y="58"/>
      <point x="470" y="108"/>
      <point x="478" y="178" type="curve" smooth="yes"/>
      <point x="500" y="352"/>
      <point x="141" y="295"/>
      <point x="170" y="531" type="curve" smooth="yes"/>
      <point x="184" y="645"/>
      <point x="295" y="712"/>
      <point x="402" y="712" type="curve" smooth="yes"/>
      <point x="515" y="712"/>
      <point x="603" y="645"/>
      <point x="589" y="531" type="curve" smooth="yes"/>
      <point x="581" y="466"/>
      <point x="534" y="412"/>
      <point x="478" y="357" type="curve"/>
      <point x="536" y="322"/>
      <point x="580" y="272"/>
      <point x="568" y="178" type="curve" smooth="yes"/>
      <point x="553" y="55"/>
      <point x="436" y="-14"/>
      <point x="310" y="-14" type="curve" smooth="yes"/>
      <point x="182" y="-14"/>
      <point x="87" y="55"/>
      <point x="102" y="178" type="curve" smooth="yes"/>
      <point x="108" y="223"/>
      <point x="128" y="272"/>
      <point x="207" y="347" type="curve"/>
      <point x="225" y="315"/>
      <point x="233" y="274"/>
      <point x="210" y="239" type="curve" smooth="yes"/>
      <point x="199" y="221"/>
      <point x="192" y="205"/>
      <point x="190" y="190" type="curve" smooth="yes"/>
      <point x="180" y="107"/>
      <point x="237" y="58"/>
    </contour>
  </outline>
</glyph>
<glyph name="nine" format="1">
  <advance width="654"/>
  <unicode hex="0039"/>
  <outline>
    <contour>
      <point x="236" y="63" type="curve" smooth="yes" name="hr00"/>
      <point x="379" y="63"/>
      <point x="491" y="190"/>
      <point x="513" y="370" type="curve" smooth="yes"/>
      <point x="526" y="478"/>
      <point x="517" y="638"/>
      <point x="385" y="638" type="curve" smooth="yes"/>
      <point x="305" y="638"/>
      <point x="245" y="572"/>
      <point x="234" y="481" type="curve" smooth="yes"/>
      <point x="223" y="391"/>
      <point x="264" y="342"/>
      <point x="325" y="342" type="curve" smooth="yes"/>
      <point x="334" y="342"/>
      <point x="345" y="343"/>
      <point x="361" y="346" type="curve"/>
      <point x="414" y="360"/>
      <point x="452" y="334"/>
      <point x="467" y="316" type="curve"/>
      <point x="395" y="280"/>
      <point x="362" y="271"/>
      <point x="317" y="271" type="curve" smooth="yes"/>
      <point x="197" y="271"/>
      <point x="118" y="344"/>
      <point x="135" y="481" type="curve" smooth="yes"/>
      <point x="149" y="597"/>
      <point x="254" y="710"/>
      <point x="391" y="710" type="curve" smooth="yes"/>
      <point x="591" y="710"/>
      <point x="631" y="534"/>
      <point x="611" y="372" type="curve" smooth="yes"/>
      <point x="589" y="188"/>
      <point x="444" y="-10"/>
      <point x="227" y="-10" type="curve"/>
      <point x="194" y="-10"/>
      <point x="159" y="-2"/>
      <point x="125" y="15" type="curve"/>
      <point x="156" y="81" type="line"/>
      <point x="184" y="68"/>
      <point x="212" y="63"/>
    </contour>
  </outline>
</glyph>
<glyph name="colon" format="1">
  <advance width="299"/>
  <unicode hex="003A"/>
  <outline>
    <contour>
      <point x="98" y="44" type="curve" smooth="yes" name="hr00"/>
      <point x="102" y="79"/>
      <point x="130" y="105"/>
      <point x="164" y="105" type="curve" smooth="yes"/>
      <point x="199" y="105"/>
      <point x="222" y="79"/>
      <point x="218" y="44" type="curve" smooth="yes"/>
      <point x="214" y="10"/>
      <point x="185" y="-15"/>
      <point x="150" y="-15" type="curve" smooth="yes"/>
      <point x="116" y="-15"/>
      <point x="94" y="10"/>
    </contour>
    <contour>
      <point x="145" y="425" type="curve" smooth="yes"/>
      <point x="149" y="460"/>
      <point x="177" y="486"/>
      <point x="211" y="486" type="curve" smooth="yes"/>
      <point x="246" y="486"/>
      <point x="269" y="460"/>
      <point x="265" y="425" type="curve" smooth="yes"/>
      <point x="261" y="391"/>
      <point x="231" y="366"/>
      <point x="196" y="366" type="curve" smooth="yes"/>
      <point x="162" y="366"/>
      <point x="141" y="391"/>
    </contour>
  </outline>
</glyph>
<glyph name="semicolon" format="1">
  <advance width="299"/>
  <unicode hex="003B"/>
  <outline>
    <contour>
      <point x="145" y="425" type="curve" smooth="yes" name="hr00"/>
      <point x="149" y="460"/>
      <point x="177" y="486"/>
      <point x="211" y="486" type="curve" smooth="yes"/>
      <point x="246" y="486"/>
      <point x="269" y="460"/>
      <point x="265" y="425" type="curve" smooth="yes"/>
      <point x="261" y="391"/>
      <point x="231" y="366"/>
      <point x="196" y="366" type="curve" smooth="yes"/>
      <point x="162" y="366"/>
      <point x="141" y="391"/>
    </contour>
    <contour>
      <point x="122" y="98" type="line"/>
      <point x="210" y="98" type="line"/>
      <point x="200" y="20" type="line" smooth="yes"/>
      <point x="193" y="-33"/>
      <point x="166" y="-115"/>
      <point x="97" y="-98" type="curve"/>
    </contour>
  </outline>
</glyph>
<glyph name="less" format="1">
  <advance width="613"/>
  <unicode hex="003C"/>
  <outline>
    <contour>
      <point x="563" y="81" type="line" name="hr00"/>
      <point x="554" y="0" type="line"/>
      <point x="67" y="251" type="line"/>
      <point x="73" y="301" type="line"/>
      <point x="621" y="552" type="line"/>
      <point x="611" y="472" type="line"/>
      <point x="181" y="283" type="line"/>
      <point x="154" y="276" type="line"/>
      <point x="180" y="270" type="line"/>
    </contour>
  </outline>
</glyph>
<glyph name="equal" format="1">
  <advance width="606"/>
  <unicode hex="003D"/>
  <outline>
    <contour>
      <point x="96" y="244" type="line" name="hr00"/>
      <point x="568" y="244" type="line"/>
      <point x="560" y="176" type="line"/>
      <point x="88" y="176" type="line"/>
    </contour>
    <contour>
      <point x="124" y="465" type="line"/>
      <point x="596" y="465" type="line"/>
      <point x="587" y="397" type="line"/>
      <point x="115" y="397" type="line"/>
    </contour>
  </outline>
</glyph>
<glyph name="greater" format="1">
  <advance width="613"/>
  <unicode hex="003E"/>
  <outline>
    <contour>
      <point x="477" y="270" type="line" name="hr00"/>
      <point x="503" y="276" type="line"/>
      <point x="478" y="283" type="line"/>
      <point x="94" y="472" type="line"/>
      <point x="104" y="552" type="line"/>
      <point x="590" y="301" type="line"/>
      <point x="584" y="251" type="line"/>
      <point x="37" y="0" type="line"/>
      <point x="46" y="81" type="line"/>
    </contour>
  </outline>
</glyph>
<glyph name="question" format="1">
  <advance width="583"/>
  <unicode hex="003F"/>
  <outline>
    <contour>
      <point x="367" y="737" type="curve" smooth="yes" name="hr00"/>
      <point x="482" y="737"/>
      <point x="553" y="671"/>
      <point x="543" y="587" type="curve" smooth="yes"/>
      <point x="522" y="420"/>
      <point x="322" y="368"/>
      <point x="299" y="185" type="curve"/>
      <point x="227" y="185" type="line"/>
      <point x="254" y="402"/>
      <point x="426" y="438"/>
      <point x="443" y="572" type="curve" smooth="yes"/>
      <point x="449" y="625"/>
      <point x="410" y="665"/>
      <point x="348" y="665" type="curve"/>
      <point x="310" y="665"/>
      <point x="266" y="658"/>
      <point x="210" y="629" type="curve"/>
      <point x="193" y="696" type="line"/>
      <point x="258" y="729"/>
      <point x="312" y="737"/>
    </contour>
    <contour>
      <point x="185" y="44" type="curve" smooth="yes"/>
      <point x="189" y="79"/>
      <point x="218" y="105"/>
      <point x="252" y="105" type="curve" smooth="yes"/>
      <point x="287" y="105"/>
      <point x="310" y="79"/>
      <point x="306" y="44" type="curve" smooth="yes"/>
      <point x="302" y="10"/>
      <point x="273" y="-15"/>
      <point x="238" y="-15" type="curve" smooth="yes"/>
      <point x="204" y="-15"/>
      <point x="181" y="10"/>
    </contour>
  </outline>
</glyph>
<glyph name="at" format="1">
  <advance width="919"/>
  <unicode hex="0040"/>
  <outline>
    <contour>
      <point x="633" y="116" type="line" name="hr00"/>
      <point x="637" y="118"/>
      <point x="645" y="126"/>
      <point x="649" y="128" type="curve" smooth="yes"/>
      <point x="734" y="179"/>
      <point x="771" y="236"/>
      <point x="781" y="313" type="curve" smooth="yes"/>
      <point x="802" y="482"/>
      <point x="704" y="579"/>
      <point x="532" y="579" type="curve" smooth="yes"/>
      <point x="361" y="579"/>
      <point x="218" y="473"/>
      <point x="191" y="257" type="curve" smooth="yes"/>
      <point x="165" y="42"/>
      <point x="282" y="-63"/>
      <point x="439" y="-63" type="curve" smooth="yes"/>
      <point x="497" y="-63"/>
      <point x="544" y="-59"/>
      <point x="630" y="-32" type="curve"/>
      <point x="644" y="-87" type="line"/>
      <point x="545" y="-116"/>
      <point x="498" y="-122"/>
      <point x="432" y="-122" type="curve" smooth="yes"/>
      <point x="228" y="-122"/>
      <point x="83" y="-11"/>
      <point x="116" y="257" type="curve" smooth="yes"/>
      <point x="147" y="506"/>
      <point x="338" y="638"/>
      <point x="540" y="638" type="curve" smooth="yes"/>
      <point x="746" y="638"/>
      <point x="880" y="519"/>
      <point x="855" y="313" type="curve" smooth="yes"/>
      <point x="837" y="170"/>
      <point x="731" y="82"/>
      <point x="584" y="56" type="curve"/>
      <point x="570" y="64"/>
      <point x="566" y="76"/>
      <point x="562" y="93" type="curve"/>
      <point x="562" y="112" type="line"/>
      <point x="550" y="92" type="line"/>
      <point x="506" y="53"/>
      <point x="471" y="47"/>
      <point x="435" y="47" type="curve" smooth="yes"/>
      <point x="350" y="47"/>
      <point x="305" y="92"/>
      <point x="313" y="158" type="curve" smooth="yes"/>
      <point x="323" y="239"/>
      <point x="389" y="273"/>
      <point x="540" y="289" type="curve"/>
      <point x="536" y="271"/>
      <point x="517" y="230"/>
      <point x="476" y="225" type="curve" smooth="yes"/>
      <point x="416" y="217"/>
      <point x="391" y="193"/>
      <point x="387" y="162" type="curve" smooth="yes"/>
      <point x="383" y="129"/>
      <point x="410" y="106"/>
      <point x="453" y="106" type="curve" smooth="yes"/>
      <point x="487" y="106"/>
      <point x="529" y="119"/>
      <point x="565" y="160" type="curve"/>
      <point x="583" y="306" type="line"/>
      <point x="591" y="367"/>
      <point x="569" y="408"/>
      <point x="498" y="408" type="curve" smooth="yes"/>
      <point x="470" y="408"/>
      <point x="435" y="402"/>
      <point x="398" y="388" type="curve"/>
      <point x="384" y="439" type="line"/>
      <point x="437" y="460"/>
      <point x="477" y="466"/>
      <point x="519" y="466" type="curve" smooth="yes"/>
      <point x="618" y="466"/>
      <point x="668" y="405"/>
      <point x="655" y="301" type="curve"/>
      <point x="641" y="187" type="line"/>
      <point x="639" y="171"/>
      <point x="638" y="155"/>
      <point x="637" y="140" type="curve"/>
    </contour>
  </outline>
</glyph>
<glyph name="A" format="1">
  <advance width="687"/>
  <unicode hex="0041"/>
  <outline>
    <contour>
      <point x="479" y="727" type="line" name="hr00"/>
      <point x="652" y="0" type="line"/>
      <point x="550" y="0" type="line"/>
      <point x="418" y="586" type="line"/>
      <point x="415" y="615" type="line"/>
      <point x="404" y="586" type="line"/>
      <point x="253" y="265" type="line"/>
      <point x="239" y="244" type="line"/>
      <point x="252" y="246" type="line"/>
      <point x="387" y="246" type="line" smooth="yes"/>
      <point x="435" y="246"/>
      <point x="454" y="212"/>
      <point x="463" y="174" type="curve"/>
      <point x="211" y="174" type="line"/>
      <point x="130" y="0" type="line"/>
      <point x="35" y="0" type="line"/>
      <point x="386" y="727" type="line"/>
    </contour>
  </outline>
</glyph>
<glyph name="B" format="1">
  <advance width="643"/>
  <unicode hex="0042"/>
  <outline>
    <contour>
      <point x="347" y="415" type="line"/>
      <point x="447" y="415"/>
      <point x="509" y="473"/>
      <point x="518" y="547" type="curve" smooth="yes"/>
      <point x="526" y="615"/>
      <point x="479" y="666"/>
      <point x="378" y="666" type="curve" smooth="yes"/>
      <point x="342" y="666"/>
      <point x="299" y="664"/>
      <point x="263" y="660" type="curve"/>
      <point x="232" y="415" type="line"/>
    </contour>
    <contour>
      <point x="324" y="64" type="curve"/>
      <point x="340" y="62"/>
      <point x="351" y="61"/>
      <point x="369" y="61" type="curve" smooth="yes"/>
      <point x="439" y="61"/>
      <point x="507" y="123"/>
      <point x="516" y="201" type="curve" smooth="yes"/>
      <point x="528" y="301"/>
      <point x="447" y="346"/>
      <point x="339" y="346" type="curve" smooth="yes"/>
      <point x="224" y="346" type="line"/>
      <point x="182" y="0" type="line" name="hr01"/>
      <point x="87" y="0" type="line"/>
      <point x="175" y="718" type="line"/>
      <point x="252" y="733"/>
      <point x="315" y="740"/>
      <point x="387" y="740" type="curve" smooth="yes"/>
      <point x="557" y="740"/>
      <point x="630" y="655"/>
      <point x="617" y="547" type="curve"/>
      <point x="611" y="499"/>
      <point x="577" y="433"/>
      <point x="524" y="402" type="curve"/>
      <point x="493" y="388" type="line"/>
      <point x="520" y="381" type="line"/>
      <point x="591" y="345"/>
      <point x="627" y="285"/>
      <point x="618" y="205" type="curve" smooth="yes"/>
      <point x="605" y="102"/>
      <point x="505" y="-12"/>
      <point x="360" y="-12" type="curve" smooth="yes" name="hr02"/>
      <point x="322" y="-12"/>
      <point x="280" y="-8"/>
      <point x="222" y="6" type="curve"/>
      <point x="247" y="41"/>
      <point x="280" y="72"/>
    </contour>
  </outline>
</glyph>
<glyph name="C" format="1">
  <advance width="652"/>
  <unicode hex="0043"/>
  <outline>
    <contour>
      <point x="432" y="-12" type="curve" smooth="yes" name="hr00"/>
      <point x="227" y="-12"/>
      <point x="88" y="131"/>
      <point x="116" y="362" type="curve" smooth="yes"/>
      <point x="143" y="586"/>
      <point x="319" y="740"/>
      <point x="524" y="740" type="curve" smooth="yes"/>
      <point x="580" y="740"/>
      <point x="639" y="729"/>
      <point x="697" y="706" type="curve"/>
      <point x="663" y="641" type="line"/>
      <point x="608" y="660"/>
      <point x="561" y="667"/>
      <point x="515" y="667" type="curve" smooth="yes"/>
      <point x="377" y="667"/>
      <point x="243" y="566"/>
      <point x="218" y="362" type="curve" smooth="yes"/>
      <point x="196" y="181"/>
      <point x="303" y="60"/>
      <point x="441" y="60" type="curve"/>
      <point x="487" y="60"/>
      <point x="538" y="71"/>
      <point x="597" y="99" type="curve"/>
      <point x="615" y="34" type="line"/>
      <point x="549" y="1"/>
      <point x="488" y="-12"/>
    </contour>
  </outline>
</glyph>
<glyph name="D" format="1">
  <advance width="713"/>
  <unicode hex="0044"/>
  <outline>
    <contour>
      <point x="362" y="-12" type="curve"/>
      <point x="317" y="-12"/>
      <point x="280" y="-9"/>
      <point x="224" y="5" type="curve"/>
      <point x="247" y="40"/>
      <point x="281" y="66"/>
      <point x="325" y="62" type="curve" smooth="yes"/>
      <point x="346" y="60"/>
      <point x="354" y="60"/>
      <point x="370" y="60" type="curve"/>
      <point x="498" y="60"/>
      <point x="615" y="198"/>
      <point x="635" y="365" type="curve" smooth="yes"/>
      <point x="659" y="558"/>
      <point x="574" y="667"/>
      <point x="377" y="667" type="curve" smooth="yes"/>
      <point x="337" y="667"/>
      <point x="297" y="664"/>
      <point x="265" y="660" type="curve"/>
      <point x="184" y="0" type="line" name="hr01"/>
      <point x="89" y="0" type="line"/>
      <point x="176" y="716" type="line"/>
      <point x="241" y="731"/>
      <point x="328" y="740"/>
      <point x="386" y="740" type="curve" smooth="yes"/>
      <point x="640" y="740"/>
      <point x="766" y="599"/>
      <point x="737" y="365" type="curve" smooth="yes"/>
      <point x="711" y="147"/>
      <point x="540" y="-12"/>
    </contour>
  </outline>
</glyph>
<glyph name="E" format="1">
  <advance width="577"/>
  <unicode hex="0045"/>
  <outline>
    <contour>
      <point x="178" y="727" type="line" name="hr00"/>
      <point x="592" y="727" type="line"/>
      <point x="583" y="655" type="line"/>
      <point x="264" y="655" type="line"/>
      <point x="192" y="72" type="line"/>
      <point x="526" y="72" type="line"/>
      <point x="518" y="0" type="line"/>
      <point x="89" y="0" type="line"/>
    </contour>
    <contour>
      <point x="520" y="416" type="line"/>
      <point x="511" y="346" type="line"/>
      <point x="264" y="346" type="line"/>
      <point x="283" y="384"/>
      <point x="311" y="416"/>
      <point x="359" y="416" type="curve"/>
    </contour>
  </outline>
</glyph>
<glyph name="F" format="1">
  <advance width="573"/>
  <unicode hex="0046"/>
  <outline>
    <contour>
      <point x="178" y="727" type="line" name="hr00"/>
      <point x="592" y="727" type="line"/>
      <point x="583" y="655" type="line"/>
      <point x="264" y="655" type="line"/>
      <point x="184" y="0" type="line"/>
      <point x="89" y="0" type="line"/>
    </contour>
    <contour>
      <point x="520" y="416" type="line"/>
      <point x="511" y="346" type="line"/>
      <point x="264" y="346" type="line"/>
      <point x="283" y="384"/>
      <point x="311" y="416"/>
      <point x="359" y="416" type="curve"/>
    </contour>
  </outline>
</glyph>
<glyph name="G" format="1">
  <advance width="645"/>
  <unicode hex="0047"/>
  <outline>
    <contour>
      <point x="491" y="667" type="curve" smooth="yes" name="hr00"/>
      <point x="353" y="667"/>
      <point x="206" y="568"/>
      <point x="181" y="363" type="curve" smooth="yes"/>
      <point x="156" y="159"/>
      <point x="279" y="60"/>
      <point x="417" y="60" type="curve" smooth="yes"/>
      <point x="446" y="60"/>
      <point x="485" y="63"/>
      <point x="531" y="77" type="curve"/>
      <point x="563" y="337" type="line"/>
      <point x="655" y="337" type="line"/>
      <point x="618" y="37" type="line"/>
      <point x="541" y="-1"/>
      <point x="465" y="-12"/>
      <point x="408" y="-12" type="curve" smooth="yes"/>
      <point x="203" y="-12"/>
      <point x="50" y="128"/>
      <point x="79" y="363" type="curve" smooth="yes"/>
      <point x="107" y="588"/>
      <point x="295" y="740"/>
      <point x="500" y="740" type="curve" smooth="yes"/>
      <point x="557" y="740"/>
      <point x="627" y="729"/>
      <point x="693" y="696" type="curve"/>
      <point x="659" y="631" type="line"/>
      <point x="592" y="662"/>
      <point x="537" y="667"/>
    </contour>
  </outline>
</glyph>
<glyph name="H" format="1">
  <advance width="730"/>
  <unicode hex="0048"/>
  <outline>
    <contour>
      <point x="599" y="416" type="line" name="hr00"/>
      <point x="637" y="727" type="line"/>
      <point x="732" y="727" type="line"/>
      <point x="643" y="0" type="line"/>
      <point x="548" y="0" type="line"/>
      <point x="590" y="346" type="line"/>
      <point x="264" y="346" type="line"/>
      <point x="283" y="384"/>
      <point x="311" y="416"/>
      <point x="358" y="416" type="curve"/>
    </contour>
    <contour>
      <point x="178" y="727" type="line"/>
      <point x="273" y="727" type="line"/>
      <point x="184" y="0" type="line"/>
      <point x="89" y="0" type="line"/>
    </contour>
  </outline>
</glyph>
<glyph name="J" format="1">
  <advance width="344"/>
  <unicode hex="004A"/>
  <outline>
    <contour>
      <point x="276" y="128" type="line" name="hr00"/>
      <point x="255" y="-47"/>
      <point x="160" y="-114"/>
      <point x="9" y="-208" type="curve"/>
      <point x="-24" y="-157" type="line"/>
      <point x="85" y="-74"/>
      <point x="161" y="-29"/>
      <point x="180" y="128" type="curve"/>
      <point x="254" y="727" type="line"/>
      <point x="350" y="727" type="line"/>
    </contour>
  </outline>
</glyph>
<glyph name="K" format="1">
  <advance width="661"/>
  <unicode hex="004B"/>
  <outline>
    <contour>
      <point x="435" y="433" type="line" name="hr00"/>
      <point x="641" y="0" type="line"/>
      <point x="526" y="0" type="line"/>
      <point x="374" y="347" type="line"/>
      <point x="369" y="365" type="line"/>
      <point x="358" y="347" type="line"/>
      <point x="266" y="243" type="line"/>
      <point x="253" y="283"/>
      <point x="270" y="357"/>
      <point x="317" y="412" type="curve" smooth="yes"/>
      <point x="589" y="727" type="line"/>
      <point x="697" y="727" type="line"/>
    </contour>
    <contour>
      <point x="89" y="0" type="line"/>
      <point x="178" y="727" type="line"/>
      <point x="273" y="727" type="line"/>
      <point x="184" y="0" type="line"/>
    </contour>
  </outline>
</glyph>
<glyph name="L" format="1">
  <advance width="520"/>
  <unicode hex="004C"/>
  <outline>
    <contour>
      <point x="178" y="727" type="line" name="hr00"/>
      <point x="274" y="727" type="line"/>
      <point x="193" y="73" type="line"/>
      <point x="497" y="73" type="line"/>
      <point x="488" y="0" type="line"/>
      <point x="89" y="0" type="line"/>
    </contour>
  </outline>
</glyph>
<glyph name="M" format="1">
  <advance width="949"/>
  <unicode hex="004D"/>
  <outline>
    <contour>
      <point x="239" y="727" type="line" name="hr00"/>
      <point x="362" y="727" type="line"/>
      <point x="485" y="143" type="line"/>
      <point x="488" y="112" type="line"/>
      <point x="499" y="143" type="line"/>
      <point x="766" y="727" type="line"/>
      <point x="889" y="727" type="line"/>
      <point x="880" y="0" type="line"/>
      <point x="789" y="0" type="line"/>
      <point x="803" y="582" type="line"/>
      <point x="805" y="625" type="line"/>
      <point x="788" y="582" type="line"/>
      <point x="520" y="10" type="line"/>
      <point x="431" y="10" type="line"/>
      <point x="302" y="583" type="line"/>
      <point x="294" y="625" type="line"/>
      <point x="286" y="583" type="line"/>
      <point x="159" y="0" type="line"/>
      <point x="69" y="0" type="line"/>
    </contour>
  </outline>
</glyph>
<glyph name="N" format="1">
  <advance width="749"/>
  <unicode hex="004E"/>
  <outline>
    <contour>
      <point x="268" y="581" type="line" name="hr00"/>
      <point x="258" y="615" type="line"/>
      <point x="256" y="581" type="line"/>
      <point x="185" y="0" type="line"/>
      <point x="104" y="0" type="line"/>
      <point x="193" y="727" type="line"/>
      <point x="288" y="727" type="line"/>
      <point x="572" y="163" type="line"/>
      <point x="579" y="130" type="line"/>
      <point x="582" y="165" type="line"/>
      <point x="651" y="727" type="line"/>
      <point x="735" y="727" type="line"/>
      <point x="646" y="0" type="line"/>
      <point x="561" y="0" type="line"/>
    </contour>
  </outline>
</glyph>
<glyph name="O" format="1">
  <advance width="791"/>
  <unicode hex="004F"/>
  <outline>
    <contour>
      <point x="89" y="364" type="curve" name="hr00"/>
      <point x="121" y="619"/>
      <point x="317" y="742"/>
      <point x="473" y="742" type="curve"/>
      <point x="690" y="742"/>
      <point x="788" y="570"/>
      <point x="763" y="364" type="curve"/>
      <point x="735" y="133"/>
      <point x="561" y="-14"/>
      <point x="380" y="-14" type="curve" smooth="yes"/>
      <point x="193" y="-14"/>
      <point x="60" y="128"/>
    </contour>
    <contour>
      <point x="191" y="364" type="curve"/>
      <point x="169" y="183"/>
      <point x="254" y="58"/>
      <point x="389" y="58" type="curve"/>
      <point x="530" y="58"/>
      <point x="640" y="193"/>
      <point x="661" y="364" type="curve"/>
      <point x="684" y="552"/>
      <point x="593" y="669"/>
      <point x="464" y="669" type="curve" smooth="yes"/>
      <point x="335" y="669"/>
      <point x="214" y="552"/>
    </contour>
  </outline>
</glyph>
<glyph name="P" format="1">
  <advance width="609"/>
  <unicode hex="0050"/>
  <outline>
    <contour>
      <point x="621" y="520" type="curve" smooth="yes" name="hr00"/>
      <point x="606" y="392"/>
      <point x="482" y="315"/>
      <point x="361" y="305" type="curve" smooth="yes"/>
      <point x="332" y="302"/>
      <point x="298" y="303"/>
      <point x="262" y="313" type="curve"/>
      <point x="281" y="347"/>
      <point x="315" y="374"/>
      <point x="357" y="374" type="curve" smooth="yes"/>
      <point x="426" y="374"/>
      <point x="510" y="435"/>
      <point x="520" y="520" type="curve"/>
      <point x="531" y="604"/>
      <point x="465" y="667"/>
      <point x="375" y="667" type="curve" smooth="yes"/>
      <point x="338" y="667"/>
      <point x="301" y="665"/>
      <point x="265" y="661" type="curve"/>
      <point x="184" y="0" type="line"/>
      <point x="89" y="2" type="line"/>
      <point x="177" y="720" type="line"/>
      <point x="254" y="735"/>
      <point x="311" y="740"/>
      <point x="384" y="740" type="curve"/>
      <point x="545" y="740"/>
      <point x="636" y="641"/>
    </contour>
  </outline>
</glyph>
<glyph name="Q" format="1">
  <advance width="788"/>
  <unicode hex="0051"/>
  <outline>
    <contour>
      <point x="717" y="39" type="line" name="hr00"/>
      <point x="657" y="-13" type="line"/>
      <point x="441" y="238" type="line"/>
      <point x="501" y="291" type="line"/>
      <point x="588" y="187" type="line"/>
      <point x="599" y="168" type="line"/>
      <point x="609" y="192" type="line"/>
      <point x="645" y="246"/>
      <point x="661" y="306"/>
      <point x="668" y="364" type="curve"/>
      <point x="691" y="552"/>
      <point x="601" y="669"/>
      <point x="472" y="669" type="curve" smooth="yes"/>
      <point x="344" y="669"/>
      <point x="221" y="552"/>
      <point x="198" y="364" type="curve" smooth="yes"/>
      <point x="175" y="178"/>
      <point x="263" y="59"/>
      <point x="394" y="59" type="curve"/>
      <point x="418" y="59"/>
      <point x="433" y="62"/>
      <point x="454" y="67" type="curve" smooth="yes"/>
      <point x="490" y="76"/>
      <point x="534" y="67"/>
      <point x="553" y="43" type="curve"/>
      <point x="493" y="3"/>
      <point x="439" y="-14"/>
      <point x="385" y="-14" type="curve"/>
      <point x="195" y="-14"/>
      <point x="69" y="134"/>
      <point x="97" y="364" type="curve" smooth="yes"/>
      <point x="126" y="595"/>
      <point x="301" y="742"/>
      <point x="481" y="742" type="curve" smooth="yes"/>
      <point x="670" y="742"/>
      <point x="799" y="599"/>
      <point x="770" y="364" type="curve"/>
      <point x="759" y="273"/>
      <point x="724" y="204"/>
      <point x="651" y="116" type="curve"/>
    </contour>
  </outline>
</glyph>
<glyph name="R" format="1">
  <advance width="648"/>
  <unicode hex="0052"/>
  <outline>
    <contour>
      <point x="622" y="525" type="line" name="hr00"/>
      <point x="612" y="445"/>
      <point x="555" y="383"/>
      <point x="481" y="348" type="curve"/>
      <point x="456" y="340" type="line"/>
      <point x="475" y="332" type="line"/>
      <point x="565" y="266"/>
      <point x="541" y="135"/>
      <point x="586" y="0" type="curve"/>
      <point x="486" y="0" type="line"/>
      <point x="447" y="115"/>
      <point x="471" y="276"/>
      <point x="371" y="316" type="curve"/>
      <point x="368" y="315"/>
      <point x="365" y="315"/>
      <point x="362" y="315" type="curve" smooth="yes"/>
      <point x="333" y="312"/>
      <point x="299" y="314"/>
      <point x="263" y="323" type="curve"/>
      <point x="282" y="357"/>
      <point x="317" y="383"/>
      <point x="359" y="384" type="curve" smooth="yes"/>
      <point x="428" y="386"/>
      <point x="511" y="445"/>
      <point x="521" y="527" type="curve" smooth="yes"/>
      <point x="531" y="606"/>
      <point x="466" y="668"/>
      <point x="376" y="668" type="curve" smooth="yes"/>
      <point x="339" y="668"/>
      <point x="314" y="668"/>
      <point x="264" y="659" type="curve"/>
      <point x="184" y="0" type="line"/>
      <point x="89" y="0" type="line"/>
      <point x="177" y="718" type="line"/>
      <point x="254" y="733"/>
      <point x="311" y="741"/>
      <point x="384" y="741" type="curve" smooth="yes"/>
      <point x="545" y="741"/>
      <point x="636" y="643"/>
      <point x="622" y="527" type="curve"/>
    </contour>
  </outline>
</glyph>
<glyph name="S" format="1">
  <advance width="554"/>
  <unicode hex="0053"/>
  <outline>
    <contour>
      <point x="362" y="667" type="curve" name="hr00"/>
      <point x="287" y="667"/>
      <point x="240" y="617"/>
      <point x="233" y="559" type="curve" smooth="yes"/>
      <point x="214" y="402"/>
      <point x="554" y="408"/>
      <point x="526" y="181" type="curve" smooth="yes"/>
      <point x="514" y="82"/>
      <point x="417" y="-12"/>
      <point x="265" y="-12" type="curve"/>
      <point x="208" y="-12"/>
      <point x="127" y="0"/>
      <point x="63" y="33" type="curve"/>
      <point x="97" y="98" type="line"/>
      <point x="153" y="71"/>
      <point x="217" y="60"/>
      <point x="263" y="60" type="curve"/>
      <point x="357" y="60"/>
      <point x="418" y="114"/>
      <point x="427" y="183" type="curve" smooth="yes"/>
      <point x="448" y="354"/>
      <point x="109" y="333"/>
      <point x="137" y="559" type="curve" smooth="yes"/>
      <point x="149" y="659"/>
      <point x="241" y="740"/>
      <point x="361" y="740" type="curve"/>
      <point x="418" y="740"/>
      <point x="473" y="731"/>
      <point x="539" y="710" type="curve"/>
      <point x="504" y="645" type="line"/>
      <point x="449" y="662"/>
      <point x="399" y="667"/>
    </contour>
  </outline>
</glyph>
<glyph name="T" format="1">
  <advance width="544"/>
  <unicode hex="0054"/>
  <outline>
    <contour>
      <point x="90" y="655" type="line" name="hr00"/>
      <point x="99" y="727" type="line"/>
      <point x="620" y="727" type="line"/>
      <point x="611" y="655" type="line"/>
      <point x="398" y="655" type="line"/>
      <point x="318" y="0" type="line"/>
      <point x="222" y="0" type="line"/>
      <point x="302" y="655" type="line"/>
    </contour>
  </outline>
</glyph>
<glyph name="V" format="1">
  <advance width="630"/>
  <unicode hex="0056"/>
  <outline>
    <contour>
      <point x="268" y="0" type="line" name="hr00"/>
      <point x="102" y="727" type="line"/>
      <point x="205" y="727" type="line"/>
      <point x="327" y="130" type="line"/>
      <point x="330" y="97" type="line"/>
      <point x="342" y="129" type="line"/>
      <point x="611" y="727" type="line"/>
      <point x="710" y="727" type="line"/>
      <point x="368" y="0" type="line"/>
    </contour>
  </outline>
</glyph>
<glyph name="Y" format="1">
  <advance width="660"/>
  <unicode hex="0059"/>
  <outline>
    <contour>
      <point x="411" y="337" type="line" name="hr00"/>
      <point x="370" y="0" type="line"/>
      <point x="277" y="0" type="line"/>
      <point x="314" y="309" type="line"/>
      <point x="117" y="727" type="line"/>
      <point x="225" y="727" type="line"/>
    </contour>
    <contour>
      <point x="596" y="727" type="line"/>
      <point x="701" y="727" type="line"/>
      <point x="444" y="376" type="line"/>
      <point x="423" y="407"/>
      <point x="409" y="455"/>
      <point x="442" y="502" type="curve"/>
    </contour>
  </outline>
</glyph>
<glyph name="Z" format="1">
  <advance width="598"/>
  <unicode hex="005A"/>
  <outline>
    <contour>
      <point x="218" y="727" type="line" name="hr00"/>
      <point x="687" y="727" type="line"/>
      <point x="682" y="689" type="line"/>
      <point x="221" y="84" type="line"/>
      <point x="204" y="69" type="line"/>
      <point x="226" y="72" type="line"/>
      <point x="616" y="72" type="line"/>
      <point x="608" y="0" type="line"/>
      <point x="85" y="0" type="line"/>
      <point x="89" y="38" type="line"/>
      <point x="549" y="641" type="line"/>
      <point x="567" y="658" type="line"/>
      <point x="543" y="655" type="line"/>
      <point x="209" y="655" type="line"/>
    </contour>
  </outline>
</glyph>
<glyph name="bracketleft" format="1">
  <advance width="447"/>
  <unicode hex="005B"/>
  <outline>
    <contour>
      <point x="239" y="771" type="line" name="hr00"/>
      <point x="496" y="771" type="line"/>
      <point x="487" y="699" type="line"/>
      <point x="316" y="699" type="line"/>
      <point x="215" y="-127" type="line"/>
      <point x="387" y="-127" type="line"/>
      <point x="377" y="-199" type="line"/>
      <point x="120" y="-199" type="line"/>
    </contour>
  </outline>
</glyph>
<glyph name="bracketright" format="1">
  <advance width="457"/>
  <unicode hex="005D"/>
  <outline>
    <contour>
      <point x="285" y="-199" type="line" name="hr00"/>
      <point x="29" y="-199" type="line"/>
      <point x="37" y="-127" type="line"/>
      <point x="209" y="-127" type="line"/>
      <point x="310" y="699" type="line"/>
      <point x="139" y="699" type="line"/>
      <point x="148" y="771" type="line"/>
      <point x="404" y="771" type="line"/>
    </contour>
  </outline>
</glyph>
<glyph name="asciicircum" format="1">
  <advance width="628"/>
  <unicode hex="005E"/>
  <outline>
    <contour>
      <point x="188" y="210" type="line" name="hr00"/>
      <point x="109" y="210" type="line"/>
      <point x="379" y="727" type="line"/>
      <point x="430" y="727" type="line"/>
      <point x="572" y="210" type="line"/>
      <point x="495" y="210" type="line"/>
      <point x="393" y="580" type="line"/>
      <point x="390" y="606" type="line"/>
      <point x="381" y="580" type="line"/>
    </contour>
  </outline>
</glyph>
<glyph name="underscore" format="1">
  <advance width="497"/>
  <unicode hex="005F"/>
  <outline>
    <contour>
      <point x="19" y="-63" type="line" name="hr00"/>
      <point x="27" y="0" type="line"/>
      <point x="470" y="0" type="line"/>
      <point x="462" y="-63" type="line"/>
    </contour>
  </outline>
</glyph>
<glyph name="b" format="1">
  <advance width="582"/>
  <unicode hex="0062"/>
  <outline>
    <contour>
      <point x="269" y="490" type="curve" name="hr00"/>
      <point x="305" y="509"/>
      <point x="349" y="521"/>
      <point x="379" y="522" type="curve" smooth="yes"/>
      <point x="488" y="528"/>
      <point x="582" y="435"/>
      <point x="561" y="261" type="curve" smooth="yes"/>
      <point x="541" y="102"/>
      <point x="425" y="-10"/>
      <point x="275" y="-10" type="curve" smooth="yes"/>
      <point x="203" y="-10"/>
      <point x="140" y="7"/>
      <point x="87" y="40" type="curve"/>
      <point x="176" y="758" type="line"/>
      <point x="268" y="751" type="line"/>
      <point x="185" y="78" type="line"/>
      <point x="216" y="66"/>
      <point x="254" y="62"/>
      <point x="284" y="62" type="curve" smooth="yes"/>
      <point x="379" y="62"/>
      <point x="448" y="143"/>
      <point x="463" y="261" type="curve" smooth="yes"/>
      <point x="479" y="393"/>
      <point x="428" y="458"/>
      <point x="343" y="448" type="curve" smooth="yes"/>
      <point x="313" y="445"/>
      <point x="288" y="460"/>
    </contour>
  </outline>
</glyph>
<glyph name="c" format="1">
  <advance width="427"/>
  <unicode hex="0063"/>
  <outline>
    <contour>
      <point x="281" y="-10" type="curve" name="hr00"/>
      <point x="147" y="-10"/>
      <point x="52" y="85"/>
      <point x="73" y="259" type="curve"/>
      <point x="95" y="432"/>
      <point x="218" y="527"/>
      <point x="347" y="527" type="curve"/>
      <point x="383" y="527"/>
      <point x="428" y="521"/>
      <point x="467" y="506" type="curve"/>
      <point x="436" y="441" type="line"/>
      <point x="399" y="451"/>
      <point x="368" y="455"/>
      <point x="338" y="455" type="curve"/>
      <point x="262" y="455"/>
      <point x="189" y="393"/>
      <point x="172" y="259" type="curve"/>
      <point x="156" y="124"/>
      <point x="213" y="62"/>
      <point x="290" y="62" type="curve"/>
      <point x="319" y="62"/>
      <point x="355" y="70"/>
      <point x="404" y="91" type="curve"/>
      <point x="421" y="25" type="line"/>
      <point x="363" y="-2"/>
      <point x="312" y="-10"/>
    </contour>
  </outline>
</glyph>
<glyph name="d" format="1">
  <advance width="598"/>
  <unicode hex="0064"/>
  <outline>
    <contour>
      <point x="83" y="261" type="curve"/>
      <point x="102" y="421"/>
      <point x="228" y="523"/>
      <point x="347" y="523" type="curve" smooth="yes"/>
      <point x="377" y="523"/>
      <point x="410" y="519"/>
      <point x="445" y="506" type="curve"/>
      <point x="423" y="473"/>
      <point x="391" y="450"/>
      <point x="344" y="451" type="curve" smooth="yes"/>
      <point x="275" y="453"/>
      <point x="198" y="397"/>
      <point x="182" y="261" type="curve"/>
      <point x="167" y="145"/>
      <point x="205" y="62"/>
      <point x="293" y="62" type="curve"/>
      <point x="339" y="62"/>
      <point x="386" y="85"/>
      <point x="433" y="135" type="curve"/>
      <point x="510" y="758" type="line"/>
      <point x="602" y="751" type="line"/>
      <point x="531" y="176" type="line" smooth="yes"/>
      <point x="521" y="96"/>
      <point x="522" y="40"/>
      <point x="526" y="5" type="curve"/>
      <point x="458" y="0" type="line" name="hr01"/>
      <point x="443" y="14"/>
      <point x="436" y="27"/>
      <point x="429" y="54" type="curve"/>
      <point x="429" y="70" type="line"/>
      <point x="419" y="53" type="line"/>
      <point x="372" y="6"/>
      <point x="310" y="-10"/>
      <point x="269" y="-10" type="curve" name="hr02"/>
      <point x="129" y="-10"/>
      <point x="64" y="108"/>
    </contour>
  </outline>
</glyph>
<glyph name="e" format="1">
  <advance width="544"/>
  <unicode hex="0065"/>
  <outline>
    <contour>
      <point x="435" y="317" type="line" name="hr00"/>
      <point x="454" y="394"/>
      <point x="411" y="455"/>
      <point x="346" y="455" type="curve" smooth="yes"/>
      <point x="262" y="455"/>
      <point x="196" y="385"/>
      <point x="181" y="262" type="curve" smooth="yes"/>
      <point x="166" y="143"/>
      <point x="224" y="62"/>
      <point x="315" y="62" type="curve" smooth="yes"/>
      <point x="361" y="62"/>
      <point x="398" y="69"/>
      <point x="459" y="98" type="curve"/>
      <point x="475" y="32" type="line"/>
      <point x="407" y="-1"/>
      <point x="344" y="-10"/>
      <point x="296" y="-10" type="curve" smooth="yes"/>
      <point x="149" y="-10"/>
      <point x="69" y="106"/>
      <point x="88" y="263" type="curve" smooth="yes"/>
      <point x="108" y="425"/>
      <point x="214" y="527"/>
      <point x="365" y="527" type="curve" smooth="yes"/>
      <point x="502" y="527"/>
      <point x="567" y="393"/>
      <point x="505" y="250" type="curve"/>
      <point x="215" y="250" type="line"/>
      <point x="234" y="288"/>
      <point x="260" y="317"/>
      <point x="308" y="317" type="curve"/>
    </contour>
  </outline>
</glyph>
<glyph name="f" format="1">
  <advance width="390"/>
  <unicode hex="0066"/>
  <outline>
    <contour>
      <point x="60" y="448" type="line" name="hr00"/>
      <point x="65" y="496" type="line"/>
      <point x="154" y="517" type="line"/>
      <point x="157" y="545" type="line" smooth="yes"/>
      <point x="174" y="677"/>
      <point x="254" y="763"/>
      <point x="376" y="763" type="curve" smooth="yes"/>
      <point x="409" y="763"/>
      <point x="450" y="757"/>
      <point x="494" y="737" type="curve"/>
      <point x="466" y="676" type="line"/>
      <point x="425" y="692"/>
      <point x="400" y="695"/>
      <point x="379" y="695" type="curve" smooth="yes"/>
      <point x="323" y="695"/>
      <point x="258" y="655"/>
      <point x="246" y="555" type="curve" smooth="yes"/>
      <point x="178" y="0" type="line"/>
      <point x="91" y="0" type="line"/>
      <point x="146" y="448" type="line"/>
    </contour>
    <contour>
      <point x="422" y="517" type="line"/>
      <point x="414" y="448" type="line"/>
      <point x="269" y="448" type="line"/>
      <point x="287" y="486"/>
      <point x="314" y="517"/>
      <point x="362" y="517" type="curve"/>
    </contour>
  </outline>
</glyph>
<glyph name="g" format="1">
  <advance width="571"/>
  <unicode hex="0067"/>
  <outline>
    <contour>
      <point x="85" y="256" type="curve" name="hr00"/>
      <point x="105" y="419"/>
      <point x="228" y="527"/>
      <point x="383" y="527" type="curve" smooth="yes"/>
      <point x="439" y="527"/>
      <point x="490" y="518"/>
      <point x="556" y="495" type="curve"/>
      <point x="496" y="0" type="line"/>
      <point x="477" y="-149"/>
      <point x="374" y="-250"/>
      <point x="228" y="-250" type="curve" smooth="yes"/>
      <point x="176" y="-250"/>
      <point x="114" y="-242"/>
      <point x="52" y="-208" type="curve"/>
      <point x="86" y="-140" type="line"/>
      <point x="140" y="-168"/>
      <point x="187" y="-178"/>
      <point x="229" y="-178" type="curve" smooth="yes"/>
      <point x="313" y="-178"/>
      <point x="389" y="-125"/>
      <point x="403" y="-11" type="curve"/>
      <point x="459" y="444" type="line"/>
      <point x="429" y="452"/>
      <point x="404" y="455"/>
      <point x="374" y="455" type="curve" smooth="yes"/>
      <point x="274" y="455"/>
      <point x="199" y="384"/>
      <point x="183" y="256" type="curve"/>
      <point x="169" y="143"/>
      <point x="204" y="55"/>
      <point x="296" y="70" type="curve" smooth="yes"/>
      <point x="325" y="74"/>
      <point x="352" y="66"/>
      <point x="374" y="37" type="curve"/>
      <point x="340" y="13"/>
      <point x="302" y="-1"/>
      <point x="272" y="-5" type="curve" smooth="yes"/>
      <point x="153" y="-22"/>
      <point x="65" y="93"/>
    </contour>
  </outline>
</glyph>
<glyph name="h" format="1">
  <advance width="582"/>
  <unicode hex="0068"/>
  <outline>
    <contour>
      <point x="83" y="0" type="line" name="hr00"/>
      <point x="176" y="758" type="line"/>
      <point x="268" y="751" type="line"/>
      <point x="176" y="0" type="line"/>
    </contour>
    <contour>
      <point x="452" y="376" type="line"/>
      <point x="457" y="422"/>
      <point x="444" y="455"/>
      <point x="405" y="455" type="curve" smooth="yes"/>
      <point x="389" y="455"/>
      <point x="382" y="451"/>
      <point x="363" y="447" type="curve" smooth="yes"/>
      <point x="323" y="438"/>
      <point x="293" y="445"/>
      <point x="269" y="474" type="curve"/>
      <point x="345" y="516"/>
      <point x="389" y="527"/>
      <point x="426" y="527" type="curve" smooth="yes"/>
      <point x="503" y="527"/>
      <point x="562" y="490"/>
      <point x="546" y="366" type="curve" smooth="yes"/>
      <point x="502" y="0" type="line"/>
      <point x="406" y="0" type="line"/>
    </contour>
  </outline>
</glyph>
<glyph name="i" format="1">
  <advance width="256"/>
  <unicode hex="0069"/>
  <outline>
    <contour>
      <point x="80" y="0" type="line" name="hr00"/>
      <point x="143" y="517" type="line"/>
      <point x="239" y="517" type="line"/>
      <point x="176" y="0" type="line"/>
    </contour>
    <contour>
      <point x="149" y="667" type="curve"/>
      <point x="154" y="702"/>
      <point x="183" y="728"/>
      <point x="217" y="728" type="curve" smooth="yes"/>
      <point x="252" y="728"/>
      <point x="274" y="702"/>
      <point x="269" y="667" type="curve" smooth="yes"/>
      <point x="265" y="633"/>
      <point x="237" y="607"/>
      <point x="202" y="607" type="curve" smooth="yes"/>
      <point x="168" y="607"/>
      <point x="145" y="633"/>
    </contour>
  </outline>
</glyph>
<glyph name="j" format="1">
  <advance width="279"/>
  <unicode hex="006A"/>
  <outline>
    <contour>
      <point x="170" y="667" type="curve"/>
      <point x="175" y="703"/>
      <point x="202" y="729"/>
      <point x="237" y="729" type="curve" smooth="yes"/>
      <point x="273" y="729"/>
      <point x="296" y="703"/>
      <point x="291" y="667" type="curve" smooth="yes"/>
      <point x="287" y="632"/>
      <point x="258" y="607"/>
      <point x="222" y="607" type="curve" smooth="yes"/>
      <point x="187" y="607"/>
      <point x="166" y="632"/>
    </contour>
    <contour>
      <point x="200" y="39" type="line"/>
      <point x="187" y="-67"/>
      <point x="149" y="-143"/>
      <point x="-12" y="-248" type="curve"/>
      <point x="-48" y="-195" type="line"/>
      <point x="71" y="-101"/>
      <point x="94" y="-55"/>
      <point x="105" y="39" type="curve" smooth="yes"/>
      <point x="164" y="517" type="line" name="hr01"/>
      <point x="259" y="517" type="line"/>
    </contour>
  </outline>
</glyph>
<glyph name="k" format="1">
  <advance width="581"/>
  <unicode hex="006B"/>
  <outline>
    <contour>
      <point x="176" y="0" type="line" name="hr00"/>
      <point x="83" y="0" type="line"/>
      <point x="176" y="758" type="line"/>
      <point x="268" y="751" type="line"/>
    </contour>
    <contour>
      <point x="403" y="335" type="line"/>
      <point x="557" y="0" type="line"/>
      <point x="451" y="0" type="line"/>
      <point x="336" y="270" type="line"/>
      <point x="248" y="183" type="line"/>
      <point x="238" y="222"/>
      <point x="251" y="285"/>
      <point x="294" y="328" type="curve" smooth="yes"/>
      <point x="480" y="517" type="line"/>
      <point x="583" y="510" type="line"/>
    </contour>
  </outline>
</glyph>
<glyph name="m" format="1">
  <advance width="902"/>
  <unicode hex="006D"/>
  <outline>
    <contour>
      <point x="205" y="517" type="line"/>
      <point x="233" y="481"/>
      <point x="235" y="447"/>
      <point x="230" y="407" type="curve" smooth="yes"/>
      <point x="181" y="0" type="line"/>
      <point x="85" y="0" type="line"/>
      <point x="132" y="386" type="line" smooth="yes"/>
      <point x="136" y="423"/>
      <point x="137" y="465"/>
      <point x="132" y="512" type="curve"/>
    </contour>
    <contour>
      <point x="453" y="376" type="line"/>
      <point x="458" y="422"/>
      <point x="443" y="455"/>
      <point x="404" y="455" type="curve" smooth="yes" name="hr01"/>
      <point x="388" y="455"/>
      <point x="378" y="452"/>
      <point x="361" y="448" type="curve" smooth="yes"/>
      <point x="320" y="439"/>
      <point x="290" y="446"/>
      <point x="266" y="475" type="curve"/>
      <point x="342" y="517"/>
      <point x="388" y="527"/>
      <point x="424" y="527" type="curve" smooth="yes"/>
      <point x="502" y="527"/>
      <point x="563" y="490"/>
      <point x="547" y="366" type="curve" smooth="yes"/>
      <point x="503" y="0" type="line"/>
      <point x="407" y="0" type="line"/>
    </contour>
    <contour>
      <point x="774" y="376" type="line"/>
      <point x="779" y="422"/>
      <point x="763" y="455"/>
      <point x="721" y="455" type="curve" smooth="yes"/>
      <point x="705" y="455"/>
      <point x="693" y="451"/>
      <point x="674" y="447" type="curve" smooth="yes"/>
      <point x="634" y="438"/>
      <point x="602" y="445"/>
      <point x="578" y="474" type="curve"/>
      <point x="654" y="516"/>
      <point x="704" y="527"/>
      <point x="740" y="527" type="curve" smooth="yes"/>
      <point x="819" y="527"/>
      <point x="884" y="490"/>
      <point x="868" y="366" type="curve" smooth="yes"/>
      <point x="824" y="0" type="line"/>
      <point x="728" y="0" type="line"/>
    </contour>
  </outline>
</glyph>
<glyph name="n" format="1">
  <advance width="596"/>
  <unicode hex="006E"/>
  <outline>
    <contour>
      <point x="205" y="517" type="line"/>
      <point x="233" y="481"/>
      <point x="235" y="447"/>
      <point x="230" y="407" type="curve" smooth="yes"/>
      <point x="181" y="0" type="line"/>
      <point x="85" y="0" type="line"/>
      <point x="132" y="386" type="line" smooth="yes"/>
      <point x="136" y="423"/>
      <point x="137" y="465"/>
      <point x="132" y="512" type="curve"/>
    </contour>
    <contour>
      <point x="459" y="376" type="line"/>
      <point x="464" y="422"/>
      <point x="447" y="455"/>
      <point x="406" y="455" type="curve" smooth="yes" name="hr01"/>
      <point x="390" y="455"/>
      <point x="380" y="451"/>
      <point x="362" y="447" type="curve" smooth="yes"/>
      <point x="322" y="438"/>
      <point x="290" y="445"/>
      <point x="266" y="474" type="curve"/>
      <point x="342" y="516"/>
      <point x="388" y="527"/>
      <point x="424" y="527" type="curve" smooth="yes"/>
      <point x="504" y="527"/>
      <point x="569" y="490"/>
      <point x="553" y="366" type="curve" smooth="yes"/>
      <point x="509" y="0" type="line"/>
      <point x="413" y="0" type="line"/>
    </contour>
  </outline>
</glyph>
<glyph name="o" format="1">
  <advance width="566"/>
  <unicode hex="006F"/>
  <outline>
    <contour>
      <point x="71" y="259" type="curve" name="hr00"/>
      <point x="94" y="442"/>
      <point x="227" y="527"/>
      <point x="345" y="527" type="curve"/>
      <point x="498" y="527"/>
      <point x="572" y="409"/>
      <point x="553" y="259" type="curve"/>
      <point x="532" y="85"/>
      <point x="408" y="-10"/>
      <point x="279" y="-10" type="curve" smooth="yes"/>
      <point x="145" y="-10"/>
      <point x="50" y="85"/>
    </contour>
    <contour>
      <point x="170" y="259" type="curve"/>
      <point x="156" y="143"/>
      <point x="197" y="62"/>
      <point x="288" y="62" type="curve"/>
      <point x="385" y="62"/>
      <point x="441" y="152"/>
      <point x="454" y="259" type="curve"/>
      <point x="471" y="393"/>
      <point x="412" y="455"/>
      <point x="336" y="455" type="curve"/>
      <point x="260" y="455"/>
      <point x="187" y="393"/>
    </contour>
  </outline>
</glyph>
<glyph name="p" format="1">
  <advance width="598"/>
  <unicode hex="0070"/>
  <outline>
    <contour>
      <point x="578" y="256" type="curve"/>
      <point x="558" y="96"/>
      <point x="434" y="-6"/>
      <point x="314" y="-6" type="curve" smooth="yes"/>
      <point x="284" y="-6"/>
      <point x="250" y="-2"/>
      <point x="216" y="11" type="curve"/>
      <point x="239" y="44"/>
      <point x="271" y="67"/>
      <point x="317" y="66" type="curve" smooth="yes"/>
      <point x="385" y="64"/>
      <point x="462" y="121"/>
      <point x="479" y="256" type="curve"/>
      <point x="493" y="372"/>
      <point x="456" y="455"/>
      <point x="367" y="455" type="curve"/>
      <point x="322" y="455"/>
      <point x="275" y="432"/>
      <point x="227" y="382" type="curve"/>
      <point x="151" y="-241" type="line"/>
      <point x="60" y="-234" type="line"/>
      <point x="130" y="341" type="line" smooth="yes"/>
      <point x="140" y="421"/>
      <point x="139" y="477"/>
      <point x="135" y="512" type="curve"/>
      <point x="203" y="517" type="line" name="hr01"/>
      <point x="218" y="503"/>
      <point x="226" y="490"/>
      <point x="231" y="463" type="curve"/>
      <point x="231" y="447" type="line"/>
      <point x="242" y="465" type="line"/>
      <point x="289" y="511"/>
      <point x="350" y="527"/>
      <point x="392" y="527" type="curve" name="hr02"/>
      <point x="532" y="527"/>
      <point x="597" y="409"/>
    </contour>
  </outline>
</glyph>
<glyph name="q" format="1">
  <advance width="582"/>
  <unicode hex="0071"/>
  <outline>
    <contour>
      <point x="376" y="37" type="curve" name="hr00"/>
      <point x="342" y="13"/>
      <point x="304" y="-1"/>
      <point x="274" y="-5" type="curve" smooth="yes"/>
      <point x="155" y="-22"/>
      <point x="66" y="93"/>
      <point x="86" y="256" type="curve" smooth="yes"/>
      <point x="106" y="419"/>
      <point x="229" y="527"/>
      <point x="384" y="527" type="curve" smooth="yes"/>
      <point x="440" y="527"/>
      <point x="491" y="518"/>
      <point x="557" y="495" type="curve"/>
      <point x="467" y="-241" type="line"/>
      <point x="377" y="-234" type="line"/>
      <point x="460" y="444" type="line"/>
      <point x="430" y="452"/>
      <point x="405" y="455"/>
      <point x="375" y="455" type="curve" smooth="yes"/>
      <point x="275" y="455"/>
      <point x="200" y="384"/>
      <point x="184" y="256" type="curve" smooth="yes"/>
      <point x="170" y="143"/>
      <point x="206" y="55"/>
      <point x="298" y="70" type="curve" smooth="yes"/>
      <point x="327" y="75"/>
      <point x="354" y="66"/>
    </contour>
  </outline>
</glyph>
<glyph name="r" format="1">
  <advance width="391"/>
  <unicode hex="0072"/>
  <outline>
    <contour>
      <point x="203" y="517" type="line"/>
      <point x="221" y="495"/>
      <point x="225" y="469"/>
      <point x="227" y="437" type="curve"/>
      <point x="225" y="419" type="line"/>
      <point x="235" y="437" type="line"/>
      <point x="267" y="488"/>
      <point x="325" y="524"/>
      <point x="379" y="524" type="curve" smooth="yes" name="hr01"/>
      <point x="394" y="524"/>
      <point x="409" y="521"/>
      <point x="427" y="516" type="curve"/>
      <point x="405" y="438" type="line"/>
      <point x="385" y="443"/>
      <point x="370" y="444"/>
      <point x="358" y="444" type="curve" smooth="yes"/>
      <point x="296" y="444"/>
      <point x="224" y="396"/>
      <point x="209" y="276" type="curve" smooth="yes"/>
      <point x="176" y="0" type="line"/>
      <point x="87" y="0" type="line"/>
      <point x="127" y="337" type="line" smooth="yes" name="hr02"/>
      <point x="135" y="398"/>
      <point x="138" y="465"/>
      <point x="133" y="512" type="curve"/>
    </contour>
  </outline>
</glyph>
<glyph name="s" format="1">
  <advance width="416"/>
  <unicode hex="0073"/>
  <outline>
    <contour>
      <point x="72" y="98" type="line" name="hr00"/>
      <point x="119" y="73"/>
      <point x="172" y="62"/>
      <point x="214" y="62" type="curve" smooth="yes"/>
      <point x="274" y="62"/>
      <point x="307" y="93"/>
      <point x="312" y="137" type="curve" smooth="yes"/>
      <point x="326" y="246"/>
      <point x="81" y="225"/>
      <point x="102" y="392" type="curve" smooth="yes"/>
      <point x="109" y="456"/>
      <point x="174" y="526"/>
      <point x="278" y="526" type="curve" smooth="yes"/>
      <point x="316" y="526"/>
      <point x="360" y="520"/>
      <point x="414" y="500" type="curve"/>
      <point x="383" y="435" type="line"/>
      <point x="343" y="449"/>
      <point x="307" y="455"/>
      <point x="279" y="455" type="curve" smooth="yes"/>
      <point x="233" y="455"/>
      <point x="197" y="433"/>
      <point x="192" y="392" type="curve" smooth="yes"/>
      <point x="178" y="285"/>
      <point x="423" y="305"/>
      <point x="402" y="132" type="curve" smooth="yes"/>
      <point x="392" y="56"/>
      <point x="305" y="-10"/>
      <point x="217" y="-10" type="curve" smooth="yes"/>
      <point x="166" y="-10"/>
      <point x="113" y="-6"/>
      <point x="39" y="32" type="curve"/>
    </contour>
  </outline>
</glyph>
<glyph name="t" format="1">
  <advance width="426"/>
  <unicode hex="0074"/>
  <outline>
    <contour>
      <point x="157" y="448" type="line" name="hr00"/>
      <point x="65" y="448" type="line"/>
      <point x="70" y="493" type="line"/>
      <point x="165" y="517" type="line"/>
      <point x="181" y="649" type="line"/>
      <point x="273" y="677" type="line"/>
      <point x="212" y="180" type="line"/>
      <point x="203" y="111"/>
      <point x="229" y="59"/>
      <point x="278" y="59" type="curve" smooth="yes"/>
      <point x="304" y="59"/>
      <point x="325" y="63"/>
      <point x="362" y="74" type="curve"/>
      <point x="376" y="11" type="line"/>
      <point x="323" y="-6"/>
      <point x="301" y="-11"/>
      <point x="269" y="-11" type="curve" smooth="yes"/>
      <point x="160" y="-11"/>
      <point x="109" y="64"/>
      <point x="125" y="191" type="curve"/>
    </contour>
    <contour>
      <point x="365" y="448" type="line"/>
      <point x="318" y="448"/>
      <point x="297" y="479"/>
      <point x="289" y="517" type="curve"/>
      <point x="430" y="517" type="line"/>
      <point x="422" y="448" type="line"/>
    </contour>
  </outline>
</glyph>
<glyph name="v" format="1">
  <advance width="516"/>
  <unicode hex="0076"/>
  <outline>
    <contour>
      <point x="210" y="0" type="line" name="hr00"/>
      <point x="79" y="517" type="line"/>
      <point x="179" y="517" type="line"/>
      <point x="267" y="114" type="line"/>
      <point x="272" y="89" type="line"/>
      <point x="282" y="114" type="line"/>
      <point x="469" y="517" type="line"/>
      <point x="562" y="510" type="line"/>
      <point x="308" y="0" type="line"/>
    </contour>
  </outline>
</glyph>
<glyph name="w" format="1">
  <advance width="860"/>
  <unicode hex="0077"/>
  <outline>
    <contour>
      <point x="321" y="0" type="line" name="hr00"/>
      <point x="226" y="0" type="line"/>
      <point x="106" y="517" type="line"/>
      <point x="206" y="517" type="line"/>
      <point x="284" y="114" type="line"/>
      <point x="288" y="89" type="line"/>
      <point x="298" y="114" type="line"/>
      <point x="419" y="358" type="line"/>
      <point x="445" y="325"/>
      <point x="453" y="253"/>
      <point x="423" y="190" type="curve"/>
    </contour>
    <contour>
      <point x="557" y="0" type="line"/>
      <point x="438" y="517" type="line"/>
      <point x="538" y="517" type="line"/>
      <point x="616" y="114" type="line"/>
      <point x="620" y="89" type="line"/>
      <point x="630" y="114" type="line"/>
      <point x="807" y="517" type="line"/>
      <point x="899" y="510" type="line"/>
      <point x="657" y="0" type="line"/>
    </contour>
  </outline>
</glyph>
<glyph name="x" format="1">
  <advance width="499"/>
  <unicode hex="0078"/>
  <outline>
    <contour>
      <point x="369" y="0" type="line" name="hr00"/>
      <point x="324" y="87"/>
      <point x="280" y="172"/>
      <point x="233" y="259" type="curve"/>
      <point x="94" y="517" type="line"/>
      <point x="199" y="517" type="line"/>
      <point x="284" y="338" type="line"/>
      <point x="287" y="317" type="line"/>
      <point x="297" y="338" type="line"/>
      <point x="428" y="517" type="line"/>
      <point x="520" y="510" type="line"/>
      <point x="325" y="263" type="line"/>
      <point x="473" y="0" type="line"/>
    </contour>
    <contour>
      <point x="119" y="0" type="line"/>
      <point x="22" y="0" type="line"/>
      <point x="203" y="225" type="line"/>
      <point x="226" y="193"/>
      <point x="232" y="146"/>
      <point x="199" y="104" type="curve"/>
    </contour>
  </outline>
</glyph>
<glyph name="z" format="1">
  <advance width="448"/>
  <unicode hex="007A"/>
  <outline>
    <contour>
      <point x="131" y="517" type="line" name="hr00"/>
      <point x="481" y="517" type="line"/>
      <point x="476" y="479" type="line"/>
      <point x="170" y="82" type="line"/>
      <point x="151" y="65" type="line"/>
      <point x="175" y="68" type="line"/>
      <point x="432" y="68" type="line"/>
      <point x="424" y="0" type="line"/>
      <point x="35" y="0" type="line"/>
      <point x="39" y="38" type="line"/>
      <point x="349" y="437" type="line"/>
      <point x="366" y="454" type="line"/>
      <point x="345" y="451" type="line"/>
      <point x="123" y="451" type="line"/>
    </contour>
  </outline>
</glyph>
<glyph name="braceleft" format="1">
  <advance width="403"/>
  <unicode hex="007B"/>
  <outline>
    <contour>
      <point x="202" y="192" type="curve" name="hr00"/>
      <point x="205" y="239"/>
      <point x="165" y="266"/>
      <point x="115" y="275" type="curve"/>
      <point x="122" y="332" type="line"/>
      <point x="174" y="341"/>
      <point x="223" y="368"/>
      <point x="231" y="415" type="curve"/>
      <point x="264" y="578"/>
      <point x="320" y="684"/>
      <point x="454" y="767" type="curve"/>
      <point x="488" y="717" type="line"/>
      <point x="380" y="640"/>
      <point x="338" y="558"/>
      <point x="314" y="439" type="curve"/>
      <point x="304" y="384"/>
      <point x="269" y="342"/>
      <point x="224" y="314" type="curve"/>
      <point x="198" y="303" type="line"/>
      <point x="222" y="291" type="line"/>
      <point x="261" y="263"/>
      <point x="285" y="222"/>
      <point x="281" y="168" type="curve"/>
      <point x="273" y="39"/>
      <point x="292" y="-45"/>
      <point x="384" y="-126" type="curve"/>
      <point x="338" y="-176" type="line"/>
      <point x="221" y="-89"/>
      <point x="191" y="15"/>
    </contour>
  </outline>
</glyph>
<glyph name="braceright" format="1">
  <advance width="403"/>
  <unicode hex="007D"/>
  <outline>
    <contour>
      <point x="326" y="192" type="curve" name="hr00"/>
      <point x="294" y="15"/>
      <point x="239" y="-89"/>
      <point x="100" y="-176" type="curve"/>
      <point x="66" y="-126" type="line"/>
      <point x="178" y="-45"/>
      <point x="217" y="39"/>
      <point x="241" y="168" type="curve"/>
      <point x="252" y="223"/>
      <point x="286" y="265"/>
      <point x="332" y="293" type="curve"/>
      <point x="358" y="303" type="line"/>
      <point x="334" y="314" type="line"/>
      <point x="295" y="342"/>
      <point x="272" y="384"/>
      <point x="274" y="439" type="curve"/>
      <point x="280" y="558"/>
      <point x="258" y="640"/>
      <point x="170" y="717" type="curve"/>
      <point x="216" y="767" type="line"/>
      <point x="328" y="684"/>
      <point x="358" y="578"/>
      <point x="351" y="415" type="curve"/>
      <point x="349" y="368"/>
      <point x="390" y="341"/>
      <point x="440" y="332" type="curve"/>
      <point x="433" y="275" type="line"/>
      <point x="381" y="266"/>
      <point x="335" y="239"/>
    </contour>
  </outline>
</glyph>
<glyph name="asciitilde" format="1">
  <advance width="614"/>
  <unicode hex="007E"/>
  <outline>
    <contour>
      <point x="91" y="236" type="line"/>
      <point x="108" y="336"/>
      <point x="173" y="381"/>
      <point x="259" y="382" type="curve" smooth="yes"/>
      <point x="302" y="382"/>
      <point x="340" y="362"/>
      <point x="368" y="340" type="curve" smooth="yes"/>
      <point x="397" y="318"/>
      <point x="425" y="298"/>
      <point x="470" y="298" type="curve" smooth="yes"/>
      <point x="502" y="298"/>
      <point x="525" y="334"/>
      <point x="535" y="384" type="curve" name="hr01"/>
      <point x="615" y="376" type="line"/>
      <point x="594" y="263"/>
      <point x="531" y="231"/>
      <point x="451" y="230" type="curve" smooth="yes"/>
      <point x="406" y="229"/>
      <point x="367" y="250"/>
      <point x="339" y="272" type="curve" smooth="yes"/>
      <point x="309" y="294"/>
      <point x="283" y="314"/>
      <point x="242" y="314" type="curve" smooth="yes" name="hr02"/>
      <point x="210" y="313"/>
      <point x="181" y="284"/>
      <point x="170" y="228" type="curve"/>
    </contour>
  </outline>
</glyph>
<glyph name="exclamdown" format="1">
  <advance width="351"/>
  <unicode hex="00A1"/>
  <outline>
    <contour>
      <point x="44" y="-210" type="line" name="hr00"/>
      <point x="122" y="332" type="line"/>
      <point x="190" y="332" type="line"/>
      <point x="138" y="-210" type="line"/>
    </contour>
    <contour>
      <point x="114" y="473" type="curve"/>
      <point x="118" y="507"/>
      <point x="146" y="532"/>
      <point x="180" y="532" type="curve" smooth="yes"/>
      <point x="215" y="532"/>
      <point x="238" y="507"/>
      <point x="234" y="473" type="curve" smooth="yes"/>
      <point x="229" y="438"/>
      <point x="200" y="412"/>
      <point x="165" y="412" type="curve" smooth="yes"/>
      <point x="131" y="412"/>
      <point x="109" y="438"/>
    </contour>
  </outline>
</glyph>
<glyph name="cent" format="1">
  <advance width="427"/>
  <unicode hex="00A2"/>
  <outline>
    <contour>
      <point x="432" y="120" type="line" name="hr00"/>
      <point x="391" y="100"/>
      <point x="354" y="91"/>
      <point x="324" y="87" type="curve"/>
      <point x="312" y="-14" type="line"/>
      <point x="240" y="-14" type="line"/>
      <point x="252" y="88" type="line"/>
      <point x="139" y="105"/>
      <point x="66" y="198"/>
      <point x="85" y="354" type="curve" smooth="yes"/>
      <point x="104" y="508"/>
      <point x="204" y="600"/>
      <point x="317" y="618" type="curve"/>
      <point x="329" y="716" type="line"/>
      <point x="401" y="716" type="line"/>
      <point x="390" y="621" type="line"/>
      <point x="418" y="618"/>
      <point x="451" y="612"/>
      <point x="478" y="601" type="curve"/>
      <point x="445" y="535" type="line"/>
      <point x="411" y="546"/>
      <point x="380" y="550"/>
      <point x="350" y="550" type="curve" smooth="yes"/>
      <point x="274" y="550"/>
      <point x="200" y="488"/>
      <point x="184" y="354" type="curve" smooth="yes"/>
      <point x="167" y="219"/>
      <point x="225" y="157"/>
      <point x="302" y="157" type="curve" smooth="yes"/>
      <point x="331" y="157"/>
      <point x="367" y="165"/>
      <point x="415" y="186" type="curve"/>
    </contour>
  </outline>
</glyph>
<glyph name="sterling" format="1">
  <advance width="513"/>
  <unicode hex="00A3"/>
  <outline>
    <contour>
      <point x="280" y="197" type="curve" name="hr00"/>
      <point x="265" y="158"/>
      <point x="241" y="125"/>
      <point x="209" y="96" type="curve"/>
      <point x="186" y="78" type="line"/>
      <point x="213" y="80" type="line"/>
      <point x="492" y="80" type="line"/>
      <point x="483" y="0" type="line"/>
      <point x="56" y="0" type="line"/>
      <point x="63" y="61" type="line"/>
      <point x="139" y="97"/>
      <point x="198" y="162"/>
      <point x="208" y="242" type="curve" smooth="yes"/>
      <point x="211" y="268"/>
      <point x="213" y="293"/>
      <point x="212" y="321" type="curve"/>
      <point x="116" y="321" type="line"/>
      <point x="124" y="386" type="line"/>
      <point x="210" y="386" type="line"/>
      <point x="208" y="418"/>
      <point x="208" y="470"/>
      <point x="213" y="512" type="curve" smooth="yes"/>
      <point x="229" y="639"/>
      <point x="328" y="712"/>
      <point x="438" y="712" type="curve"/>
      <point x="485" y="712"/>
      <point x="531" y="702"/>
      <point x="584" y="675" type="curve"/>
      <point x="551" y="608" type="line"/>
      <point x="505" y="632"/>
      <point x="457" y="640"/>
      <point x="429" y="640" type="curve" smooth="yes"/>
      <point x="355" y="640"/>
      <point x="311" y="587"/>
      <point x="301" y="511" type="curve" smooth="yes"/>
      <point x="286" y="390"/>
      <point x="312" y="296"/>
    </contour>
    <contour>
      <point x="410" y="321" type="line"/>
      <point x="362" y="321"/>
      <point x="342" y="348"/>
      <point x="333" y="386" type="curve"/>
      <point x="492" y="386" type="line"/>
      <point x="484" y="321" type="line"/>
    </contour>
  </outline>
</glyph>
<glyph name="currency" format="1">
  <advance width="513"/>
  <unicode hex="00A4"/>
  <outline>
    <contour>
      <point x="322" y="544" type="curve" name="hr00"/>
      <point x="369" y="544"/>
      <point x="408" y="528"/>
      <point x="433" y="504" type="curve"/>
      <point x="518" y="574" type="line"/>
      <point x="552" y="533" type="line"/>
      <point x="465" y="462" type="line"/>
      <point x="481" y="435"/>
      <point x="492" y="393"/>
      <point x="486" y="345" type="curve" smooth="yes"/>
      <point x="479" y="290"/>
      <point x="457" y="247"/>
      <point x="436" y="222" type="curve"/>
      <point x="502" y="148" type="line"/>
      <point x="457" y="108" type="line"/>
      <point x="393" y="181" type="line"/>
      <point x="359" y="152"/>
      <point x="310" y="138"/>
      <point x="270" y="138" type="curve" smooth="yes"/>
      <point x="229" y="138"/>
      <point x="185" y="153"/>
      <point x="161" y="178" type="curve"/>
      <point x="83" y="108" type="line"/>
      <point x="48" y="148" type="line"/>
      <point x="128" y="219" type="line"/>
      <point x="112" y="245"/>
      <point x="100" y="290"/>
      <point x="106" y="339" type="curve" smooth="yes"/>
      <point x="113" y="391"/>
      <point x="136" y="434"/>
      <point x="160" y="462" type="curve"/>
      <point x="94" y="533" type="line"/>
      <point x="138" y="574" type="line"/>
      <point x="203" y="503" type="line"/>
      <point x="234" y="528"/>
      <point x="278" y="544"/>
    </contour>
    <contour>
      <point x="314" y="485" type="curve"/>
      <point x="240" y="485"/>
      <point x="187" y="418"/>
      <point x="177" y="340" type="curve" smooth="yes"/>
      <point x="165" y="243"/>
      <point x="227" y="197"/>
      <point x="278" y="197" type="curve" smooth="yes"/>
      <point x="334" y="197"/>
      <point x="402" y="241"/>
      <point x="415" y="344" type="curve" smooth="yes"/>
      <point x="423" y="413"/>
      <point x="391" y="485"/>
    </contour>
  </outline>
</glyph>
<glyph name="yen" format="1">
  <advance width="660"/>
  <unicode hex="00A5"/>
  <outline>
    <contour>
      <point x="148" y="309" type="line" name="hr00"/>
      <point x="314" y="309" type="line"/>
      <point x="117" y="727" type="line"/>
      <point x="225" y="727" type="line"/>
      <point x="411" y="337" type="line"/>
      <point x="407" y="309" type="line"/>
      <point x="573" y="309" type="line"/>
      <point x="568" y="262" type="line"/>
      <point x="402" y="262" type="line"/>
      <point x="392" y="185" type="line"/>
      <point x="558" y="185" type="line"/>
      <point x="552" y="138" type="line"/>
      <point x="386" y="138" type="line"/>
      <point x="370" y="0" type="line"/>
      <point x="277" y="0" type="line"/>
      <point x="293" y="138" type="line"/>
      <point x="127" y="138" type="line"/>
      <point x="133" y="185" type="line"/>
      <point x="299" y="185" type="line"/>
      <point x="309" y="262" type="line"/>
      <point x="143" y="262" type="line"/>
    </contour>
    <contour>
      <point x="596" y="727" type="line"/>
      <point x="701" y="727" type="line"/>
      <point x="444" y="376" type="line"/>
      <point x="423" y="407"/>
      <point x="409" y="455"/>
      <point x="442" y="502" type="curve"/>
    </contour>
  </outline>
</glyph>
<glyph name="brokenbar" format="1">
  <advance width="254"/>
  <unicode hex="00A6"/>
  <outline>
    <contour>
      <point x="138" y="387" type="line" name="hr00"/>
      <point x="190" y="811" type="line"/>
      <point x="270" y="811" type="line"/>
      <point x="218" y="387" type="line"/>
    </contour>
    <contour>
      <point x="55" y="-293" type="line"/>
      <point x="108" y="141" type="line"/>
      <point x="188" y="141" type="line"/>
      <point x="135" y="-293" type="line"/>
    </contour>
  </outline>
</glyph>
<glyph name="section" format="1">
  <advance width="500"/>
  <unicode hex="00A7"/>
  <outline>
    <contour>
      <point x="71" y="57" type="line" name="hr00"/>
      <point x="129" y="32"/>
      <point x="193" y="21"/>
      <point x="243" y="21" type="curve" smooth="yes"/>
      <point x="324" y="21"/>
      <point x="363" y="52"/>
      <point x="368" y="97" type="curve" smooth="yes"/>
      <point x="382" y="206"/>
      <point x="79" y="185"/>
      <point x="100" y="352" type="curve" smooth="yes"/>
      <point x="104" y="389"/>
      <point x="133" y="429"/>
      <point x="186" y="457" type="curve"/>
      <point x="213" y="467" type="line"/>
      <point x="193" y="476" type="line"/>
      <point x="156" y="501"/>
      <point x="132" y="534"/>
      <point x="138" y="585" type="curve" smooth="yes"/>
      <point x="146" y="650"/>
      <point x="223" y="720"/>
      <point x="338" y="720" type="curve" smooth="yes"/>
      <point x="383" y="720"/>
      <point x="436" y="714"/>
      <point x="501" y="694" type="curve"/>
      <point x="466" y="629" type="line"/>
      <point x="416" y="643"/>
      <point x="374" y="649"/>
      <point x="341" y="649" type="curve" smooth="yes"/>
      <point x="276" y="649"/>
      <point x="233" y="627"/>
      <point x="228" y="586" type="curve" smooth="yes"/>
      <point x="215" y="478"/>
      <point x="518" y="498"/>
      <point x="496" y="325" type="curve" smooth="yes"/>
      <point x="491" y="280"/>
      <point x="457" y="243"/>
      <point x="413" y="219" type="curve"/>
      <point x="389" y="210" type="line"/>
      <point x="409" y="201" type="line"/>
      <point x="443" y="176"/>
      <point x="464" y="142"/>
      <point x="458" y="92" type="curve" smooth="yes"/>
      <point x="447" y="7"/>
      <point x="354" y="-51"/>
      <point x="249" y="-51" type="curve" smooth="yes"/>
      <point x="187" y="-51"/>
      <point x="124" y="-47"/>
      <point x="34" y="-9" type="curve"/>
    </contour>
    <contour>
      <point x="412" y="330" type="curve" smooth="yes"/>
      <point x="419" y="384"/>
      <point x="344" y="406"/>
      <point x="272" y="436" type="curve"/>
      <point x="222" y="417"/>
      <point x="189" y="387"/>
      <point x="185" y="353" type="curve" smooth="yes"/>
      <point x="178" y="296"/>
      <point x="259" y="275"/>
      <point x="335" y="242" type="curve"/>
      <point x="384" y="268"/>
      <point x="408" y="299"/>
    </contour>
  </outline>
</glyph>
<glyph name="dieresis" format="1">
  <advance width="407"/>
  <unicode hex="00A8"/>
  <outline>
    <contour>
      <point x="120" y="670" type="curve" smooth="yes" name="hr00"/>
      <point x="123" y="699"/>
      <point x="150" y="722"/>
      <point x="178" y="722" type="curve" smooth="yes"/>
      <point x="207" y="722"/>
      <point x="228" y="699"/>
      <point x="225" y="670" type="curve" smooth="yes"/>
      <point x="221" y="641"/>
      <point x="194" y="618"/>
      <point x="165" y="618" type="curve" smooth="yes"/>
      <point x="137" y="618"/>
      <point x="116" y="641"/>
    </contour>
    <contour>
      <point x="314" y="670" type="curve" smooth="yes"/>
      <point x="317" y="699"/>
      <point x="344" y="722"/>
      <point x="373" y="722" type="curve" smooth="yes"/>
      <point x="401" y="722"/>
      <point x="422" y="699"/>
      <point x="419" y="670" type="curve" smooth="yes"/>
      <point x="415" y="641"/>
      <point x="388" y="618"/>
      <point x="360" y="618" type="curve" smooth="yes"/>
      <point x="331" y="618"/>
      <point x="310" y="641"/>
    </contour>
  </outline>
</glyph>
<glyph name="copyright" format="1">
  <advance width="720"/>
  <unicode hex="00A9"/>
  <outline>
    <contour>
      <point x="440" y="680" type="curve" name="hr00"/>
      <point x="632" y="680"/>
      <point x="744" y="535"/>
      <point x="722" y="357" type="curve" smooth="yes"/>
      <point x="700" y="176"/>
      <point x="552" y="31"/>
      <point x="360" y="31" type="curve" smooth="yes"/>
      <point x="166" y="31"/>
      <point x="53" y="176"/>
      <point x="75" y="357" type="curve" smooth="yes"/>
      <point x="97" y="535"/>
      <point x="246" y="680"/>
    </contour>
    <contour>
      <point x="433" y="623" type="curve"/>
      <point x="282" y="622"/>
      <point x="166" y="513"/>
      <point x="147" y="354" type="curve" smooth="yes"/>
      <point x="128" y="197"/>
      <point x="217" y="90"/>
      <point x="367" y="89" type="curve"/>
      <point x="515" y="87"/>
      <point x="631" y="197"/>
      <point x="650" y="357" type="curve" smooth="yes"/>
      <point x="669" y="513"/>
      <point x="581" y="623"/>
    </contour>
    <contour>
      <point x="398" y="176" type="curve"/>
      <point x="309" y="176"/>
      <point x="244" y="240"/>
      <point x="258" y="357" type="curve"/>
      <point x="273" y="473"/>
      <point x="355" y="537"/>
      <point x="442" y="537" type="curve"/>
      <point x="467" y="537"/>
      <point x="497" y="532"/>
      <point x="524" y="523" type="curve"/>
      <point x="501" y="475" type="line"/>
      <point x="478" y="483"/>
      <point x="456" y="485"/>
      <point x="436" y="485" type="curve"/>
      <point x="386" y="485"/>
      <point x="336" y="443"/>
      <point x="325" y="357" type="curve"/>
      <point x="315" y="269"/>
      <point x="353" y="227"/>
      <point x="404" y="227" type="curve"/>
      <point x="423" y="227"/>
      <point x="449" y="232"/>
      <point x="482" y="246" type="curve"/>
      <point x="493" y="199" type="line"/>
      <point x="454" y="181"/>
      <point x="419" y="176"/>
    </contour>
  </outline>
</glyph>
<glyph name="ordfeminine" format="1">
  <advance width="527"/>
  <unicode hex="00AA"/>
  <outline>
    <contour>
      <point x="385" y="422" type="line" name="hr00"/>
      <point x="378" y="366"/>
      <point x="379" y="327"/>
      <point x="382" y="302" type="curve"/>
      <point x="332" y="302" type="line"/>
      <point x="319" y="310"/>
      <point x="314" y="323"/>
      <point x="310" y="338" type="curve"/>
      <point x="311" y="350" type="line"/>
      <point x="302" y="338" type="line"/>
      <point x="262" y="302"/>
      <point x="233" y="295"/>
      <point x="200" y="295" type="curve" smooth="yes"/>
      <point x="127" y="295"/>
      <point x="86" y="338"/>
      <point x="93" y="394" type="curve" smooth="yes"/>
      <point x="102" y="465"/>
      <point x="157" y="499"/>
      <point x="303" y="515" type="curve"/>
      <point x="298" y="499"/>
      <point x="283" y="464"/>
      <point x="246" y="459" type="curve" smooth="yes"/>
      <point x="183" y="449"/>
      <point x="169" y="425"/>
      <point x="165" y="399" type="curve" smooth="yes"/>
      <point x="162" y="370"/>
      <point x="179" y="348"/>
      <point x="215" y="348" type="curve" smooth="yes"/>
      <point x="246" y="348"/>
      <point x="282" y="363"/>
      <point x="313" y="399" type="curve"/>
      <point x="329" y="527" type="line"/>
      <point x="336" y="582"/>
      <point x="316" y="618"/>
      <point x="252" y="618" type="curve" smooth="yes"/>
      <point x="227" y="618"/>
      <point x="204" y="613"/>
      <point x="169" y="601" type="curve"/>
      <point x="159" y="647" type="line"/>
      <point x="206" y="667"/>
      <point x="241" y="671"/>
      <point x="272" y="671" type="curve" smooth="yes"/>
      <point x="361" y="671"/>
      <point x="409" y="616"/>
      <point x="398" y="522" type="curve"/>
    </contour>
  </outline>
</glyph>
<glyph name="guillemotleft" format="1">
  <advance width="613"/>
  <unicode hex="00AB"/>
  <outline>
    <contour>
      <point x="103" y="258" type="line" name="hr00"/>
      <point x="345" y="466" type="line"/>
      <point x="383" y="423" type="line"/>
      <point x="219" y="258" type="line"/>
      <point x="343" y="93" type="line"/>
      <point x="294" y="50" type="line"/>
    </contour>
    <contour>
      <point x="353" y="258" type="line"/>
      <point x="595" y="466" type="line"/>
      <point x="633" y="423" type="line"/>
      <point x="469" y="258" type="line"/>
      <point x="593" y="93" type="line"/>
      <point x="544" y="50" type="line"/>
    </contour>
  </outline>
</glyph>
<glyph name="logicalnot" format="1">
  <advance width="569"/>
  <unicode hex="00AC"/>
  <outline>
    <contour>
      <point x="582" y="438" type="line" name="hr00"/>
      <point x="548" y="156" type="line"/>
      <point x="475" y="156" type="line"/>
      <point x="501" y="374" type="line"/>
      <point x="88" y="374" type="line"/>
      <point x="96" y="438" type="line"/>
    </contour>
  </outline>
</glyph>
<glyph name="registered" format="1">
  <advance width="720"/>
  <unicode hex="00AE"/>
  <outline>
    <contour>
      <point x="440" y="680" type="curve" name="hr00"/>
      <point x="632" y="680"/>
      <point x="744" y="535"/>
      <point x="722" y="357" type="curve" smooth="yes"/>
      <point x="700" y="176"/>
      <point x="552" y="31"/>
      <point x="360" y="31" type="curve" smooth="yes"/>
      <point x="166" y="31"/>
      <point x="53" y="176"/>
      <point x="75" y="357" type="curve" smooth="yes"/>
      <point x="97" y="535"/>
      <point x="246" y="680"/>
    </contour>
    <contour>
      <point x="433" y="623" type="curve"/>
      <point x="282" y="622"/>
      <point x="166" y="513"/>
      <point x="147" y="354" type="curve" smooth="yes"/>
      <point x="128" y="197"/>
      <point x="217" y="90"/>
      <point x="367" y="89" type="curve"/>
      <point x="515" y="87"/>
      <point x="631" y="197"/>
      <point x="650" y="357" type="curve" smooth="yes"/>
      <point x="669" y="513"/>
      <point x="581" y="623"/>
    </contour>
    <contour>
      <point x="540" y="431" type="curve"/>
      <point x="535" y="390"/>
      <point x="506" y="361"/>
      <point x="467" y="345" type="curve"/>
      <point x="512" y="317"/>
      <point x="500" y="254"/>
      <point x="522" y="189" type="curve"/>
      <point x="456" y="189" type="line"/>
      <point x="437" y="243"/>
      <point x="449" y="315"/>
      <point x="403" y="334" type="curve"/>
      <point x="386" y="333"/>
      <point x="393" y="333"/>
      <point x="376" y="333" type="curve"/>
      <point x="386" y="349"/>
      <point x="398" y="373"/>
      <point x="428" y="377" type="curve" smooth="yes"/>
      <point x="451" y="381"/>
      <point x="472" y="405"/>
      <point x="475" y="431" type="curve" smooth="yes"/>
      <point x="479" y="461"/>
      <point x="453" y="487"/>
      <point x="413" y="487" type="curve" smooth="yes"/>
      <point x="401" y="487"/>
      <point x="390" y="486"/>
      <point x="372" y="484" type="curve"/>
      <point x="336" y="189" type="line"/>
      <point x="274" y="189" type="line"/>
      <point x="315" y="523" type="line"/>
      <point x="354" y="532"/>
      <point x="384" y="536"/>
      <point x="419" y="536" type="curve" smooth="yes"/>
      <point x="495" y="536"/>
      <point x="548" y="496"/>
    </contour>
  </outline>
</glyph>
<glyph name="macron" format="1">
  <advance width="500"/>
  <unicode hex="00AF"/>
  <outline>
    <contour>
      <point x="190" y="613" type="line" name="hr00"/>
      <point x="198" y="677" type="line"/>
      <point x="490" y="677" type="line"/>
      <point x="482" y="613" type="line"/>
    </contour>
  </outline>
</glyph>
<glyph name="degree" format="1">
  <advance width="337"/>
  <unicode hex="00B0"/>
  <outline>
    <contour>
      <point x="262" y="713" type="curve" name="hr00"/>
      <point x="206" y="713"/>
      <point x="173" y="665"/>
      <point x="168" y="623" type="curve"/>
      <point x="162" y="578"/>
      <point x="184" y="533"/>
      <point x="240" y="533" type="curve"/>
      <point x="299" y="533"/>
      <point x="331" y="587"/>
      <point x="335" y="623" type="curve"/>
      <point x="342" y="678"/>
      <point x="305" y="713"/>
    </contour>
    <contour>
      <point x="105" y="623" type="curve"/>
      <point x="114" y="698"/>
      <point x="185" y="763"/>
      <point x="268" y="763" type="curve"/>
      <point x="336" y="763"/>
      <point x="408" y="714"/>
      <point x="397" y="623" type="curve"/>
      <point x="386" y="533"/>
      <point x="302" y="483"/>
      <point x="234" y="483" type="curve"/>
      <point x="156" y="483"/>
      <point x="95" y="542"/>
    </contour>
  </outline>
</glyph>
<glyph name="plusminus" format="1">
  <advance width="568"/>
  <unicode hex="00B1"/>
  <outline>
    <contour>
      <point x="92" y="367" type="line" name="hr00"/>
      <point x="289" y="367" type="line"/>
      <point x="311" y="546" type="line"/>
      <point x="384" y="546" type="line"/>
      <point x="362" y="367" type="line"/>
      <point x="560" y="367" type="line"/>
      <point x="552" y="303" type="line"/>
      <point x="354" y="303" type="line"/>
      <point x="331" y="122" type="line"/>
      <point x="258" y="122" type="line"/>
      <point x="281" y="303" type="line"/>
      <point x="84" y="303" type="line"/>
    </contour>
    <contour>
      <point x="47" y="0" type="line"/>
      <point x="54" y="63" type="line"/>
      <point x="522" y="63" type="line"/>
      <point x="515" y="0" type="line"/>
    </contour>
  </outline>
</glyph>
<glyph name="twosuperior" format="1">
  <advance width="402"/>
  <unicode hex="00B2"/>
  <outline>
    <contour>
      <point x="404" y="628" type="curve" smooth="yes" name="hr00"/>
      <point x="392" y="532"/>
      <point x="267" y="455"/>
      <point x="210" y="377" type="curve"/>
      <point x="200" y="367" type="line"/>
      <point x="213" y="369" type="line"/>
      <point x="379" y="369" type="line"/>
      <point x="372" y="310" type="line"/>
      <point x="111" y="310" type="line"/>
      <point x="115" y="346" type="line"/>
      <point x="210" y="475"/>
      <point x="324" y="542"/>
      <point x="334" y="621" type="curve"/>
      <point x="339" y="666"/>
      <point x="310" y="682"/>
      <point x="268" y="682" type="curve"/>
      <point x="245" y="682"/>
      <point x="222" y="676"/>
      <point x="193" y="665" type="curve"/>
      <point x="177" y="711" type="line"/>
      <point x="215" y="731"/>
      <point x="249" y="736"/>
      <point x="281" y="736" type="curve" smooth="yes"/>
      <point x="353" y="736"/>
      <point x="412" y="697"/>
    </contour>
  </outline>
</glyph>
<glyph name="threesuperior" format="1">
  <advance width="381"/>
  <unicode hex="00B3"/>
  <outline>
    <contour>
      <point x="375" y="640" type="curve" smooth="yes"/>
      <point x="370" y="598"/>
      <point x="334" y="559"/>
      <point x="286" y="538" type="curve"/>
      <point x="330" y="527"/>
      <point x="371" y="492"/>
      <point x="364" y="432" type="curve" smooth="yes"/>
      <point x="355" y="363"/>
      <point x="286" y="301"/>
      <point x="194" y="301" type="curve" smooth="yes"/>
      <point x="148" y="301"/>
      <point x="113" y="317"/>
      <point x="95" y="329" type="curve"/>
      <point x="119" y="376" type="line"/>
      <point x="141" y="366"/>
      <point x="162" y="356"/>
      <point x="200" y="356" type="curve" smooth="yes"/>
      <point x="255" y="356"/>
      <point x="289" y="395"/>
      <point x="294" y="433" type="curve" smooth="yes"/>
      <point x="300" y="483"/>
      <point x="260" y="504"/>
      <point x="192" y="504" type="curve"/>
      <point x="192" y="548" type="line"/>
      <point x="225" y="561" type="line" smooth="yes"/>
      <point x="263" y="576"/>
      <point x="300" y="596"/>
      <point x="304" y="631" type="curve"/>
      <point x="308" y="660"/>
      <point x="289" y="680"/>
      <point x="253" y="680" type="curve" smooth="yes" name="hr01"/>
      <point x="230" y="680"/>
      <point x="203" y="674"/>
      <point x="175" y="663" type="curve"/>
      <point x="158" y="710" type="line"/>
      <point x="197" y="730"/>
      <point x="233" y="735"/>
      <point x="266" y="735" type="curve" smooth="yes"/>
      <point x="339" y="735"/>
      <point x="382" y="695"/>
    </contour>
  </outline>
</glyph>
<glyph name="mu" format="1">
  <advance width="553"/>
  <unicode hex="00B5"/>
  <outline>
    <contour>
      <point x="403" y="61" type="line"/>
      <point x="374" y="26"/>
      <point x="329" y="-10"/>
      <point x="263" y="-10" type="curve" smooth="yes"/>
      <point x="225" y="-10"/>
      <point x="194" y="3"/>
      <point x="176" y="25" type="curve"/>
      <point x="163" y="47" type="line"/>
      <point x="161" y="15" type="line"/>
      <point x="134" y="-211" type="line"/>
      <point x="48" y="-211" type="line"/>
      <point x="137" y="517" type="line"/>
      <point x="229" y="517" type="line"/>
      <point x="191" y="210" type="line" smooth="yes"/>
      <point x="182" y="131"/>
      <point x="207" y="65"/>
      <point x="281" y="65" type="curve" smooth="yes" name="hr01"/>
      <point x="343" y="65"/>
      <point x="412" y="127"/>
      <point x="421" y="199" type="curve" smooth="yes"/>
      <point x="460" y="517" type="line"/>
      <point x="553" y="517" type="line"/>
      <point x="507" y="141" type="line" smooth="yes"/>
      <point x="500" y="85"/>
      <point x="511" y="65"/>
      <point x="553" y="67" type="curve"/>
      <point x="554" y="3" type="line"/>
      <point x="531" y="-5"/>
      <point x="514" y="-8"/>
      <point x="499" y="-8" type="curve" smooth="yes"/>
      <point x="458" y="-8"/>
      <point x="426" y="10"/>
      <point x="419" y="61" type="curve"/>
      <point x="418" y="85" type="line"/>
    </contour>
  </outline>
</glyph>
<glyph name="paragraph" format="1">
  <advance width="609"/>
  <unicode hex="00B6"/>
  <outline>
    <contour>
      <point x="362" y="304" type="line" name="hr00"/>
      <point x="361" y="304"/>
      <point x="360" y="305"/>
      <point x="360" y="305" type="curve"/>
      <point x="241" y="315"/>
      <point x="152" y="397"/>
      <point x="167" y="520" type="curve" smooth="yes"/>
      <point x="182" y="636"/>
      <point x="282" y="740"/>
      <point x="443" y="740" type="curve" smooth="yes"/>
      <point x="516" y="740"/>
      <point x="566" y="735"/>
      <point x="639" y="720" type="curve"/>
      <point x="547" y="-30" type="line"/>
      <point x="474" y="-30" type="line"/>
      <point x="558" y="658" type="line"/>
      <point x="529" y="663"/>
      <point x="503" y="665"/>
      <point x="479" y="666" type="curve"/>
      <point x="394" y="-30" type="line"/>
      <point x="321" y="-30" type="line"/>
    </contour>
  </outline>
</glyph>
<glyph name="periodcentered" format="1">
  <advance width="306"/>
  <unicode hex="00B7"/>
  <outline>
    <contour>
      <point x="130" y="304" type="curve" smooth="yes" name="hr00"/>
      <point x="134" y="339"/>
      <point x="162" y="365"/>
      <point x="196" y="365" type="curve" smooth="yes"/>
      <point x="231" y="365"/>
      <point x="254" y="339"/>
      <point x="250" y="304" type="curve" smooth="yes"/>
      <point x="246" y="270"/>
      <point x="217" y="245"/>
      <point x="182" y="245" type="curve" smooth="yes"/>
      <point x="148" y="245"/>
      <point x="126" y="270"/>
    </contour>
  </outline>
</glyph>
<glyph name="cedilla" format="1">
  <advance width="500"/>
  <unicode hex="00B8"/>
  <outline>
    <contour>
      <point x="281" y="2" type="line" name="hr00"/>
      <point x="261" y="-50" type="line"/>
      <point x="299" y="-54"/>
      <point x="337" y="-82"/>
      <point x="332" y="-123" type="curve" smooth="yes"/>
      <point x="325" y="-183"/>
      <point x="262" y="-206"/>
      <point x="208" y="-206" type="curve" smooth="yes"/>
      <point x="185" y="-206"/>
      <point x="162" y="-201"/>
      <point x="132" y="-187" type="curve"/>
      <point x="151" y="-144" type="line"/>
      <point x="175" y="-154"/>
      <point x="194" y="-157"/>
      <point x="214" y="-157" type="curve" smooth="yes"/>
      <point x="237" y="-157"/>
      <point x="268" y="-150"/>
      <point x="271" y="-126" type="curve" smooth="yes"/>
      <point x="274" y="-101"/>
      <point x="248" y="-89"/>
      <point x="201" y="-84" type="curve"/>
      <point x="233" y="-2" type="line"/>
    </contour>
  </outline>
</glyph>
<glyph name="ordmasculine" format="1">
  <advance width="430"/>
  <unicode hex="00BA"/>
  <outline>
    <contour>
      <point x="250" y="294" type="curve" name="hr00"/>
      <point x="149" y="294"/>
      <point x="90" y="368"/>
      <point x="104" y="483" type="curve"/>
      <point x="117" y="587"/>
      <point x="191" y="671"/>
      <point x="296" y="671" type="curve"/>
      <point x="386" y="671"/>
      <point x="457" y="609"/>
      <point x="442" y="483" type="curve"/>
      <point x="428" y="367"/>
      <point x="348" y="294"/>
    </contour>
    <contour>
      <point x="177" y="483" type="curve"/>
      <point x="166" y="394"/>
      <point x="201" y="349"/>
      <point x="256" y="349" type="curve"/>
      <point x="320" y="349"/>
      <point x="361" y="412"/>
      <point x="370" y="483" type="curve"/>
      <point x="378" y="547"/>
      <point x="362" y="617"/>
      <point x="289" y="617" type="curve"/>
      <point x="224" y="617"/>
      <point x="185" y="552"/>
    </contour>
  </outline>
</glyph>
<glyph name="guillemotright" format="1">
  <advance width="613"/>
  <unicode hex="00BB"/>
  <outline>
    <contour>
      <point x="120" y="50" type="line" name="hr00"/>
      <point x="81" y="93" type="line"/>
      <point x="245" y="258" type="line"/>
      <point x="121" y="423" type="line"/>
      <point x="171" y="466" type="line"/>
      <point x="361" y="258" type="line"/>
    </contour>
    <contour>
      <point x="370" y="50" type="line"/>
      <point x="331" y="93" type="line"/>
      <point x="495" y="258" type="line"/>
      <point x="371" y="423" type="line"/>
      <point x="421" y="466" type="line"/>
      <point x="611" y="258" type="line"/>
    </contour>
  </outline>
</glyph>
<glyph name="onequarter" format="1">
  <advance width="698"/>
  <unicode hex="00BC"/>
  <outline>
    <contour>
      <point x="89" y="0" type="line" name="hr00"/>
      <point x="614" y="727" type="line"/>
      <point x="676" y="727" type="line"/>
      <point x="151" y="0" type="line"/>
    </contour>
    <contour>
      <point x="159" y="309" type="line"/>
      <point x="201" y="645" type="line"/>
      <point x="135" y="613" type="line"/>
      <point x="114" y="660" type="line"/>
      <point x="247" y="727" type="line"/>
      <point x="280" y="727" type="line"/>
      <point x="228" y="309" type="line"/>
    </contour>
    <contour>
      <point x="586" y="423" type="line"/>
      <point x="659" y="423" type="line"/>
      <point x="625" y="143" type="line"/>
      <point x="673" y="143" type="line"/>
      <point x="666" y="89" type="line"/>
      <point x="618" y="89" type="line"/>
      <point x="608" y="0" type="line"/>
      <point x="544" y="0" type="line"/>
      <point x="582" y="312" type="line"/>
      <point x="587" y="336" type="line"/>
      <point x="571" y="314" type="line"/>
      <point x="440" y="154" type="line"/>
      <point x="428" y="142" type="line"/>
      <point x="445" y="144" type="line"/>
      <point x="460" y="144" type="line"/>
      <point x="500" y="144"/>
      <point x="518" y="110"/>
      <point x="525" y="89" type="curve"/>
      <point x="358" y="89" type="line"/>
      <point x="365" y="145" type="line"/>
    </contour>
  </outline>
</glyph>
<glyph name="onehalf" format="1">
  <advance width="763"/>
  <unicode hex="00BD"/>
  <outline>
    <contour>
      <point x="89" y="0" type="line" name="hr00"/>
      <point x="614" y="727" type="line"/>
      <point x="676" y="727" type="line"/>
      <point x="151" y="0" type="line"/>
    </contour>
    <contour>
      <point x="159" y="309" type="line"/>
      <point x="201" y="645" type="line"/>
      <point x="135" y="613" type="line"/>
      <point x="114" y="660" type="line"/>
      <point x="247" y="727" type="line"/>
      <point x="280" y="727" type="line"/>
      <point x="228" y="309" type="line"/>
    </contour>
    <contour>
      <point x="719" y="318" type="curve" smooth="yes"/>
      <point x="707" y="222"/>
      <point x="582" y="145"/>
      <point x="525" y="67" type="curve"/>
      <point x="514" y="57" type="line"/>
      <point x="528" y="59" type="line"/>
      <point x="694" y="59" type="line"/>
      <point x="687" y="0" type="line"/>
      <point x="426" y="0" type="line"/>
      <point x="430" y="36" type="line"/>
      <point x="525" y="165"/>
      <point x="639" y="232"/>
      <point x="649" y="311" type="curve"/>
      <point x="654" y="356"/>
      <point x="625" y="372"/>
      <point x="583" y="372" type="curve"/>
      <point x="560" y="372"/>
      <point x="536" y="366"/>
      <point x="508" y="355" type="curve"/>
      <point x="492" y="401" type="line"/>
      <point x="530" y="421"/>
      <point x="564" y="426"/>
      <point x="596" y="426" type="curve" smooth="yes"/>
      <point x="668" y="426"/>
      <point x="727" y="387"/>
    </contour>
  </outline>
</glyph>
<glyph name="threequarters" format="1">
  <advance width="716"/>
  <unicode hex="00BE"/>
  <outline>
    <contour>
      <point x="127" y="0" type="line"/>
      <point x="652" y="727" type="line"/>
      <point x="714" y="727" type="line"/>
      <point x="189" y="0" type="line"/>
    </contour>
    <contour>
      <point x="624" y="423" type="line"/>
      <point x="697" y="423" type="line"/>
      <point x="663" y="143" type="line"/>
      <point x="711" y="143" type="line"/>
      <point x="704" y="89" type="line"/>
      <point x="656" y="89" type="line"/>
      <point x="646" y="0" type="line"/>
      <point x="582" y="0" type="line"/>
      <point x="622" y="330" type="line"/>
      <point x="470" y="144" type="line"/>
      <point x="498" y="144" type="line"/>
      <point x="538" y="144"/>
      <point x="556" y="110"/>
      <point x="563" y="89" type="curve"/>
      <point x="396" y="89" type="line"/>
      <point x="403" y="145" type="line"/>
    </contour>
    <contour>
      <point x="344" y="640" type="curve" smooth="yes"/>
      <point x="339" y="598"/>
      <point x="303" y="559"/>
      <point x="255" y="538" type="curve"/>
      <point x="299" y="527"/>
      <point x="340" y="492"/>
      <point x="333" y="432" type="curve" smooth="yes"/>
      <point x="324" y="363"/>
      <point x="255" y="301"/>
      <point x="163" y="301" type="curve" smooth="yes"/>
      <point x="117" y="301"/>
      <point x="82" y="317"/>
      <point x="64" y="329" type="curve"/>
      <point x="88" y="376" type="line"/>
      <point x="110" y="366"/>
      <point x="131" y="356"/>
      <point x="169" y="356" type="curve" smooth="yes"/>
      <point x="224" y="356"/>
      <point x="258" y="395"/>
      <point x="263" y="433" type="curve" smooth="yes"/>
      <point x="269" y="483"/>
      <point x="229" y="504"/>
      <point x="161" y="504" type="curve" name="hr01"/>
      <point x="161" y="548" type="line"/>
      <point x="194" y="561" type="line" smooth="yes"/>
      <point x="232" y="576"/>
      <point x="269" y="596"/>
      <point x="273" y="631" type="curve"/>
      <point x="277" y="660"/>
      <point x="258" y="680"/>
      <point x="222" y="680" type="curve" smooth="yes" name="hr02"/>
      <point x="199" y="680"/>
      <point x="172" y="674"/>
      <point x="144" y="663" type="curve"/>
      <point x="127" y="710" type="line"/>
      <point x="166" y="730"/>
      <point x="202" y="735"/>
      <point x="235" y="735" type="curve" smooth="yes"/>
      <point x="308" y="735"/>
      <point x="351" y="695"/>
    </contour>
  </outline>
</glyph>
<glyph name="questiondown" format="1">
  <advance width="583"/>
  <unicode hex="00BF"/>
  <outline>
    <contour>
      <point x="274" y="-220" type="curve" smooth="yes" name="hr00"/>
      <point x="159" y="-220"/>
      <point x="89" y="-154"/>
      <point x="99" y="-70" type="curve" smooth="yes"/>
      <point x="119" y="97"/>
      <point x="320" y="149"/>
      <point x="342" y="332" type="curve"/>
      <point x="414" y="332" type="line"/>
      <point x="388" y="115"/>
      <point x="215" y="79"/>
      <point x="199" y="-55" type="curve" smooth="yes"/>
      <point x="192" y="-108"/>
      <point x="231" y="-148"/>
      <point x="293" y="-148" type="curve"/>
      <point x="331" y="-148"/>
      <point x="375" y="-141"/>
      <point x="432" y="-112" type="curve"/>
      <point x="449" y="-179" type="line"/>
      <point x="383" y="-212"/>
      <point x="329" y="-220"/>
    </contour>
    <contour>
      <point x="457" y="473" type="curve" smooth="yes"/>
      <point x="452" y="438"/>
      <point x="423" y="412"/>
      <point x="389" y="412" type="curve" smooth="yes"/>
      <point x="354" y="412"/>
      <point x="331" y="438"/>
      <point x="336" y="473" type="curve" smooth="yes"/>
      <point x="340" y="507"/>
      <point x="369" y="532"/>
      <point x="404" y="532" type="curve" smooth="yes"/>
      <point x="438" y="532"/>
      <point x="461" y="507"/>
    </contour>
  </outline>
</glyph>
<glyph name="Aacute" format="1">
  <advance width="687"/>
  <unicode hex="00C1"/>
  <outline>
    <contour>
      <point x="479" y="727" type="line" name="hr00"/>
      <point x="652" y="0" type="line"/>
      <point x="550" y="0" type="line"/>
      <point x="414" y="605" type="line"/>
      <point x="253" y="265" type="line"/>
      <point x="239" y="244" type="line"/>
      <point x="252" y="246" type="line"/>
      <point x="387" y="246" type="line" smooth="yes"/>
      <point x="435" y="246"/>
      <point x="454" y="212"/>
      <point x="463" y="174" type="curve"/>
      <point x="211" y="174" type="line"/>
      <point x="130" y="0" type="line"/>
      <point x="35" y="0" type="line"/>
      <point x="386" y="727" type="line"/>
    </contour>
    <contour>
      <point x="489" y="792" type="line"/>
      <point x="458" y="763"/>
      <point x="421" y="758"/>
      <point x="388" y="766" type="curve"/>
      <point x="492" y="890" type="line"/>
      <point x="589" y="890" type="line"/>
    </contour>
  </outline>
</glyph>
<glyph name="Atilde" format="1">
  <advance width="687"/>
  <unicode hex="00C3"/>
  <outline>
    <contour>
      <point x="479" y="727" type="line"/>
      <point x="652" y="0" type="line"/>
      <point x="550" y="0" type="line"/>
      <point x="414" y="605" type="line"/>
      <point x="253" y="265" type="line"/>
      <point x="239" y="244" type="line"/>
      <point x="252" y="246" type="line"/>
      <point x="387" y="246" type="line" smooth="yes"/>
      <point x="435" y="246"/>
      <point x="454" y="212"/>
      <point x="463" y="174" type="curve"/>
      <point x="211" y="174" type="line"/>
      <point x="130" y="0" type="line"/>
      <point x="35" y="0" type="line"/>
      <point x="386" y="727" type="line"/>
    </contour>
    <contour>
      <point x="298" y="783" type="line"/>
      <point x="309" y="858"/>
      <point x="352" y="890"/>
      <point x="400" y="891" type="curve" smooth="yes"/>
      <point x="424" y="891"/>
      <point x="445" y="883"/>
      <point x="461" y="867" type="curve" smooth="yes"/>
      <point x="477" y="851"/>
      <point x="485" y="835"/>
      <point x="511" y="835" type="curve" smooth="yes"/>
      <point x="529" y="835"/>
      <point x="542" y="856"/>
      <point x="549" y="893" type="curve" name="hr01"/>
      <point x="601" y="887" type="line"/>
      <point x="587" y="803"/>
      <point x="542" y="779"/>
      <point x="504" y="779" type="curve" smooth="yes"/>
      <point x="478" y="779"/>
      <point x="457" y="786"/>
      <point x="442" y="802" type="curve" smooth="yes"/>
      <point x="425" y="818"/>
      <point x="417" y="835"/>
      <point x="394" y="835" type="curve" smooth="yes"/>
      <point x="377" y="835"/>
      <point x="360" y="819"/>
      <point x="352" y="777" type="curve"/>
    </contour>
  </outline>
</glyph>
<glyph name="Adieresis" format="1">
  <advance width="687"/>
  <unicode hex="00C4"/>
  <outline>
    <contour>
      <point x="479" y="727" type="line" name="hr00"/>
      <point x="652" y="0" type="line"/>
      <point x="550" y="0" type="line"/>
      <point x="414" y="605" type="line"/>
      <point x="253" y="265" type="line"/>
      <point x="239" y="244" type="line"/>
      <point x="252" y="246" type="line"/>
      <point x="387" y="246" type="line" smooth="yes"/>
      <point x="435" y="246"/>
      <point x="454" y="212"/>
      <point x="463" y="174" type="curve"/>
      <point x="211" y="174" type="line"/>
      <point x="130" y="0" type="line"/>
      <point x="35" y="0" type="line"/>
      <point x="386" y="727" type="line"/>
    </contour>
    <contour>
      <point x="297" y="840" type="curve" smooth="yes"/>
      <point x="300" y="869"/>
      <point x="327" y="892"/>
      <point x="355" y="892" type="curve" smooth="yes"/>
      <point x="384" y="892"/>
      <point x="405" y="869"/>
      <point x="402" y="840" type="curve" smooth="yes"/>
      <point x="398" y="811"/>
      <point x="371" y="788"/>
      <point x="342" y="788" type="curve" smooth="yes"/>
      <point x="314" y="788"/>
      <point x="293" y="811"/>
    </contour>
    <contour>
      <point x="491" y="840" type="curve" smooth="yes"/>
      <point x="494" y="869"/>
      <point x="521" y="892"/>
      <point x="550" y="892" type="curve" smooth="yes"/>
      <point x="578" y="892"/>
      <point x="599" y="869"/>
      <point x="596" y="840" type="curve" smooth="yes"/>
      <point x="592" y="811"/>
      <point x="565" y="788"/>
      <point x="537" y="788" type="curve" smooth="yes"/>
      <point x="508" y="788"/>
      <point x="487" y="811"/>
    </contour>
  </outline>
</glyph>
<glyph name="Aring" format="1">
  <advance width="687"/>
  <unicode hex="00C5"/>
  <outline>
    <contour>
      <point x="35" y="0" type="line" name="hr00"/>
      <point x="383" y="723" type="line"/>
      <point x="352" y="737"/>
      <point x="336" y="766"/>
      <point x="340" y="801" type="curve" smooth="yes"/>
      <point x="346" y="853"/>
      <point x="392" y="891"/>
      <point x="450" y="891" type="curve" smooth="yes"/>
      <point x="509" y="891"/>
      <point x="542" y="854"/>
      <point x="536" y="802" type="curve" smooth="yes"/>
      <point x="532" y="768"/>
      <point x="509" y="740"/>
      <point x="479" y="726" type="curve"/>
      <point x="652" y="0" type="line"/>
      <point x="550" y="0" type="line"/>
      <point x="414" y="605" type="line"/>
      <point x="253" y="265" type="line"/>
      <point x="239" y="244" type="line"/>
      <point x="252" y="246" type="line"/>
      <point x="387" y="246" type="line" smooth="yes"/>
      <point x="435" y="246"/>
      <point x="454" y="212"/>
      <point x="463" y="174" type="curve"/>
      <point x="211" y="174" type="line"/>
      <point x="130" y="0" type="line"/>
    </contour>
    <contour>
      <point x="432" y="752" type="curve" smooth="yes"/>
      <point x="463" y="752"/>
      <point x="485" y="774"/>
      <point x="488" y="803" type="curve" smooth="yes"/>
      <point x="492" y="832"/>
      <point x="475" y="854"/>
      <point x="444" y="854" type="curve" smooth="yes"/>
      <point x="416" y="854"/>
      <point x="394" y="832"/>
      <point x="390" y="801" type="curve" smooth="yes"/>
      <point x="387" y="776"/>
      <point x="403" y="752"/>
    </contour>
  </outline>
</glyph>
<glyph name="AE" format="1">
  <advance width="975"/>
  <unicode hex="00C6"/>
  <outline>
    <contour>
      <point x="512" y="605" type="line" name="hr00"/>
      <point x="515" y="645" type="line"/>
      <point x="495" y="605" type="line"/>
      <point x="283" y="265" type="line"/>
      <point x="266" y="244" type="line"/>
      <point x="285" y="246" type="line"/>
      <point x="413" y="246" type="line" smooth="yes"/>
      <point x="461" y="246"/>
      <point x="480" y="212"/>
      <point x="489" y="174" type="curve"/>
      <point x="228" y="174" type="line"/>
      <point x="120" y="0" type="line"/>
      <point x="21" y="0" type="line"/>
      <point x="479" y="727" type="line"/>
      <point x="933" y="727" type="line"/>
      <point x="924" y="655" type="line"/>
      <point x="600" y="655" type="line"/>
      <point x="618" y="72" type="line"/>
      <point x="922" y="72" type="line"/>
      <point x="914" y="0" type="line"/>
      <point x="533" y="0" type="line"/>
    </contour>
    <contour>
      <point x="905" y="416" type="line"/>
      <point x="896" y="346" type="line"/>
      <point x="644" y="346" type="line"/>
      <point x="661" y="384"/>
      <point x="687" y="416"/>
      <point x="735" y="416" type="curve"/>
    </contour>
  </outline>
</glyph>
<glyph name="Ccedilla" format="1">
  <advance width="652"/>
  <unicode hex="00C7"/>
  <outline>
    <contour>
      <point x="432" y="-12" type="curve" smooth="yes" name="hr00"/>
      <point x="419" y="-12"/>
      <point x="406" y="-11"/>
      <point x="394" y="-10" type="curve"/>
      <point x="379" y="-50" type="line"/>
      <point x="417" y="-54"/>
      <point x="455" y="-82"/>
      <point x="450" y="-123" type="curve" smooth="yes"/>
      <point x="443" y="-183"/>
      <point x="380" y="-206"/>
      <point x="326" y="-206" type="curve" smooth="yes"/>
      <point x="303" y="-206"/>
      <point x="280" y="-201"/>
      <point x="250" y="-187" type="curve"/>
      <point x="269" y="-144" type="line"/>
      <point x="293" y="-154"/>
      <point x="312" y="-157"/>
      <point x="332" y="-157" type="curve" smooth="yes"/>
      <point x="355" y="-157"/>
      <point x="386" y="-150"/>
      <point x="389" y="-126" type="curve" smooth="yes"/>
      <point x="392" y="-101"/>
      <point x="366" y="-89"/>
      <point x="319" y="-84" type="curve"/>
      <point x="350" y="-4" type="line"/>
      <point x="191" y="29"/>
      <point x="92" y="165"/>
      <point x="116" y="362" type="curve" smooth="yes"/>
      <point x="143" y="586"/>
      <point x="319" y="740"/>
      <point x="524" y="740" type="curve" smooth="yes"/>
      <point x="580" y="740"/>
      <point x="639" y="729"/>
      <point x="697" y="706" type="curve"/>
      <point x="663" y="641" type="line"/>
      <point x="608" y="660"/>
      <point x="561" y="667"/>
      <point x="515" y="667" type="curve" smooth="yes"/>
      <point x="377" y="667"/>
      <point x="243" y="566"/>
      <point x="218" y="362" type="curve" smooth="yes"/>
      <point x="194" y="166"/>
      <point x="303" y="60"/>
      <point x="441" y="60" type="curve" smooth="yes"/>
      <point x="487" y="60"/>
      <point x="538" y="71"/>
      <point x="597" y="99" type="curve"/>
      <point x="615" y="34" type="line"/>
      <point x="549" y="1"/>
      <point x="488" y="-12"/>
    </contour>
  </outline>
</glyph>
<glyph name="Egrave" format="1">
  <advance width="577"/>
  <unicode hex="00C8"/>
  <outline>
    <contour>
      <point x="178" y="727" type="line"/>
      <point x="592" y="727" type="line"/>
      <point x="583" y="655" type="line"/>
      <point x="264" y="655" type="line"/>
      <point x="192" y="72" type="line"/>
      <point x="526" y="72" type="line"/>
      <point x="518" y="0" type="line"/>
      <point x="89" y="0" type="line"/>
    </contour>
    <contour>
      <point x="520" y="416" type="line"/>
      <point x="511" y="346" type="line"/>
      <point x="264" y="346" type="line"/>
      <point x="283" y="384"/>
      <point x="311" y="416"/>
      <point x="359" y="416" type="curve"/>
    </contour>
    <contour>
      <point x="297" y="890" type="line" name="hr01"/>
      <point x="391" y="890" type="line"/>
      <point x="450" y="766" type="line"/>
      <point x="415" y="758"/>
      <point x="376" y="763"/>
      <point x="358" y="792" type="curve"/>
    </contour>
  </outline>
</glyph>
<glyph name="Eacute" format="1">
  <advance width="577"/>
  <unicode hex="00C9"/>
  <outline>
    <contour>
      <point x="178" y="727" type="line"/>
      <point x="592" y="727" type="line"/>
      <point x="583" y="655" type="line"/>
      <point x="264" y="655" type="line"/>
      <point x="192" y="72" type="line"/>
      <point x="526" y="72" type="line"/>
      <point x="518" y="0" type="line"/>
      <point x="89" y="0" type="line"/>
    </contour>
    <contour>
      <point x="520" y="416" type="line"/>
      <point x="511" y="346" type="line"/>
      <point x="264" y="346" type="line"/>
      <point x="283" y="384"/>
      <point x="311" y="416"/>
      <point x="359" y="416" type="curve"/>
    </contour>
    <contour>
      <point x="444" y="792" type="line"/>
      <point x="413" y="763"/>
      <point x="376" y="758"/>
      <point x="343" y="766" type="curve"/>
      <point x="447" y="890" type="line" name="hr01"/>
      <point x="544" y="890" type="line"/>
    </contour>
  </outline>
</glyph>
<glyph name="Ecircumflex" format="1">
  <advance width="577"/>
  <unicode hex="00CA"/>
  <outline>
    <contour>
      <point x="178" y="727" type="line" name="hr00"/>
      <point x="592" y="727" type="line"/>
      <point x="583" y="655" type="line"/>
      <point x="264" y="655" type="line"/>
      <point x="192" y="72" type="line"/>
      <point x="526" y="72" type="line"/>
      <point x="518" y="0" type="line"/>
      <point x="89" y="0" type="line"/>
    </contour>
    <contour>
      <point x="520" y="416" type="line"/>
      <point x="511" y="346" type="line"/>
      <point x="264" y="346" type="line"/>
      <point x="283" y="384"/>
      <point x="311" y="416"/>
      <point x="359" y="416" type="curve"/>
    </contour>
    <contour>
      <point x="440" y="890" type="line"/>
      <point x="536" y="770" type="line"/>
      <point x="483" y="762" type="line"/>
      <point x="402" y="821" type="line"/>
      <point x="307" y="761" type="line"/>
      <point x="259" y="770" type="line"/>
      <point x="383" y="890" type="line"/>
    </contour>
  </outline>
</glyph>
<glyph name="Edieresis" format="1">
  <advance width="577"/>
  <unicode hex="00CB"/>
  <outline>
    <contour>
      <point x="178" y="727" type="line" name="hr00"/>
      <point x="592" y="727" type="line"/>
      <point x="583" y="655" type="line"/>
      <point x="264" y="655" type="line"/>
      <point x="192" y="72" type="line"/>
      <point x="526" y="72" type="line"/>
      <point x="518" y="0" type="line"/>
      <point x="89" y="0" type="line"/>
    </contour>
    <contour>
      <point x="520" y="416" type="line"/>
      <point x="511" y="346" type="line"/>
      <point x="264" y="346" type="line"/>
      <point x="283" y="384"/>
      <point x="311" y="416"/>
      <point x="359" y="416" type="curve"/>
    </contour>
    <contour>
      <point x="254" y="840" type="curve" smooth="yes"/>
      <point x="257" y="869"/>
      <point x="284" y="892"/>
      <point x="312" y="892" type="curve" smooth="yes"/>
      <point x="341" y="892"/>
      <point x="362" y="869"/>
      <point x="359" y="840" type="curve" smooth="yes"/>
      <point x="355" y="811"/>
      <point x="328" y="788"/>
      <point x="299" y="788" type="curve" smooth="yes"/>
      <point x="271" y="788"/>
      <point x="250" y="811"/>
    </contour>
    <contour>
      <point x="448" y="840" type="curve" smooth="yes"/>
      <point x="451" y="869"/>
      <point x="478" y="892"/>
      <point x="507" y="892" type="curve" smooth="yes"/>
      <point x="535" y="892"/>
      <point x="556" y="869"/>
      <point x="553" y="840" type="curve" smooth="yes"/>
      <point x="549" y="811"/>
      <point x="522" y="788"/>
      <point x="494" y="788" type="curve" smooth="yes"/>
      <point x="465" y="788"/>
      <point x="444" y="811"/>
    </contour>
  </outline>
</glyph>
<glyph name="Igrave" format="1">
  <advance width="279"/>
  <unicode hex="00CC"/>
  <outline>
    <contour>
      <point x="190" y="0" type="line" name="hr00"/>
      <point x="98" y="0" type="line"/>
      <point x="187" y="727" type="line"/>
      <point x="279" y="727" type="line"/>
    </contour>
    <contour>
      <point x="136" y="890" type="line"/>
      <point x="230" y="890" type="line"/>
      <point x="289" y="766" type="line"/>
      <point x="254" y="758"/>
      <point x="215" y="763"/>
      <point x="197" y="792" type="curve"/>
    </contour>
  </outline>
</glyph>
<glyph name="Iacute" format="1">
  <advance width="321"/>
  <unicode hex="00CD"/>
  <outline>
    <contour>
      <point x="181" y="0" type="line" name="hr00"/>
      <point x="89" y="0" type="line"/>
      <point x="178" y="727" type="line"/>
      <point x="270" y="727" type="line"/>
    </contour>
    <contour>
      <point x="279" y="792" type="line"/>
      <point x="248" y="763"/>
      <point x="211" y="758"/>
      <point x="178" y="766" type="curve"/>
      <point x="282" y="890" type="line"/>
      <point x="379" y="890" type="line"/>
    </contour>
  </outline>
</glyph>
<glyph name="Icircumflex" format="1">
  <advance width="321"/>
  <unicode hex="00CE"/>
  <outline>
    <contour>
      <point x="205" y="0" type="line" name="hr00"/>
      <point x="113" y="0" type="line"/>
      <point x="202" y="727" type="line"/>
      <point x="294" y="727" type="line"/>
    </contour>
    <contour>
      <point x="297" y="890" type="line"/>
      <point x="393" y="770" type="line"/>
      <point x="340" y="762" type="line"/>
      <point x="259" y="821" type="line"/>
      <point x="164" y="761" type="line"/>
      <point x="116" y="770" type="line"/>
      <point x="240" y="890" type="line"/>
    </contour>
  </outline>
</glyph>
<glyph name="Idieresis" format="1">
  <advance width="350"/>
  <unicode hex="00CF"/>
  <outline>
    <contour>
      <point x="218" y="0" type="line" name="hr00"/>
      <point x="126" y="0" type="line"/>
      <point x="215" y="727" type="line"/>
      <point x="307" y="727" type="line"/>
    </contour>
    <contour>
      <point x="126" y="840" type="curve" smooth="yes"/>
      <point x="129" y="869"/>
      <point x="156" y="892"/>
      <point x="184" y="892" type="curve" smooth="yes"/>
      <point x="213" y="892"/>
      <point x="234" y="869"/>
      <point x="231" y="840" type="curve" smooth="yes"/>
      <point x="227" y="811"/>
      <point x="200" y="788"/>
      <point x="171" y="788" type="curve" smooth="yes"/>
      <point x="143" y="788"/>
      <point x="122" y="811"/>
    </contour>
    <contour>
      <point x="320" y="840" type="curve" smooth="yes"/>
      <point x="323" y="869"/>
      <point x="350" y="892"/>
      <point x="379" y="892" type="curve" smooth="yes"/>
      <point x="407" y="892"/>
      <point x="428" y="869"/>
      <point x="425" y="840" type="curve" smooth="yes"/>
      <point x="421" y="811"/>
      <point x="394" y="788"/>
      <point x="366" y="788" type="curve" smooth="yes"/>
      <point x="337" y="788"/>
      <point x="316" y="811"/>
    </contour>
  </outline>
</glyph>
<glyph name="Eth" format="1">
  <advance width="713"/>
  <unicode hex="00D0"/>
  <outline>
    <contour>
      <point x="54" y="388" type="line"/>
      <point x="136" y="388" type="line"/>
      <point x="176" y="716" type="line"/>
      <point x="241" y="731"/>
      <point x="328" y="740"/>
      <point x="386" y="740" type="curve" smooth="yes"/>
      <point x="640" y="740"/>
      <point x="765" y="589"/>
      <point x="737" y="365" type="curve" smooth="yes"/>
      <point x="711" y="147"/>
      <point x="540" y="-12"/>
      <point x="362" y="-12" type="curve" smooth="yes"/>
      <point x="317" y="-12"/>
      <point x="280" y="-9"/>
      <point x="224" y="5" type="curve"/>
      <point x="247" y="40"/>
      <point x="281" y="66"/>
      <point x="325" y="62" type="curve" smooth="yes"/>
      <point x="346" y="60"/>
      <point x="354" y="60"/>
      <point x="370" y="60" type="curve" smooth="yes"/>
      <point x="498" y="60"/>
      <point x="615" y="198"/>
      <point x="635" y="365" type="curve" smooth="yes"/>
      <point x="659" y="558"/>
      <point x="574" y="667"/>
      <point x="377" y="667" type="curve" smooth="yes"/>
      <point x="337" y="667"/>
      <point x="297" y="664"/>
      <point x="265" y="660" type="curve"/>
      <point x="231" y="388" type="line"/>
      <point x="458" y="388" type="line"/>
      <point x="450" y="323" type="line"/>
      <point x="223" y="323" type="line"/>
      <point x="184" y="0" type="line" name="hr01"/>
      <point x="89" y="0" type="line"/>
      <point x="128" y="323" type="line"/>
      <point x="46" y="323" type="line"/>
    </contour>
  </outline>
</glyph>
<glyph name="Ntilde" format="1">
  <advance width="749"/>
  <unicode hex="00D1"/>
  <outline>
    <contour>
      <point x="268" y="581" type="line"/>
      <point x="258" y="615" type="line"/>
      <point x="256" y="581" type="line"/>
      <point x="185" y="0" type="line"/>
      <point x="104" y="0" type="line"/>
      <point x="193" y="727" type="line"/>
      <point x="288" y="727" type="line"/>
      <point x="572" y="163" type="line"/>
      <point x="579" y="130" type="line"/>
      <point x="582" y="165" type="line"/>
      <point x="651" y="727" type="line"/>
      <point x="735" y="727" type="line"/>
      <point x="646" y="0" type="line"/>
      <point x="561" y="0" type="line"/>
    </contour>
    <contour>
      <point x="329" y="783" type="line"/>
      <point x="340" y="858"/>
      <point x="383" y="890"/>
      <point x="431" y="891" type="curve" smooth="yes"/>
      <point x="455" y="891"/>
      <point x="476" y="883"/>
      <point x="492" y="867" type="curve" smooth="yes"/>
      <point x="508" y="851"/>
      <point x="516" y="835"/>
      <point x="542" y="835" type="curve" smooth="yes"/>
      <point x="560" y="835"/>
      <point x="573" y="856"/>
      <point x="580" y="893" type="curve" name="hr01"/>
      <point x="632" y="887" type="line"/>
      <point x="618" y="803"/>
      <point x="573" y="779"/>
      <point x="535" y="779" type="curve" smooth="yes"/>
      <point x="509" y="779"/>
      <point x="488" y="786"/>
      <point x="473" y="802" type="curve" smooth="yes"/>
      <point x="456" y="818"/>
      <point x="448" y="835"/>
      <point x="425" y="835" type="curve" smooth="yes"/>
      <point x="408" y="835"/>
      <point x="391" y="819"/>
      <point x="383" y="777" type="curve"/>
    </contour>
  </outline>
</glyph>
<glyph name="Oacute" format="1">
  <advance width="791"/>
  <unicode hex="00D3"/>
  <outline>
    <contour>
      <point x="763" y="364" type="curve"/>
      <point x="735" y="133"/>
      <point x="561" y="-14"/>
      <point x="380" y="-14" type="curve" smooth="yes"/>
      <point x="193" y="-14"/>
      <point x="60" y="128"/>
      <point x="89" y="364" type="curve" smooth="yes"/>
      <point x="118" y="595"/>
      <point x="293" y="742"/>
      <point x="473" y="742" type="curve" smooth="yes"/>
      <point x="662" y="742"/>
      <point x="792" y="599"/>
    </contour>
    <contour>
      <point x="661" y="364" type="curve"/>
      <point x="684" y="552"/>
      <point x="593" y="669"/>
      <point x="464" y="669" type="curve" smooth="yes"/>
      <point x="335" y="669"/>
      <point x="214" y="552"/>
      <point x="191" y="364" type="curve" smooth="yes"/>
      <point x="168" y="174"/>
      <point x="261" y="58"/>
      <point x="389" y="58" type="curve" smooth="yes"/>
      <point x="518" y="58"/>
      <point x="638" y="174"/>
    </contour>
    <contour>
      <point x="540" y="792" type="line"/>
      <point x="509" y="763"/>
      <point x="472" y="758"/>
      <point x="439" y="766" type="curve"/>
      <point x="543" y="890" type="line" name="hr01"/>
      <point x="640" y="890" type="line"/>
    </contour>
  </outline>
</glyph>
<glyph name="Ocircumflex" format="1">
  <advance width="791"/>
  <unicode hex="00D4"/>
  <outline>
    <contour>
      <point x="763" y="364" type="curve" name="hr00"/>
      <point x="735" y="133"/>
      <point x="561" y="-14"/>
      <point x="380" y="-14" type="curve" smooth="yes"/>
      <point x="193" y="-14"/>
      <point x="60" y="128"/>
      <point x="89" y="364" type="curve" smooth="yes"/>
      <point x="118" y="595"/>
      <point x="293" y="742"/>
      <point x="473" y="742" type="curve" smooth="yes"/>
      <point x="662" y="742"/>
      <point x="792" y="599"/>
    </contour>
    <contour>
      <point x="661" y="364" type="curve"/>
      <point x="684" y="552"/>
      <point x="593" y="669"/>
      <point x="464" y="669" type="curve" smooth="yes"/>
      <point x="335" y="669"/>
      <point x="214" y="552"/>
      <point x="191" y="364" type="curve" smooth="yes"/>
      <point x="168" y="174"/>
      <point x="261" y="58"/>
      <point x="389" y="58" type="curve" smooth="yes"/>
      <point x="518" y="58"/>
      <point x="638" y="174"/>
    </contour>
    <contour>
      <point x="521" y="890" type="line"/>
      <point x="617" y="770" type="line"/>
      <point x="564" y="762" type="line"/>
      <point x="483" y="821" type="line"/>
      <point x="388" y="761" type="line"/>
      <point x="340" y="770" type="line"/>
      <point x="464" y="890" type="line"/>
    </contour>
  </outline>
</glyph>
<glyph name="Otilde" format="1">
  <advance width="791"/>
  <unicode hex="00D5"/>
  <outline>
    <contour>
      <point x="763" y="364" type="curve"/>
      <point x="735" y="133"/>
      <point x="561" y="-14"/>
      <point x="380" y="-14" type="curve" smooth="yes"/>
      <point x="193" y="-14"/>
      <point x="60" y="128"/>
      <point x="89" y="364" type="curve" smooth="yes"/>
      <point x="118" y="595"/>
      <point x="293" y="742"/>
      <point x="473" y="742" type="curve" smooth="yes"/>
      <point x="662" y="742"/>
      <point x="792" y="599"/>
    </contour>
    <contour>
      <point x="661" y="364" type="curve"/>
      <point x="684" y="552"/>
      <point x="593" y="669"/>
      <point x="464" y="669" type="curve" smooth="yes"/>
      <point x="335" y="669"/>
      <point x="214" y="552"/>
      <point x="191" y="364" type="curve" smooth="yes"/>
      <point x="168" y="174"/>
      <point x="261" y="58"/>
      <point x="389" y="58" type="curve" smooth="yes"/>
      <point x="518" y="58"/>
      <point x="638" y="174"/>
    </contour>
    <contour>
      <point x="338" y="783" type="line"/>
      <point x="349" y="858"/>
      <point x="392" y="890"/>
      <point x="440" y="891" type="curve" smooth="yes"/>
      <point x="464" y="891"/>
      <point x="485" y="883"/>
      <point x="501" y="867" type="curve" smooth="yes"/>
      <point x="517" y="851"/>
      <point x="525" y="835"/>
      <point x="551" y="835" type="curve" smooth="yes"/>
      <point x="569" y="835"/>
      <point x="582" y="856"/>
      <point x="589" y="893" type="curve" name="hr01"/>
      <point x="641" y="887" type="line"/>
      <point x="627" y="803"/>
      <point x="582" y="779"/>
      <point x="544" y="779" type="curve" smooth="yes"/>
      <point x="518" y="779"/>
      <point x="497" y="786"/>
      <point x="482" y="802" type="curve" smooth="yes"/>
      <point x="465" y="818"/>
      <point x="457" y="835"/>
      <point x="434" y="835" type="curve" smooth="yes"/>
      <point x="417" y="835"/>
      <point x="400" y="819"/>
      <point x="392" y="777" type="curve"/>
    </contour>
  </outline>
</glyph>
<glyph name="Odieresis" format="1">
  <advance width="791"/>
  <unicode hex="00D6"/>
  <outline>
    <contour>
      <point x="763" y="364" type="curve" name="hr00"/>
      <point x="735" y="133"/>
      <point x="561" y="-14"/>
      <point x="380" y="-14" type="curve" smooth="yes"/>
      <point x="193" y="-14"/>
      <point x="60" y="128"/>
      <point x="89" y="364" type="curve" smooth="yes"/>
      <point x="118" y="595"/>
      <point x="293" y="742"/>
      <point x="473" y="742" type="curve" smooth="yes"/>
      <point x="662" y="742"/>
      <point x="792" y="599"/>
    </contour>
    <contour>
      <point x="661" y="364" type="curve"/>
      <point x="684" y="552"/>
      <point x="593" y="669"/>
      <point x="464" y="669" type="curve" smooth="yes"/>
      <point x="335" y="669"/>
      <point x="214" y="552"/>
      <point x="191" y="364" type="curve" smooth="yes"/>
      <point x="168" y="174"/>
      <point x="261" y="58"/>
      <point x="389" y="58" type="curve" smooth="yes"/>
      <point x="518" y="58"/>
      <point x="638" y="174"/>
    </contour>
    <contour>
      <point x="337" y="840" type="curve" smooth="yes"/>
      <point x="340" y="869"/>
      <point x="367" y="892"/>
      <point x="395" y="892" type="curve" smooth="yes"/>
      <point x="424" y="892"/>
      <point x="445" y="869"/>
      <point x="442" y="840" type="curve" smooth="yes"/>
      <point x="438" y="811"/>
      <point x="411" y="788"/>
      <point x="382" y="788" type="curve" smooth="yes"/>
      <point x="354" y="788"/>
      <point x="333" y="811"/>
    </contour>
    <contour>
      <point x="531" y="840" type="curve" smooth="yes"/>
      <point x="534" y="869"/>
      <point x="561" y="892"/>
      <point x="590" y="892" type="curve" smooth="yes"/>
      <point x="618" y="892"/>
      <point x="639" y="869"/>
      <point x="636" y="840" type="curve" smooth="yes"/>
      <point x="632" y="811"/>
      <point x="605" y="788"/>
      <point x="577" y="788" type="curve" smooth="yes"/>
      <point x="548" y="788"/>
      <point x="527" y="811"/>
    </contour>
  </outline>
</glyph>
<glyph name="multiply" format="1">
  <advance width="568"/>
  <unicode hex="00D7"/>
  <outline>
    <contour>
      <point x="69" y="124" type="line" name="hr00"/>
      <point x="272" y="306" type="line"/>
      <point x="113" y="486" type="line"/>
      <point x="165" y="531" type="line"/>
      <point x="324" y="351" type="line"/>
      <point x="525" y="531" type="line"/>
      <point x="564" y="486" type="line"/>
      <point x="363" y="306" type="line"/>
      <point x="522" y="124" type="line"/>
      <point x="471" y="79" type="line"/>
      <point x="312" y="260" type="line"/>
      <point x="108" y="79" type="line"/>
    </contour>
  </outline>
</glyph>
<glyph name="Oslash" format="1">
  <advance width="791"/>
  <unicode hex="00D8"/>
  <outline>
    <contour>
      <point x="677" y="665" type="line"/>
      <point x="744" y="600"/>
      <point x="780" y="497"/>
      <point x="763" y="364" type="curve" smooth="yes"/>
      <point x="735" y="133"/>
      <point x="561" y="-14"/>
      <point x="380" y="-14" type="curve" smooth="yes"/>
      <point x="323" y="-14"/>
      <point x="271" y="-1"/>
      <point x="227" y="24" type="curve"/>
      <point x="168" y="-60" type="line" name="hr01"/>
      <point x="89" y="-60" type="line"/>
      <point x="176" y="62" type="line"/>
      <point x="108" y="126"/>
      <point x="73" y="230"/>
      <point x="89" y="364" type="curve" smooth="yes"/>
      <point x="118" y="595"/>
      <point x="293" y="742"/>
      <point x="473" y="742" type="curve" smooth="yes"/>
      <point x="530" y="742"/>
      <point x="581" y="729"/>
      <point x="625" y="704" type="curve"/>
      <point x="686" y="789" type="line"/>
      <point x="765" y="789" type="line"/>
    </contour>
    <contour>
      <point x="664" y="364" type="curve" smooth="yes"/>
      <point x="676" y="457"/>
      <point x="656" y="533"/>
      <point x="620" y="586" type="curve"/>
      <point x="297" y="133" type="line"/>
      <point x="277" y="159"/>
      <point x="266" y="202"/>
      <point x="292" y="240" type="curve"/>
      <point x="576" y="635" type="line"/>
      <point x="545" y="658"/>
      <point x="506" y="671"/>
      <point x="464" y="671" type="curve" smooth="yes"/>
      <point x="335" y="671"/>
      <point x="211" y="552"/>
      <point x="188" y="364" type="curve" smooth="yes"/>
      <point x="165" y="174"/>
      <point x="260" y="56"/>
      <point x="388" y="56" type="curve" smooth="yes"/>
      <point x="517" y="56"/>
      <point x="641" y="174"/>
    </contour>
  </outline>
</glyph>
<glyph name="Ugrave" format="1">
  <advance width="694"/>
  <unicode hex="00D9"/>
  <outline>
    <contour>
      <point x="345" y="-14" type="curve" smooth="yes" name="hr00"/>
      <point x="175" y="-14"/>
      <point x="90" y="99"/>
      <point x="110" y="268" type="curve" smooth="yes"/>
      <point x="167" y="727" type="line"/>
      <point x="261" y="727" type="line"/>
      <point x="202" y="252" type="line" smooth="yes"/>
      <point x="188" y="134"/>
      <point x="248" y="58"/>
      <point x="354" y="58" type="curve" smooth="yes"/>
      <point x="460" y="58"/>
      <point x="538" y="134"/>
      <point x="552" y="252" type="curve" smooth="yes"/>
      <point x="611" y="727" type="line"/>
      <point x="705" y="727" type="line"/>
      <point x="648" y="268" type="line" smooth="yes"/>
      <point x="628" y="99"/>
      <point x="504" y="-14"/>
    </contour>
    <contour>
      <point x="331" y="890" type="line"/>
      <point x="425" y="890" type="line"/>
      <point x="484" y="766" type="line"/>
      <point x="449" y="758"/>
      <point x="410" y="763"/>
      <point x="392" y="792" type="curve"/>
    </contour>
  </outline>
</glyph>
<glyph name="Uacute" format="1">
  <advance width="694"/>
  <unicode hex="00DA"/>
  <outline>
    <contour>
      <point x="345" y="-14" type="curve" smooth="yes" name="hr00"/>
      <point x="175" y="-14"/>
      <point x="90" y="99"/>
      <point x="110" y="268" type="curve" smooth="yes"/>
      <point x="167" y="727" type="line"/>
      <point x="261" y="727" type="line"/>
      <point x="202" y="252" type="line" smooth="yes"/>
      <point x="188" y="134"/>
      <point x="248" y="58"/>
      <point x="354" y="58" type="curve" smooth="yes"/>
      <point x="460" y="58"/>
      <point x="538" y="134"/>
      <point x="552" y="252" type="curve" smooth="yes"/>
      <point x="611" y="727" type="line"/>
      <point x="705" y="727" type="line"/>
      <point x="648" y="268" type="line" smooth="yes"/>
      <point x="628" y="99"/>
      <point x="504" y="-14"/>
    </contour>
    <contour>
      <point x="500" y="792" type="line"/>
      <point x="469" y="763"/>
      <point x="432" y="758"/>
      <point x="399" y="766" type="curve"/>
      <point x="503" y="890" type="line"/>
      <point x="600" y="890" type="line"/>
    </contour>
  </outline>
</glyph>
<glyph name="Udieresis" format="1">
  <advance width="694"/>
  <unicode hex="00DC"/>
  <outline>
    <contour>
      <point x="345" y="-14" type="curve" smooth="yes" name="hr00"/>
      <point x="175" y="-14"/>
      <point x="90" y="99"/>
      <point x="110" y="268" type="curve" smooth="yes"/>
      <point x="167" y="727" type="line"/>
      <point x="261" y="727" type="line"/>
      <point x="202" y="252" type="line" smooth="yes"/>
      <point x="188" y="134"/>
      <point x="248" y="58"/>
      <point x="354" y="58" type="curve" smooth="yes"/>
      <point x="460" y="58"/>
      <point x="538" y="134"/>
      <point x="552" y="252" type="curve" smooth="yes"/>
      <point x="611" y="727" type="line"/>
      <point x="705" y="727" type="line"/>
      <point x="648" y="268" type="line" smooth="yes"/>
      <point x="628" y="99"/>
      <point x="504" y="-14"/>
    </contour>
    <contour>
      <point x="301" y="840" type="curve" smooth="yes"/>
      <point x="304" y="869"/>
      <point x="331" y="892"/>
      <point x="359" y="892" type="curve" smooth="yes"/>
      <point x="388" y="892"/>
      <point x="409" y="869"/>
      <point x="406" y="840" type="curve" smooth="yes"/>
      <point x="402" y="811"/>
      <point x="375" y="788"/>
      <point x="346" y="788" type="curve" smooth="yes"/>
      <point x="318" y="788"/>
      <point x="297" y="811"/>
    </contour>
    <contour>
      <point x="495" y="840" type="curve" smooth="yes"/>
      <point x="498" y="869"/>
      <point x="525" y="892"/>
      <point x="554" y="892" type="curve" smooth="yes"/>
      <point x="582" y="892"/>
      <point x="603" y="869"/>
      <point x="600" y="840" type="curve" smooth="yes"/>
      <point x="596" y="811"/>
      <point x="569" y="788"/>
      <point x="541" y="788" type="curve" smooth="yes"/>
      <point x="512" y="788"/>
      <point x="491" y="811"/>
    </contour>
  </outline>
</glyph>
<glyph name="Yacute" format="1">
  <advance width="660"/>
  <unicode hex="00DD"/>
  <outline>
    <contour>
      <point x="411" y="337" type="line" name="hr00"/>
      <point x="370" y="0" type="line"/>
      <point x="277" y="0" type="line"/>
      <point x="314" y="309" type="line"/>
      <point x="117" y="727" type="line"/>
      <point x="225" y="727" type="line"/>
    </contour>
    <contour>
      <point x="596" y="727" type="line"/>
      <point x="701" y="727" type="line"/>
      <point x="444" y="376" type="line"/>
      <point x="423" y="407"/>
      <point x="409" y="455"/>
      <point x="442" y="502" type="curve"/>
    </contour>
    <contour>
      <point x="496" y="792" type="line"/>
      <point x="465" y="763"/>
      <point x="428" y="758"/>
      <point x="395" y="766" type="curve"/>
      <point x="499" y="890" type="line"/>
      <point x="596" y="890" type="line"/>
    </contour>
  </outline>
</glyph>
<glyph name="Thorn" format="1">
  <advance width="609"/>
  <unicode hex="00DE"/>
  <outline>
    <contour>
      <point x="602" y="363" type="curve" smooth="yes" name="hr00"/>
      <point x="586" y="235"/>
      <point x="463" y="158"/>
      <point x="342" y="148" type="curve" smooth="yes"/>
      <point x="312" y="145"/>
      <point x="278" y="146"/>
      <point x="243" y="156" type="curve"/>
      <point x="262" y="190"/>
      <point x="296" y="217"/>
      <point x="338" y="217" type="curve" smooth="yes"/>
      <point x="407" y="217"/>
      <point x="491" y="278"/>
      <point x="501" y="363" type="curve" smooth="yes"/>
      <point x="511" y="447"/>
      <point x="446" y="510"/>
      <point x="356" y="510" type="curve" smooth="yes"/>
      <point x="319" y="510"/>
      <point x="282" y="508"/>
      <point x="245" y="504" type="curve"/>
      <point x="184" y="0" type="line"/>
      <point x="92" y="0" type="line"/>
      <point x="181" y="727" type="line"/>
      <point x="273" y="727" type="line"/>
      <point x="254" y="577" type="line"/>
      <point x="290" y="581"/>
      <point x="325" y="583"/>
      <point x="365" y="583" type="curve" smooth="yes"/>
      <point x="526" y="583"/>
      <point x="617" y="484"/>
    </contour>
  </outline>
</glyph>
<glyph name="germandbls" format="1">
  <advance width="567"/>
  <unicode hex="00DF"/>
  <outline>
    <contour>
      <point x="283" y="87" type="line"/>
      <point x="325" y="67"/>
      <point x="363" y="60"/>
      <point x="392" y="60" type="curve" smooth="yes"/>
      <point x="432" y="60"/>
      <point x="468" y="91"/>
      <point x="473" y="136" type="curve" smooth="yes"/>
      <point x="487" y="245"/>
      <point x="313" y="249"/>
      <point x="332" y="401" type="curve" smooth="yes"/>
      <point x="339" y="459"/>
      <point x="384" y="511"/>
      <point x="461" y="541" type="curve"/>
      <point x="467" y="556"/>
      <point x="471" y="571"/>
      <point x="473" y="588" type="curve" smooth="yes"/>
      <point x="480" y="651"/>
      <point x="436" y="695"/>
      <point x="384" y="695" type="curve" smooth="yes"/>
      <point x="328" y="695"/>
      <point x="258" y="655"/>
      <point x="246" y="555" type="curve" smooth="yes"/>
      <point x="178" y="0" type="line" name="hr01"/>
      <point x="91" y="0" type="line"/>
      <point x="157" y="545" type="line" smooth="yes"/>
      <point x="174" y="677"/>
      <point x="259" y="763"/>
      <point x="381" y="763" type="curve" smooth="yes"/>
      <point x="505" y="763"/>
      <point x="563" y="681"/>
      <point x="552" y="588" type="curve" smooth="yes"/>
      <point x="547" y="553"/>
      <point x="534" y="524"/>
      <point x="504" y="484" type="curve"/>
      <point x="455" y="462"/>
      <point x="427" y="440"/>
      <point x="422" y="401" type="curve" smooth="yes"/>
      <point x="409" y="294"/>
      <point x="582" y="289"/>
      <point x="563" y="131" type="curve" smooth="yes"/>
      <point x="553" y="54"/>
      <point x="477" y="-12"/>
      <point x="392" y="-12" type="curve" smooth="yes" name="hr02"/>
      <point x="352" y="-12"/>
      <point x="311" y="-7"/>
      <point x="252" y="25" type="curve"/>
    </contour>
  </outline>
</glyph>
<glyph name="agrave" format="1">
  <advance width="565"/>
  <unicode hex="00E0"/>
  <outline>
    <contour>
      <point x="512" y="176" type="line"/>
      <point x="502" y="96"/>
      <point x="503" y="40"/>
      <point x="507" y="5" type="curve"/>
      <point x="439" y="0" type="line" name="hr01"/>
      <point x="420" y="12"/>
      <point x="403" y="44"/>
      <point x="409" y="82" type="curve"/>
      <point x="454" y="444" type="line"/>
      <point x="424" y="452"/>
      <point x="399" y="455"/>
      <point x="369" y="455" type="curve" smooth="yes"/>
      <point x="269" y="455"/>
      <point x="194" y="384"/>
      <point x="178" y="256" type="curve" smooth="yes"/>
      <point x="164" y="143"/>
      <point x="198" y="56"/>
      <point x="290" y="71" type="curve" smooth="yes"/>
      <point x="319" y="75"/>
      <point x="346" y="67"/>
      <point x="368" y="38" type="curve"/>
      <point x="334" y="14"/>
      <point x="296" y="0"/>
      <point x="266" y="-5" type="curve" smooth="yes"/>
      <point x="147" y="-21"/>
      <point x="60" y="93"/>
      <point x="80" y="256" type="curve" smooth="yes"/>
      <point x="100" y="419"/>
      <point x="223" y="527"/>
      <point x="378" y="527" type="curve" smooth="yes"/>
      <point x="434" y="527"/>
      <point x="485" y="518"/>
      <point x="551" y="495" type="curve"/>
    </contour>
    <contour>
      <point x="270" y="740" type="line"/>
      <point x="365" y="740" type="line"/>
      <point x="421" y="602" type="line"/>
      <point x="386" y="594"/>
      <point x="350" y="599"/>
      <point x="329" y="631" type="curve"/>
    </contour>
  </outline>
</glyph>
<glyph name="atilde" format="1">
  <advance width="565"/>
  <unicode hex="00E3"/>
  <outline>
    <contour>
      <point x="512" y="176" type="line"/>
      <point x="502" y="96"/>
      <point x="503" y="40"/>
      <point x="507" y="5" type="curve"/>
      <point x="439" y="0" type="line" name="hr01"/>
      <point x="420" y="12"/>
      <point x="403" y="44"/>
      <point x="409" y="82" type="curve"/>
      <point x="454" y="444" type="line"/>
      <point x="424" y="452"/>
      <point x="399" y="455"/>
      <point x="369" y="455" type="curve" smooth="yes"/>
      <point x="269" y="455"/>
      <point x="194" y="384"/>
      <point x="178" y="256" type="curve" smooth="yes"/>
      <point x="164" y="143"/>
      <point x="198" y="56"/>
      <point x="290" y="71" type="curve" smooth="yes"/>
      <point x="319" y="75"/>
      <point x="346" y="67"/>
      <point x="368" y="38" type="curve"/>
      <point x="334" y="14"/>
      <point x="296" y="0"/>
      <point x="266" y="-5" type="curve" smooth="yes"/>
      <point x="147" y="-21"/>
      <point x="60" y="93"/>
      <point x="80" y="256" type="curve" smooth="yes"/>
      <point x="100" y="419"/>
      <point x="223" y="527"/>
      <point x="378" y="527" type="curve" smooth="yes"/>
      <point x="434" y="527"/>
      <point x="485" y="518"/>
      <point x="551" y="495" type="curve"/>
    </contour>
    <contour>
      <point x="228" y="624" type="line"/>
      <point x="239" y="699"/>
      <point x="282" y="731"/>
      <point x="330" y="732" type="curve" smooth="yes"/>
      <point x="354" y="732"/>
      <point x="375" y="724"/>
      <point x="391" y="708" type="curve" smooth="yes"/>
      <point x="407" y="692"/>
      <point x="416" y="676"/>
      <point x="442" y="676" type="curve" smooth="yes"/>
      <point x="460" y="676"/>
      <point x="472" y="697"/>
      <point x="480" y="734" type="curve"/>
      <point x="532" y="728" type="line"/>
      <point x="518" y="644"/>
      <point x="473" y="620"/>
      <point x="435" y="620" type="curve" smooth="yes"/>
      <point x="409" y="620"/>
      <point x="387" y="627"/>
      <point x="372" y="643" type="curve"/>
      <point x="355" y="659"/>
      <point x="348" y="676"/>
      <point x="325" y="676" type="curve" smooth="yes"/>
      <point x="308" y="676"/>
      <point x="291" y="660"/>
      <point x="282" y="618" type="curve"/>
    </contour>
  </outline>
</glyph>
<glyph name="adieresis" format="1">
  <advance width="565"/>
  <unicode hex="00E4"/>
  <outline>
    <contour>
      <point x="512" y="176" type="line"/>
      <point x="502" y="96"/>
      <point x="503" y="40"/>
      <point x="507" y="5" type="curve"/>
      <point x="439" y="0" type="line" name="hr01"/>
      <point x="420" y="12"/>
      <point x="403" y="44"/>
      <point x="409" y="82" type="curve"/>
      <point x="454" y="444" type="line"/>
      <point x="424" y="452"/>
      <point x="399" y="455"/>
      <point x="369" y="455" type="curve" smooth="yes"/>
      <point x="269" y="455"/>
      <point x="194" y="384"/>
      <point x="178" y="256" type="curve" smooth="yes"/>
      <point x="164" y="143"/>
      <point x="198" y="56"/>
      <point x="290" y="71" type="curve" smooth="yes"/>
      <point x="319" y="75"/>
      <point x="346" y="67"/>
      <point x="368" y="38" type="curve"/>
      <point x="334" y="14"/>
      <point x="296" y="0"/>
      <point x="266" y="-5" type="curve" smooth="yes"/>
      <point x="147" y="-21"/>
      <point x="60" y="93"/>
      <point x="80" y="256" type="curve" smooth="yes"/>
      <point x="100" y="419"/>
      <point x="223" y="527"/>
      <point x="378" y="527" type="curve" smooth="yes"/>
      <point x="434" y="527"/>
      <point x="485" y="518"/>
      <point x="551" y="495" type="curve"/>
    </contour>
    <contour>
      <point x="232" y="670" type="curve" smooth="yes"/>
      <point x="235" y="699"/>
      <point x="262" y="722"/>
      <point x="290" y="722" type="curve" smooth="yes"/>
      <point x="319" y="722"/>
      <point x="340" y="699"/>
      <point x="337" y="670" type="curve" smooth="yes"/>
      <point x="333" y="641"/>
      <point x="306" y="618"/>
      <point x="277" y="618" type="curve" smooth="yes"/>
      <point x="249" y="618"/>
      <point x="228" y="641"/>
    </contour>
    <contour>
      <point x="426" y="670" type="curve" smooth="yes"/>
      <point x="429" y="699"/>
      <point x="456" y="722"/>
      <point x="485" y="722" type="curve" smooth="yes"/>
      <point x="513" y="722"/>
      <point x="534" y="699"/>
      <point x="531" y="670" type="curve" smooth="yes"/>
      <point x="527" y="641"/>
      <point x="500" y="618"/>
      <point x="472" y="618" type="curve" smooth="yes"/>
      <point x="443" y="618"/>
      <point x="422" y="641"/>
    </contour>
  </outline>
</glyph>
<glyph name="ae" format="1">
  <advance width="850"/>
  <unicode hex="00E6"/>
  <outline>
    <contour>
      <point x="738" y="317" type="line" name="hr00"/>
      <point x="757" y="394"/>
      <point x="714" y="455"/>
      <point x="649" y="455" type="curve" smooth="yes"/>
      <point x="565" y="455"/>
      <point x="499" y="385"/>
      <point x="484" y="262" type="curve" smooth="yes"/>
      <point x="469" y="143"/>
      <point x="527" y="62"/>
      <point x="618" y="62" type="curve" smooth="yes"/>
      <point x="664" y="62"/>
      <point x="701" y="69"/>
      <point x="762" y="98" type="curve"/>
      <point x="778" y="32" type="line"/>
      <point x="710" y="-1"/>
      <point x="647" y="-10"/>
      <point x="599" y="-10" type="curve" smooth="yes"/>
      <point x="516" y="-10"/>
      <point x="442" y="52"/>
      <point x="425" y="131" type="curve"/>
      <point x="387" y="45"/>
      <point x="305" y="-10"/>
      <point x="212" y="-10" type="curve" smooth="yes"/>
      <point x="108" y="-10"/>
      <point x="52" y="51"/>
      <point x="62" y="132" type="curve" smooth="yes"/>
      <point x="74" y="233"/>
      <point x="152" y="278"/>
      <point x="360" y="302" type="curve"/>
      <point x="353" y="278"/>
      <point x="332" y="233"/>
      <point x="278" y="225" type="curve" smooth="yes"/>
      <point x="188" y="211"/>
      <point x="166" y="175"/>
      <point x="161" y="138" type="curve" smooth="yes"/>
      <point x="156" y="97"/>
      <point x="183" y="62"/>
      <point x="234" y="62" type="curve" smooth="yes"/>
      <point x="318" y="62"/>
      <point x="375" y="134"/>
      <point x="391" y="262" type="curve"/>
      <point x="398" y="321" type="line" smooth="yes"/>
      <point x="408" y="400"/>
      <point x="379" y="455"/>
      <point x="288" y="455" type="curve" smooth="yes"/>
      <point x="252" y="455"/>
      <point x="220" y="448"/>
      <point x="169" y="431" type="curve"/>
      <point x="154" y="493" type="line"/>
      <point x="222" y="521"/>
      <point x="271" y="527"/>
      <point x="315" y="527" type="curve" smooth="yes"/>
      <point x="392" y="527"/>
      <point x="448" y="482"/>
      <point x="467" y="419" type="curve"/>
      <point x="508" y="481"/>
      <point x="588" y="527"/>
      <point x="668" y="527" type="curve" smooth="yes"/>
      <point x="805" y="527"/>
      <point x="870" y="393"/>
      <point x="808" y="250" type="curve"/>
      <point x="518" y="250" type="line"/>
      <point x="537" y="288"/>
      <point x="563" y="317"/>
      <point x="611" y="317" type="curve"/>
    </contour>
  </outline>
</glyph>
<glyph name="ccedilla" format="1">
  <advance width="427"/>
  <unicode hex="00E7"/>
  <outline>
    <contour>
      <point x="276" y="-10" type="line" name="hr00"/>
      <point x="261" y="-50" type="line"/>
      <point x="299" y="-54"/>
      <point x="337" y="-82"/>
      <point x="332" y="-123" type="curve" smooth="yes"/>
      <point x="325" y="-183"/>
      <point x="262" y="-206"/>
      <point x="208" y="-206" type="curve" smooth="yes"/>
      <point x="185" y="-206"/>
      <point x="162" y="-201"/>
      <point x="132" y="-187" type="curve"/>
      <point x="151" y="-144" type="line"/>
      <point x="175" y="-154"/>
      <point x="194" y="-157"/>
      <point x="214" y="-157" type="curve" smooth="yes"/>
      <point x="237" y="-157"/>
      <point x="268" y="-150"/>
      <point x="271" y="-126" type="curve" smooth="yes"/>
      <point x="274" y="-101"/>
      <point x="248" y="-89"/>
      <point x="201" y="-84" type="curve"/>
      <point x="232" y="-5" type="line"/>
      <point x="124" y="15"/>
      <point x="55" y="107"/>
      <point x="73" y="259" type="curve" smooth="yes"/>
      <point x="95" y="432"/>
      <point x="218" y="527"/>
      <point x="347" y="527" type="curve" smooth="yes"/>
      <point x="383" y="527"/>
      <point x="428" y="521"/>
      <point x="467" y="506" type="curve"/>
      <point x="434" y="440" type="line"/>
      <point x="399" y="451"/>
      <point x="368" y="455"/>
      <point x="338" y="455" type="curve" smooth="yes"/>
      <point x="262" y="455"/>
      <point x="189" y="393"/>
      <point x="172" y="259" type="curve" smooth="yes"/>
      <point x="156" y="124"/>
      <point x="213" y="62"/>
      <point x="290" y="62" type="curve" smooth="yes"/>
      <point x="319" y="62"/>
      <point x="355" y="70"/>
      <point x="404" y="91" type="curve"/>
      <point x="421" y="25" type="line"/>
      <point x="363" y="-2"/>
      <point x="312" y="-10"/>
      <point x="281" y="-10" type="curve"/>
    </contour>
  </outline>
</glyph>
<glyph name="eacute" format="1">
  <advance width="544"/>
  <unicode hex="00E9"/>
  <outline>
    <contour>
      <point x="435" y="317" type="line" name="hr00"/>
      <point x="454" y="394"/>
      <point x="411" y="455"/>
      <point x="346" y="455" type="curve" smooth="yes"/>
      <point x="262" y="455"/>
      <point x="196" y="385"/>
      <point x="181" y="262" type="curve" smooth="yes"/>
      <point x="166" y="143"/>
      <point x="224" y="62"/>
      <point x="315" y="62" type="curve" smooth="yes"/>
      <point x="361" y="62"/>
      <point x="398" y="69"/>
      <point x="459" y="98" type="curve"/>
      <point x="475" y="32" type="line"/>
      <point x="407" y="-1"/>
      <point x="344" y="-10"/>
      <point x="296" y="-10" type="curve" smooth="yes"/>
      <point x="149" y="-10"/>
      <point x="69" y="106"/>
      <point x="88" y="263" type="curve" smooth="yes"/>
      <point x="108" y="425"/>
      <point x="214" y="527"/>
      <point x="365" y="527" type="curve" smooth="yes"/>
      <point x="502" y="527"/>
      <point x="567" y="393"/>
      <point x="505" y="250" type="curve"/>
      <point x="215" y="250" type="line"/>
      <point x="234" y="288"/>
      <point x="260" y="317"/>
      <point x="308" y="317" type="curve"/>
    </contour>
    <contour>
      <point x="419" y="631" type="line"/>
      <point x="388" y="599"/>
      <point x="350" y="593"/>
      <point x="317" y="602" type="curve"/>
      <point x="423" y="740" type="line"/>
      <point x="520" y="740" type="line"/>
    </contour>
  </outline>
</glyph>
<glyph name="edieresis" format="1">
  <advance width="544"/>
  <unicode hex="00EB"/>
  <outline>
    <contour>
      <point x="435" y="317" type="line" name="hr00"/>
      <point x="454" y="394"/>
      <point x="411" y="455"/>
      <point x="346" y="455" type="curve" smooth="yes"/>
      <point x="262" y="455"/>
      <point x="196" y="385"/>
      <point x="181" y="262" type="curve" smooth="yes"/>
      <point x="166" y="143"/>
      <point x="224" y="62"/>
      <point x="315" y="62" type="curve" smooth="yes"/>
      <point x="361" y="62"/>
      <point x="398" y="69"/>
      <point x="459" y="98" type="curve"/>
      <point x="475" y="32" type="line"/>
      <point x="407" y="-1"/>
      <point x="344" y="-10"/>
      <point x="296" y="-10" type="curve" smooth="yes"/>
      <point x="149" y="-10"/>
      <point x="69" y="106"/>
      <point x="88" y="263" type="curve" smooth="yes"/>
      <point x="108" y="425"/>
      <point x="214" y="527"/>
      <point x="365" y="527" type="curve" smooth="yes"/>
      <point x="502" y="527"/>
      <point x="567" y="393"/>
      <point x="505" y="250" type="curve"/>
      <point x="215" y="250" type="line"/>
      <point x="234" y="288"/>
      <point x="260" y="317"/>
      <point x="308" y="317" type="curve"/>
    </contour>
    <contour>
      <point x="218" y="670" type="curve" smooth="yes"/>
      <point x="221" y="699"/>
      <point x="248" y="722"/>
      <point x="276" y="722" type="curve" smooth="yes"/>
      <point x="305" y="722"/>
      <point x="326" y="699"/>
      <point x="323" y="670" type="curve" smooth="yes"/>
      <point x="319" y="641"/>
      <point x="292" y="618"/>
      <point x="263" y="618" type="curve" smooth="yes"/>
      <point x="235" y="618"/>
      <point x="214" y="641"/>
    </contour>
    <contour>
      <point x="412" y="670" type="curve" smooth="yes"/>
      <point x="415" y="699"/>
      <point x="442" y="722"/>
      <point x="471" y="722" type="curve" smooth="yes"/>
      <point x="499" y="722"/>
      <point x="520" y="699"/>
      <point x="517" y="670" type="curve" smooth="yes"/>
      <point x="513" y="641"/>
      <point x="486" y="618"/>
      <point x="458" y="618" type="curve" smooth="yes"/>
      <point x="429" y="618"/>
      <point x="408" y="641"/>
    </contour>
  </outline>
</glyph>
<glyph name="igrave" format="1">
  <advance width="276"/>
  <unicode hex="00EC"/>
  <outline>
    <contour>
      <point x="110" y="0" type="line" name="hr00"/>
      <point x="173" y="517" type="line"/>
      <point x="269" y="517" type="line"/>
      <point x="206" y="0" type="line"/>
    </contour>
    <contour>
      <point x="110" y="740" type="line"/>
      <point x="205" y="740" type="line"/>
      <point x="261" y="602" type="line"/>
      <point x="226" y="594"/>
      <point x="190" y="599"/>
      <point x="169" y="631" type="curve"/>
    </contour>
  </outline>
</glyph>
<glyph name="iacute" format="1">
  <advance width="273"/>
  <unicode hex="00ED"/>
  <outline>
    <contour>
      <point x="70" y="0" type="line" name="hr00"/>
      <point x="133" y="517" type="line"/>
      <point x="229" y="517" type="line"/>
      <point x="166" y="0" type="line"/>
    </contour>
    <contour>
      <point x="247" y="631" type="line"/>
      <point x="216" y="599"/>
      <point x="178" y="593"/>
      <point x="145" y="602" type="curve"/>
      <point x="251" y="740" type="line"/>
      <point x="348" y="740" type="line"/>
    </contour>
  </outline>
</glyph>
<glyph name="icircumflex" format="1">
  <advance width="337"/>
  <unicode hex="00EE"/>
  <outline>
    <contour>
      <point x="119" y="0" type="line" name="hr00"/>
      <point x="182" y="517" type="line"/>
      <point x="278" y="517" type="line"/>
      <point x="215" y="0" type="line"/>
    </contour>
    <contour>
      <point x="287" y="743" type="line"/>
      <point x="380" y="598" type="line"/>
      <point x="327" y="590" type="line"/>
      <point x="249" y="674" type="line"/>
      <point x="151" y="589" type="line"/>
      <point x="103" y="598" type="line"/>
      <point x="230" y="743" type="line"/>
    </contour>
  </outline>
</glyph>
<glyph name="idieresis" format="1">
  <advance width="352"/>
  <unicode hex="00EF"/>
  <outline>
    <contour>
      <point x="129" y="0" type="line" name="hr00"/>
      <point x="192" y="517" type="line"/>
      <point x="288" y="517" type="line"/>
      <point x="225" y="0" type="line"/>
    </contour>
    <contour>
      <point x="109" y="670" type="curve" smooth="yes"/>
      <point x="112" y="699"/>
      <point x="139" y="722"/>
      <point x="167" y="722" type="curve" smooth="yes"/>
      <point x="196" y="722"/>
      <point x="217" y="699"/>
      <point x="214" y="670" type="curve" smooth="yes"/>
      <point x="210" y="641"/>
      <point x="183" y="618"/>
      <point x="154" y="618" type="curve" smooth="yes"/>
      <point x="126" y="618"/>
      <point x="105" y="641"/>
    </contour>
    <contour>
      <point x="302" y="670" type="curve" smooth="yes"/>
      <point x="305" y="699"/>
      <point x="332" y="722"/>
      <point x="360" y="722" type="curve" smooth="yes"/>
      <point x="389" y="722"/>
      <point x="410" y="699"/>
      <point x="407" y="670" type="curve" smooth="yes"/>
      <point x="403" y="641"/>
      <point x="376" y="618"/>
      <point x="347" y="618" type="curve" smooth="yes"/>
      <point x="319" y="618"/>
      <point x="298" y="641"/>
    </contour>
  </outline>
</glyph>
<glyph name="eth" format="1">
  <advance width="557"/>
  <unicode hex="00F0"/>
  <outline>
    <contour>
      <point x="553" y="259" type="curve" name="hr00"/>
      <point x="532" y="85"/>
      <point x="408" y="-10"/>
      <point x="279" y="-10" type="curve" smooth="yes"/>
      <point x="145" y="-10"/>
      <point x="50" y="85"/>
      <point x="71" y="259" type="curve" smooth="yes"/>
      <point x="93" y="432"/>
      <point x="216" y="527"/>
      <point x="345" y="527" type="curve" smooth="yes"/>
      <point x="366" y="527"/>
      <point x="389" y="524"/>
      <point x="411" y="513" type="curve"/>
      <point x="451" y="489" type="line"/>
      <point x="429" y="519" type="line"/>
      <point x="403" y="561"/>
      <point x="366" y="598"/>
      <point x="348" y="613" type="curve"/>
      <point x="215" y="553" type="line"/>
      <point x="202" y="596" type="line"/>
      <point x="307" y="645" type="line"/>
      <point x="279" y="667"/>
      <point x="250" y="684"/>
      <point x="216" y="702" type="curve"/>
      <point x="255" y="760" type="line"/>
      <point x="300" y="738"/>
      <point x="347" y="710"/>
      <point x="386" y="679" type="curve"/>
      <point x="505" y="733" type="line"/>
      <point x="520" y="689" type="line"/>
      <point x="425" y="646" type="line"/>
      <point x="468" y="606"/>
      <point x="577" y="451"/>
    </contour>
    <contour>
      <point x="454" y="259" type="curve" smooth="yes"/>
      <point x="471" y="393"/>
      <point x="412" y="455"/>
      <point x="336" y="455" type="curve" smooth="yes"/>
      <point x="260" y="455"/>
      <point x="187" y="393"/>
      <point x="170" y="259" type="curve" smooth="yes"/>
      <point x="154" y="124"/>
      <point x="211" y="62"/>
      <point x="288" y="62" type="curve" smooth="yes"/>
      <point x="364" y="62"/>
      <point x="438" y="124"/>
    </contour>
  </outline>
</glyph>
<glyph name="ntilde" format="1">
  <advance width="596"/>
  <unicode hex="00F1"/>
  <outline>
    <contour>
      <point x="459" y="376" type="line"/>
      <point x="464" y="422"/>
      <point x="447" y="455"/>
      <point x="406" y="455" type="curve" smooth="yes"/>
      <point x="390" y="455"/>
      <point x="380" y="451"/>
      <point x="362" y="447" type="curve" smooth="yes"/>
      <point x="322" y="438"/>
      <point x="290" y="445"/>
      <point x="266" y="474" type="curve"/>
      <point x="342" y="516"/>
      <point x="388" y="527"/>
      <point x="424" y="527" type="curve" smooth="yes"/>
      <point x="504" y="527"/>
      <point x="569" y="490"/>
      <point x="553" y="366" type="curve" smooth="yes"/>
      <point x="509" y="0" type="line"/>
      <point x="413" y="0" type="line"/>
    </contour>
    <contour>
      <point x="228" y="624" type="line"/>
      <point x="239" y="699"/>
      <point x="282" y="731"/>
      <point x="330" y="732" type="curve" smooth="yes"/>
      <point x="354" y="732"/>
      <point x="375" y="724"/>
      <point x="391" y="708" type="curve" smooth="yes"/>
      <point x="407" y="692"/>
      <point x="416" y="676"/>
      <point x="442" y="676" type="curve" smooth="yes"/>
      <point x="460" y="676"/>
      <point x="472" y="697"/>
      <point x="480" y="734" type="curve" name="hr01"/>
      <point x="532" y="728" type="line"/>
      <point x="518" y="644"/>
      <point x="473" y="620"/>
      <point x="435" y="620" type="curve" smooth="yes"/>
      <point x="409" y="620"/>
      <point x="387" y="627"/>
      <point x="372" y="643" type="curve" smooth="yes"/>
      <point x="355" y="659"/>
      <point x="348" y="676"/>
      <point x="325" y="676" type="curve" smooth="yes"/>
      <point x="308" y="676"/>
      <point x="291" y="660"/>
      <point x="282" y="618" type="curve"/>
    </contour>
    <contour>
      <point x="205" y="517" type="line"/>
      <point x="233" y="481"/>
      <point x="235" y="447"/>
      <point x="230" y="407" type="curve" smooth="yes"/>
      <point x="181" y="0" type="line"/>
      <point x="85" y="0" type="line"/>
      <point x="132" y="386" type="line" smooth="yes"/>
      <point x="136" y="423"/>
      <point x="137" y="465"/>
      <point x="132" y="512" type="curve"/>
    </contour>
  </outline>
</glyph>
<glyph name="ograve" format="1">
  <advance width="566"/>
  <unicode hex="00F2"/>
  <outline>
    <contour>
      <point x="553" y="259" type="curve" name="hr00"/>
      <point x="532" y="85"/>
      <point x="408" y="-10"/>
      <point x="279" y="-10" type="curve" smooth="yes"/>
      <point x="145" y="-10"/>
      <point x="50" y="85"/>
      <point x="71" y="259" type="curve"/>
      <point x="93" y="432"/>
      <point x="216" y="527"/>
      <point x="345" y="527" type="curve"/>
      <point x="479" y="527"/>
      <point x="575" y="432"/>
    </contour>
    <contour>
      <point x="454" y="259" type="curve"/>
      <point x="471" y="393"/>
      <point x="412" y="455"/>
      <point x="336" y="455" type="curve"/>
      <point x="260" y="455"/>
      <point x="187" y="393"/>
      <point x="170" y="259" type="curve"/>
      <point x="154" y="124"/>
      <point x="211" y="62"/>
      <point x="288" y="62" type="curve" smooth="yes"/>
      <point x="364" y="62"/>
      <point x="438" y="124"/>
    </contour>
    <contour>
      <point x="246" y="740" type="line"/>
      <point x="341" y="740" type="line"/>
      <point x="397" y="602" type="line"/>
      <point x="362" y="594"/>
      <point x="326" y="599"/>
      <point x="305" y="631" type="curve"/>
    </contour>
  </outline>
</glyph>
<glyph name="oacute" format="1">
  <advance width="566"/>
  <unicode hex="00F3"/>
  <outline>
    <contour>
      <point x="553" y="259" type="curve" name="hr00"/>
      <point x="532" y="85"/>
      <point x="408" y="-10"/>
      <point x="279" y="-10" type="curve" smooth="yes"/>
      <point x="145" y="-10"/>
      <point x="50" y="85"/>
      <point x="71" y="259" type="curve"/>
      <point x="93" y="432"/>
      <point x="216" y="527"/>
      <point x="345" y="527" type="curve"/>
      <point x="479" y="527"/>
      <point x="575" y="432"/>
    </contour>
    <contour>
      <point x="454" y="259" type="curve"/>
      <point x="471" y="393"/>
      <point x="412" y="455"/>
      <point x="336" y="455" type="curve"/>
      <point x="260" y="455"/>
      <point x="187" y="393"/>
      <point x="170" y="259" type="curve"/>
      <point x="154" y="124"/>
      <point x="211" y="62"/>
      <point x="288" y="62" type="curve" smooth="yes"/>
      <point x="364" y="62"/>
      <point x="438" y="124"/>
    </contour>
    <contour>
      <point x="410" y="631" type="line"/>
      <point x="379" y="599"/>
      <point x="341" y="593"/>
      <point x="308" y="602" type="curve"/>
      <point x="414" y="740" type="line"/>
      <point x="511" y="740" type="line"/>
    </contour>
  </outline>
</glyph>
<glyph name="ocircumflex" format="1">
  <advance width="566"/>
  <unicode hex="00F4"/>
  <outline>
    <contour>
      <point x="553" y="259" type="curve" name="hr00"/>
      <point x="532" y="85"/>
      <point x="408" y="-10"/>
      <point x="279" y="-10" type="curve" smooth="yes"/>
      <point x="145" y="-10"/>
      <point x="50" y="85"/>
      <point x="71" y="259" type="curve"/>
      <point x="93" y="432"/>
      <point x="216" y="527"/>
      <point x="345" y="527" type="curve"/>
      <point x="479" y="527"/>
      <point x="575" y="432"/>
    </contour>
    <contour>
      <point x="454" y="259" type="curve"/>
      <point x="471" y="393"/>
      <point x="412" y="455"/>
      <point x="336" y="455" type="curve"/>
      <point x="260" y="455"/>
      <point x="187" y="393"/>
      <point x="170" y="259" type="curve"/>
      <point x="154" y="124"/>
      <point x="211" y="62"/>
      <point x="288" y="62" type="curve" smooth="yes"/>
      <point x="364" y="62"/>
      <point x="438" y="124"/>
    </contour>
    <contour>
      <point x="401" y="743" type="line"/>
      <point x="494" y="598" type="line"/>
      <point x="441" y="590" type="line"/>
      <point x="363" y="674" type="line"/>
      <point x="265" y="589" type="line"/>
      <point x="217" y="598" type="line"/>
      <point x="344" y="743" type="line"/>
    </contour>
  </outline>
</glyph>
<glyph name="otilde" format="1">
  <advance width="566"/>
  <unicode hex="00F5"/>
  <outline>
    <contour>
      <point x="553" y="259" type="curve"/>
      <point x="532" y="85"/>
      <point x="408" y="-10"/>
      <point x="279" y="-10" type="curve" smooth="yes"/>
      <point x="145" y="-10"/>
      <point x="50" y="85"/>
      <point x="71" y="259" type="curve"/>
      <point x="93" y="432"/>
      <point x="216" y="527"/>
      <point x="345" y="527" type="curve"/>
      <point x="479" y="527"/>
      <point x="575" y="432"/>
    </contour>
    <contour>
      <point x="454" y="259" type="curve"/>
      <point x="471" y="393"/>
      <point x="412" y="455"/>
      <point x="336" y="455" type="curve"/>
      <point x="260" y="455"/>
      <point x="187" y="393"/>
      <point x="170" y="259" type="curve"/>
      <point x="154" y="124"/>
      <point x="211" y="62"/>
      <point x="288" y="62" type="curve" smooth="yes"/>
      <point x="364" y="62"/>
      <point x="438" y="124"/>
    </contour>
    <contour>
      <point x="213" y="624" type="line"/>
      <point x="224" y="699"/>
      <point x="267" y="731"/>
      <point x="315" y="732" type="curve" smooth="yes"/>
      <point x="339" y="732"/>
      <point x="360" y="724"/>
      <point x="376" y="708" type="curve" smooth="yes"/>
      <point x="392" y="692"/>
      <point x="401" y="676"/>
      <point x="427" y="676" type="curve" smooth="yes"/>
      <point x="445" y="676"/>
      <point x="457" y="697"/>
      <point x="465" y="734" type="curve" name="hr01"/>
      <point x="517" y="728" type="line"/>
      <point x="503" y="644"/>
      <point x="458" y="620"/>
      <point x="420" y="620" type="curve" smooth="yes"/>
      <point x="394" y="620"/>
      <point x="372" y="627"/>
      <point x="357" y="643" type="curve" smooth="yes"/>
      <point x="340" y="659"/>
      <point x="333" y="676"/>
      <point x="310" y="676" type="curve" smooth="yes"/>
      <point x="293" y="676"/>
      <point x="276" y="660"/>
      <point x="267" y="618" type="curve"/>
    </contour>
  </outline>
</glyph>
<glyph name="odieresis" format="1">
  <advance width="566"/>
  <unicode hex="00F6"/>
  <outline>
    <contour>
      <point x="553" y="259" type="curve" name="hr00"/>
      <point x="532" y="85"/>
      <point x="408" y="-10"/>
      <point x="279" y="-10" type="curve" smooth="yes"/>
      <point x="145" y="-10"/>
      <point x="50" y="85"/>
      <point x="71" y="259" type="curve"/>
      <point x="93" y="432"/>
      <point x="216" y="527"/>
      <point x="345" y="527" type="curve"/>
      <point x="479" y="527"/>
      <point x="575" y="432"/>
    </contour>
    <contour>
      <point x="454" y="259" type="curve"/>
      <point x="471" y="393"/>
      <point x="412" y="455"/>
      <point x="336" y="455" type="curve"/>
      <point x="260" y="455"/>
      <point x="187" y="393"/>
      <point x="170" y="259" type="curve"/>
      <point x="154" y="124"/>
      <point x="211" y="62"/>
      <point x="288" y="62" type="curve" smooth="yes"/>
      <point x="364" y="62"/>
      <point x="438" y="124"/>
    </contour>
    <contour>
      <point x="213" y="670" type="curve" smooth="yes"/>
      <point x="216" y="699"/>
      <point x="243" y="722"/>
      <point x="271" y="722" type="curve" smooth="yes"/>
      <point x="300" y="722"/>
      <point x="321" y="699"/>
      <point x="318" y="670" type="curve" smooth="yes"/>
      <point x="314" y="641"/>
      <point x="287" y="618"/>
      <point x="258" y="618" type="curve" smooth="yes"/>
      <point x="230" y="618"/>
      <point x="209" y="641"/>
    </contour>
    <contour>
      <point x="407" y="670" type="curve" smooth="yes"/>
      <point x="410" y="699"/>
      <point x="437" y="722"/>
      <point x="466" y="722" type="curve" smooth="yes"/>
      <point x="494" y="722"/>
      <point x="515" y="699"/>
      <point x="512" y="670" type="curve" smooth="yes"/>
      <point x="508" y="641"/>
      <point x="481" y="618"/>
      <point x="453" y="618" type="curve" smooth="yes"/>
      <point x="424" y="618"/>
      <point x="403" y="641"/>
    </contour>
  </outline>
</glyph>
<glyph name="divide" format="1">
  <advance width="568"/>
  <unicode hex="00F7"/>
  <outline>
    <contour>
      <point x="88" y="337" type="line" name="hr00"/>
      <point x="556" y="337" type="line"/>
      <point x="548" y="273" type="line"/>
      <point x="80" y="273" type="line"/>
    </contour>
    <contour>
      <point x="290" y="494" type="curve" smooth="yes"/>
      <point x="294" y="524"/>
      <point x="318" y="546"/>
      <point x="347" y="546" type="curve" smooth="yes"/>
      <point x="377" y="546"/>
      <point x="396" y="524"/>
      <point x="392" y="494" type="curve" smooth="yes"/>
      <point x="389" y="465"/>
      <point x="364" y="444"/>
      <point x="334" y="444" type="curve" smooth="yes"/>
      <point x="305" y="444"/>
      <point x="287" y="465"/>
    </contour>
    <contour>
      <point x="243" y="112" type="curve" smooth="yes"/>
      <point x="247" y="142"/>
      <point x="271" y="164"/>
      <point x="300" y="164" type="curve" smooth="yes"/>
      <point x="330" y="164"/>
      <point x="349" y="142"/>
      <point x="345" y="112" type="curve" smooth="yes"/>
      <point x="342" y="83"/>
      <point x="317" y="62"/>
      <point x="287" y="62" type="curve" smooth="yes"/>
      <point x="258" y="62"/>
      <point x="240" y="83"/>
    </contour>
  </outline>
</glyph>
<glyph name="oslash" format="1">
  <advance width="500"/>
  <unicode hex="00F8"/>
  <outline>
    <contour>
      <point x="553" y="259" type="curve" smooth="yes"/>
      <point x="532" y="85"/>
      <point x="408" y="-10"/>
      <point x="279" y="-10" type="curve" smooth="yes"/>
      <point x="242" y="-10"/>
      <point x="208" y="-3"/>
      <point x="179" y="11" type="curve"/>
      <point x="124" y="-66" type="line" name="hr01"/>
      <point x="47" y="-66" type="line"/>
      <point x="127" y="47" type="line"/>
      <point x="83" y="93"/>
      <point x="60" y="164"/>
      <point x="71" y="259" type="curve" smooth="yes"/>
      <point x="93" y="432"/>
      <point x="216" y="527"/>
      <point x="345" y="527" type="curve" smooth="yes"/>
      <point x="385" y="527"/>
      <point x="422" y="518"/>
      <point x="454" y="501" type="curve"/>
      <point x="506" y="573" type="line"/>
      <point x="580" y="573" type="line"/>
      <point x="501" y="464" type="line"/>
      <point x="543" y="418"/>
      <point x="564" y="349"/>
    </contour>
    <contour>
      <point x="457" y="258" type="curve" smooth="yes"/>
      <point x="464" y="310"/>
      <point x="458" y="352"/>
      <point x="445" y="384" type="curve"/>
      <point x="248" y="109" type="line"/>
      <point x="228" y="135"/>
      <point x="225" y="180"/>
      <point x="246" y="212" type="curve"/>
      <point x="406" y="435" type="line"/>
      <point x="386" y="450"/>
      <point x="362" y="457"/>
      <point x="337" y="457" type="curve" smooth="yes"/>
      <point x="261" y="457"/>
      <point x="184" y="393"/>
      <point x="167" y="259" type="curve" smooth="yes"/>
      <point x="151" y="124"/>
      <point x="211" y="60"/>
      <point x="288" y="60" type="curve" smooth="yes"/>
      <point x="364" y="60"/>
      <point x="441" y="123"/>
    </contour>
  </outline>
</glyph>
<glyph name="uacute" format="1">
  <advance width="587"/>
  <unicode hex="00FA"/>
  <outline>
    <contour>
      <point x="435" y="0" type="line"/>
      <point x="407" y="36"/>
      <point x="404" y="70"/>
      <point x="409" y="110" type="curve" smooth="yes"/>
      <point x="459" y="517" type="line"/>
      <point x="552" y="517" type="line"/>
      <point x="505" y="131" type="line" smooth="yes"/>
      <point x="500" y="94"/>
      <point x="499" y="52"/>
      <point x="506" y="5" type="curve"/>
    </contour>
    <contour>
      <point x="182" y="141" type="line"/>
      <point x="176" y="95"/>
      <point x="191" y="62"/>
      <point x="233" y="62" type="curve" smooth="yes" name="hr01"/>
      <point x="249" y="62"/>
      <point x="259" y="66"/>
      <point x="277" y="70" type="curve" smooth="yes"/>
      <point x="317" y="79"/>
      <point x="349" y="72"/>
      <point x="374" y="43" type="curve"/>
      <point x="298" y="1"/>
      <point x="250" y="-10"/>
      <point x="214" y="-10" type="curve" smooth="yes"/>
      <point x="135" y="-10"/>
      <point x="74" y="27"/>
      <point x="89" y="151" type="curve" smooth="yes"/>
      <point x="134" y="517" type="line"/>
      <point x="228" y="517" type="line"/>
    </contour>
    <contour>
      <point x="423" y="631" type="line"/>
      <point x="392" y="599"/>
      <point x="354" y="593"/>
      <point x="321" y="602" type="curve"/>
      <point x="427" y="740" type="line"/>
      <point x="524" y="740" type="line"/>
    </contour>
  </outline>
</glyph>
